%TF.GenerationSoftware,KiCad,Pcbnew,8.0.8*%
%TF.CreationDate,2025-02-23T18:35:03+01:00*%
%TF.ProjectId,espio,65737069-6f2e-46b6-9963-61645f706362,rev?*%
%TF.SameCoordinates,Original*%
%TF.FileFunction,Legend,Bot*%
%TF.FilePolarity,Positive*%
%FSLAX46Y46*%
G04 Gerber Fmt 4.6, Leading zero omitted, Abs format (unit mm)*
G04 Created by KiCad (PCBNEW 8.0.8) date 2025-02-23 18:35:03*
%MOMM*%
%LPD*%
G01*
G04 APERTURE LIST*
%ADD10C,0.150000*%
%ADD11C,0.120000*%
%ADD12R,1.700000X1.700000*%
%ADD13O,1.700000X1.700000*%
%ADD14C,2.000000*%
%ADD15C,2.500000*%
G04 APERTURE END LIST*
D10*
X151438697Y-97170177D02*
X151438697Y-96320177D01*
X151074411Y-96401129D02*
X151033935Y-96360653D01*
X151033935Y-96360653D02*
X150952982Y-96320177D01*
X150952982Y-96320177D02*
X150750601Y-96320177D01*
X150750601Y-96320177D02*
X150669649Y-96360653D01*
X150669649Y-96360653D02*
X150629173Y-96401129D01*
X150629173Y-96401129D02*
X150588696Y-96482081D01*
X150588696Y-96482081D02*
X150588696Y-96563034D01*
X150588696Y-96563034D02*
X150629173Y-96684462D01*
X150629173Y-96684462D02*
X151114887Y-97170177D01*
X151114887Y-97170177D02*
X150588696Y-97170177D01*
X149738696Y-97089224D02*
X149779172Y-97129701D01*
X149779172Y-97129701D02*
X149900601Y-97170177D01*
X149900601Y-97170177D02*
X149981553Y-97170177D01*
X149981553Y-97170177D02*
X150102982Y-97129701D01*
X150102982Y-97129701D02*
X150183934Y-97048748D01*
X150183934Y-97048748D02*
X150224411Y-96967796D01*
X150224411Y-96967796D02*
X150264887Y-96805891D01*
X150264887Y-96805891D02*
X150264887Y-96684462D01*
X150264887Y-96684462D02*
X150224411Y-96522558D01*
X150224411Y-96522558D02*
X150183934Y-96441605D01*
X150183934Y-96441605D02*
X150102982Y-96360653D01*
X150102982Y-96360653D02*
X149981553Y-96320177D01*
X149981553Y-96320177D02*
X149900601Y-96320177D01*
X149900601Y-96320177D02*
X149779172Y-96360653D01*
X149779172Y-96360653D02*
X149738696Y-96401129D01*
X149576792Y-97251129D02*
X148929172Y-97251129D01*
X148564887Y-96320177D02*
X148483934Y-96320177D01*
X148483934Y-96320177D02*
X148402982Y-96360653D01*
X148402982Y-96360653D02*
X148362506Y-96401129D01*
X148362506Y-96401129D02*
X148322030Y-96482081D01*
X148322030Y-96482081D02*
X148281553Y-96643986D01*
X148281553Y-96643986D02*
X148281553Y-96846367D01*
X148281553Y-96846367D02*
X148322030Y-97008272D01*
X148322030Y-97008272D02*
X148362506Y-97089224D01*
X148362506Y-97089224D02*
X148402982Y-97129701D01*
X148402982Y-97129701D02*
X148483934Y-97170177D01*
X148483934Y-97170177D02*
X148564887Y-97170177D01*
X148564887Y-97170177D02*
X148645839Y-97129701D01*
X148645839Y-97129701D02*
X148686315Y-97089224D01*
X148686315Y-97089224D02*
X148726792Y-97008272D01*
X148726792Y-97008272D02*
X148767268Y-96846367D01*
X148767268Y-96846367D02*
X148767268Y-96643986D01*
X148767268Y-96643986D02*
X148726792Y-96482081D01*
X148726792Y-96482081D02*
X148686315Y-96401129D01*
X148686315Y-96401129D02*
X148645839Y-96360653D01*
X148645839Y-96360653D02*
X148564887Y-96320177D01*
X145974411Y-97170177D02*
X145974411Y-96320177D01*
X145610125Y-96401129D02*
X145569649Y-96360653D01*
X145569649Y-96360653D02*
X145488696Y-96320177D01*
X145488696Y-96320177D02*
X145286315Y-96320177D01*
X145286315Y-96320177D02*
X145205363Y-96360653D01*
X145205363Y-96360653D02*
X145164887Y-96401129D01*
X145164887Y-96401129D02*
X145124410Y-96482081D01*
X145124410Y-96482081D02*
X145124410Y-96563034D01*
X145124410Y-96563034D02*
X145164887Y-96684462D01*
X145164887Y-96684462D02*
X145650601Y-97170177D01*
X145650601Y-97170177D02*
X145124410Y-97170177D01*
X144274410Y-97089224D02*
X144314886Y-97129701D01*
X144314886Y-97129701D02*
X144436315Y-97170177D01*
X144436315Y-97170177D02*
X144517267Y-97170177D01*
X144517267Y-97170177D02*
X144638696Y-97129701D01*
X144638696Y-97129701D02*
X144719648Y-97048748D01*
X144719648Y-97048748D02*
X144760125Y-96967796D01*
X144760125Y-96967796D02*
X144800601Y-96805891D01*
X144800601Y-96805891D02*
X144800601Y-96684462D01*
X144800601Y-96684462D02*
X144760125Y-96522558D01*
X144760125Y-96522558D02*
X144719648Y-96441605D01*
X144719648Y-96441605D02*
X144638696Y-96360653D01*
X144638696Y-96360653D02*
X144517267Y-96320177D01*
X144517267Y-96320177D02*
X144436315Y-96320177D01*
X144436315Y-96320177D02*
X144314886Y-96360653D01*
X144314886Y-96360653D02*
X144274410Y-96401129D01*
X144112506Y-97251129D02*
X143464886Y-97251129D01*
X142817267Y-97170177D02*
X143302982Y-97170177D01*
X143060125Y-97170177D02*
X143060125Y-96320177D01*
X143060125Y-96320177D02*
X143141077Y-96441605D01*
X143141077Y-96441605D02*
X143222029Y-96522558D01*
X143222029Y-96522558D02*
X143302982Y-96563034D01*
X143144696Y-91280653D02*
X143225649Y-91240177D01*
X143225649Y-91240177D02*
X143347077Y-91240177D01*
X143347077Y-91240177D02*
X143468506Y-91280653D01*
X143468506Y-91280653D02*
X143549458Y-91361605D01*
X143549458Y-91361605D02*
X143589935Y-91442558D01*
X143589935Y-91442558D02*
X143630411Y-91604462D01*
X143630411Y-91604462D02*
X143630411Y-91725891D01*
X143630411Y-91725891D02*
X143589935Y-91887796D01*
X143589935Y-91887796D02*
X143549458Y-91968748D01*
X143549458Y-91968748D02*
X143468506Y-92049701D01*
X143468506Y-92049701D02*
X143347077Y-92090177D01*
X143347077Y-92090177D02*
X143266125Y-92090177D01*
X143266125Y-92090177D02*
X143144696Y-92049701D01*
X143144696Y-92049701D02*
X143104220Y-92009224D01*
X143104220Y-92009224D02*
X143104220Y-91725891D01*
X143104220Y-91725891D02*
X143266125Y-91725891D01*
X142739935Y-92090177D02*
X142739935Y-91240177D01*
X142739935Y-91240177D02*
X142254220Y-92090177D01*
X142254220Y-92090177D02*
X142254220Y-91240177D01*
X141849459Y-92090177D02*
X141849459Y-91240177D01*
X141849459Y-91240177D02*
X141647078Y-91240177D01*
X141647078Y-91240177D02*
X141525649Y-91280653D01*
X141525649Y-91280653D02*
X141444697Y-91361605D01*
X141444697Y-91361605D02*
X141404220Y-91442558D01*
X141404220Y-91442558D02*
X141363744Y-91604462D01*
X141363744Y-91604462D02*
X141363744Y-91725891D01*
X141363744Y-91725891D02*
X141404220Y-91887796D01*
X141404220Y-91887796D02*
X141444697Y-91968748D01*
X141444697Y-91968748D02*
X141525649Y-92049701D01*
X141525649Y-92049701D02*
X141647078Y-92090177D01*
X141647078Y-92090177D02*
X141849459Y-92090177D01*
X139866125Y-92090177D02*
X140149459Y-91685415D01*
X140351840Y-92090177D02*
X140351840Y-91240177D01*
X140351840Y-91240177D02*
X140028030Y-91240177D01*
X140028030Y-91240177D02*
X139947078Y-91280653D01*
X139947078Y-91280653D02*
X139906601Y-91321129D01*
X139906601Y-91321129D02*
X139866125Y-91402081D01*
X139866125Y-91402081D02*
X139866125Y-91523510D01*
X139866125Y-91523510D02*
X139906601Y-91604462D01*
X139906601Y-91604462D02*
X139947078Y-91644939D01*
X139947078Y-91644939D02*
X140028030Y-91685415D01*
X140028030Y-91685415D02*
X140351840Y-91685415D01*
X139542316Y-92049701D02*
X139420887Y-92090177D01*
X139420887Y-92090177D02*
X139218506Y-92090177D01*
X139218506Y-92090177D02*
X139137554Y-92049701D01*
X139137554Y-92049701D02*
X139097078Y-92009224D01*
X139097078Y-92009224D02*
X139056601Y-91928272D01*
X139056601Y-91928272D02*
X139056601Y-91847320D01*
X139056601Y-91847320D02*
X139097078Y-91766367D01*
X139097078Y-91766367D02*
X139137554Y-91725891D01*
X139137554Y-91725891D02*
X139218506Y-91685415D01*
X139218506Y-91685415D02*
X139380411Y-91644939D01*
X139380411Y-91644939D02*
X139461363Y-91604462D01*
X139461363Y-91604462D02*
X139501840Y-91563986D01*
X139501840Y-91563986D02*
X139542316Y-91483034D01*
X139542316Y-91483034D02*
X139542316Y-91402081D01*
X139542316Y-91402081D02*
X139501840Y-91321129D01*
X139501840Y-91321129D02*
X139461363Y-91280653D01*
X139461363Y-91280653D02*
X139380411Y-91240177D01*
X139380411Y-91240177D02*
X139178030Y-91240177D01*
X139178030Y-91240177D02*
X139056601Y-91280653D01*
X138813744Y-91240177D02*
X138328030Y-91240177D01*
X138570887Y-92090177D02*
X138570887Y-91240177D01*
X136992316Y-91240177D02*
X137397078Y-91240177D01*
X137397078Y-91240177D02*
X137437554Y-91644939D01*
X137437554Y-91644939D02*
X137397078Y-91604462D01*
X137397078Y-91604462D02*
X137316125Y-91563986D01*
X137316125Y-91563986D02*
X137113744Y-91563986D01*
X137113744Y-91563986D02*
X137032792Y-91604462D01*
X137032792Y-91604462D02*
X136992316Y-91644939D01*
X136992316Y-91644939D02*
X136951839Y-91725891D01*
X136951839Y-91725891D02*
X136951839Y-91928272D01*
X136951839Y-91928272D02*
X136992316Y-92009224D01*
X136992316Y-92009224D02*
X137032792Y-92049701D01*
X137032792Y-92049701D02*
X137113744Y-92090177D01*
X137113744Y-92090177D02*
X137316125Y-92090177D01*
X137316125Y-92090177D02*
X137397078Y-92049701D01*
X137397078Y-92049701D02*
X137437554Y-92009224D01*
X136708982Y-91240177D02*
X136425649Y-92090177D01*
X136425649Y-92090177D02*
X136142315Y-91240177D01*
X134766125Y-92090177D02*
X135251840Y-92090177D01*
X135008983Y-92090177D02*
X135008983Y-91240177D01*
X135008983Y-91240177D02*
X135089935Y-91361605D01*
X135089935Y-91361605D02*
X135170887Y-91442558D01*
X135170887Y-91442558D02*
X135251840Y-91483034D01*
X134442316Y-91321129D02*
X134401840Y-91280653D01*
X134401840Y-91280653D02*
X134320887Y-91240177D01*
X134320887Y-91240177D02*
X134118506Y-91240177D01*
X134118506Y-91240177D02*
X134037554Y-91280653D01*
X134037554Y-91280653D02*
X133997078Y-91321129D01*
X133997078Y-91321129D02*
X133956601Y-91402081D01*
X133956601Y-91402081D02*
X133956601Y-91483034D01*
X133956601Y-91483034D02*
X133997078Y-91604462D01*
X133997078Y-91604462D02*
X134482792Y-92090177D01*
X134482792Y-92090177D02*
X133956601Y-92090177D01*
X133713744Y-91240177D02*
X133430411Y-92090177D01*
X133430411Y-92090177D02*
X133147077Y-91240177D01*
X152647411Y-101320701D02*
X152525982Y-101361177D01*
X152525982Y-101361177D02*
X152323601Y-101361177D01*
X152323601Y-101361177D02*
X152242649Y-101320701D01*
X152242649Y-101320701D02*
X152202173Y-101280224D01*
X152202173Y-101280224D02*
X152161696Y-101199272D01*
X152161696Y-101199272D02*
X152161696Y-101118320D01*
X152161696Y-101118320D02*
X152202173Y-101037367D01*
X152202173Y-101037367D02*
X152242649Y-100996891D01*
X152242649Y-100996891D02*
X152323601Y-100956415D01*
X152323601Y-100956415D02*
X152485506Y-100915939D01*
X152485506Y-100915939D02*
X152566458Y-100875462D01*
X152566458Y-100875462D02*
X152606935Y-100834986D01*
X152606935Y-100834986D02*
X152647411Y-100754034D01*
X152647411Y-100754034D02*
X152647411Y-100673081D01*
X152647411Y-100673081D02*
X152606935Y-100592129D01*
X152606935Y-100592129D02*
X152566458Y-100551653D01*
X152566458Y-100551653D02*
X152485506Y-100511177D01*
X152485506Y-100511177D02*
X152283125Y-100511177D01*
X152283125Y-100511177D02*
X152161696Y-100551653D01*
X151311696Y-101280224D02*
X151352172Y-101320701D01*
X151352172Y-101320701D02*
X151473601Y-101361177D01*
X151473601Y-101361177D02*
X151554553Y-101361177D01*
X151554553Y-101361177D02*
X151675982Y-101320701D01*
X151675982Y-101320701D02*
X151756934Y-101239748D01*
X151756934Y-101239748D02*
X151797411Y-101158796D01*
X151797411Y-101158796D02*
X151837887Y-100996891D01*
X151837887Y-100996891D02*
X151837887Y-100875462D01*
X151837887Y-100875462D02*
X151797411Y-100713558D01*
X151797411Y-100713558D02*
X151756934Y-100632605D01*
X151756934Y-100632605D02*
X151675982Y-100551653D01*
X151675982Y-100551653D02*
X151554553Y-100511177D01*
X151554553Y-100511177D02*
X151473601Y-100511177D01*
X151473601Y-100511177D02*
X151352172Y-100551653D01*
X151352172Y-100551653D02*
X151311696Y-100592129D01*
X150542649Y-101361177D02*
X150947411Y-101361177D01*
X150947411Y-101361177D02*
X150947411Y-100511177D01*
X149652173Y-101320701D02*
X149530744Y-101361177D01*
X149530744Y-101361177D02*
X149328363Y-101361177D01*
X149328363Y-101361177D02*
X149247411Y-101320701D01*
X149247411Y-101320701D02*
X149206935Y-101280224D01*
X149206935Y-101280224D02*
X149166458Y-101199272D01*
X149166458Y-101199272D02*
X149166458Y-101118320D01*
X149166458Y-101118320D02*
X149206935Y-101037367D01*
X149206935Y-101037367D02*
X149247411Y-100996891D01*
X149247411Y-100996891D02*
X149328363Y-100956415D01*
X149328363Y-100956415D02*
X149490268Y-100915939D01*
X149490268Y-100915939D02*
X149571220Y-100875462D01*
X149571220Y-100875462D02*
X149611697Y-100834986D01*
X149611697Y-100834986D02*
X149652173Y-100754034D01*
X149652173Y-100754034D02*
X149652173Y-100673081D01*
X149652173Y-100673081D02*
X149611697Y-100592129D01*
X149611697Y-100592129D02*
X149571220Y-100551653D01*
X149571220Y-100551653D02*
X149490268Y-100511177D01*
X149490268Y-100511177D02*
X149287887Y-100511177D01*
X149287887Y-100511177D02*
X149166458Y-100551653D01*
X148802173Y-101361177D02*
X148802173Y-100511177D01*
X148802173Y-100511177D02*
X148599792Y-100511177D01*
X148599792Y-100511177D02*
X148478363Y-100551653D01*
X148478363Y-100551653D02*
X148397411Y-100632605D01*
X148397411Y-100632605D02*
X148356934Y-100713558D01*
X148356934Y-100713558D02*
X148316458Y-100875462D01*
X148316458Y-100875462D02*
X148316458Y-100996891D01*
X148316458Y-100996891D02*
X148356934Y-101158796D01*
X148356934Y-101158796D02*
X148397411Y-101239748D01*
X148397411Y-101239748D02*
X148478363Y-101320701D01*
X148478363Y-101320701D02*
X148599792Y-101361177D01*
X148599792Y-101361177D02*
X148802173Y-101361177D01*
X147992649Y-101118320D02*
X147587887Y-101118320D01*
X148073601Y-101361177D02*
X147790268Y-100511177D01*
X147790268Y-100511177D02*
X147506934Y-101361177D01*
X146616459Y-101320701D02*
X146495030Y-101361177D01*
X146495030Y-101361177D02*
X146292649Y-101361177D01*
X146292649Y-101361177D02*
X146211697Y-101320701D01*
X146211697Y-101320701D02*
X146171221Y-101280224D01*
X146171221Y-101280224D02*
X146130744Y-101199272D01*
X146130744Y-101199272D02*
X146130744Y-101118320D01*
X146130744Y-101118320D02*
X146171221Y-101037367D01*
X146171221Y-101037367D02*
X146211697Y-100996891D01*
X146211697Y-100996891D02*
X146292649Y-100956415D01*
X146292649Y-100956415D02*
X146454554Y-100915939D01*
X146454554Y-100915939D02*
X146535506Y-100875462D01*
X146535506Y-100875462D02*
X146575983Y-100834986D01*
X146575983Y-100834986D02*
X146616459Y-100754034D01*
X146616459Y-100754034D02*
X146616459Y-100673081D01*
X146616459Y-100673081D02*
X146575983Y-100592129D01*
X146575983Y-100592129D02*
X146535506Y-100551653D01*
X146535506Y-100551653D02*
X146454554Y-100511177D01*
X146454554Y-100511177D02*
X146252173Y-100511177D01*
X146252173Y-100511177D02*
X146130744Y-100551653D01*
X145280744Y-101280224D02*
X145321220Y-101320701D01*
X145321220Y-101320701D02*
X145442649Y-101361177D01*
X145442649Y-101361177D02*
X145523601Y-101361177D01*
X145523601Y-101361177D02*
X145645030Y-101320701D01*
X145645030Y-101320701D02*
X145725982Y-101239748D01*
X145725982Y-101239748D02*
X145766459Y-101158796D01*
X145766459Y-101158796D02*
X145806935Y-100996891D01*
X145806935Y-100996891D02*
X145806935Y-100875462D01*
X145806935Y-100875462D02*
X145766459Y-100713558D01*
X145766459Y-100713558D02*
X145725982Y-100632605D01*
X145725982Y-100632605D02*
X145645030Y-100551653D01*
X145645030Y-100551653D02*
X145523601Y-100511177D01*
X145523601Y-100511177D02*
X145442649Y-100511177D01*
X145442649Y-100511177D02*
X145321220Y-100551653D01*
X145321220Y-100551653D02*
X145280744Y-100592129D01*
X144511697Y-101361177D02*
X144916459Y-101361177D01*
X144916459Y-101361177D02*
X144916459Y-100511177D01*
X143621221Y-101320701D02*
X143499792Y-101361177D01*
X143499792Y-101361177D02*
X143297411Y-101361177D01*
X143297411Y-101361177D02*
X143216459Y-101320701D01*
X143216459Y-101320701D02*
X143175983Y-101280224D01*
X143175983Y-101280224D02*
X143135506Y-101199272D01*
X143135506Y-101199272D02*
X143135506Y-101118320D01*
X143135506Y-101118320D02*
X143175983Y-101037367D01*
X143175983Y-101037367D02*
X143216459Y-100996891D01*
X143216459Y-100996891D02*
X143297411Y-100956415D01*
X143297411Y-100956415D02*
X143459316Y-100915939D01*
X143459316Y-100915939D02*
X143540268Y-100875462D01*
X143540268Y-100875462D02*
X143580745Y-100834986D01*
X143580745Y-100834986D02*
X143621221Y-100754034D01*
X143621221Y-100754034D02*
X143621221Y-100673081D01*
X143621221Y-100673081D02*
X143580745Y-100592129D01*
X143580745Y-100592129D02*
X143540268Y-100551653D01*
X143540268Y-100551653D02*
X143459316Y-100511177D01*
X143459316Y-100511177D02*
X143256935Y-100511177D01*
X143256935Y-100511177D02*
X143135506Y-100551653D01*
X142771221Y-101361177D02*
X142771221Y-100511177D01*
X142771221Y-100511177D02*
X142568840Y-100511177D01*
X142568840Y-100511177D02*
X142447411Y-100551653D01*
X142447411Y-100551653D02*
X142366459Y-100632605D01*
X142366459Y-100632605D02*
X142325982Y-100713558D01*
X142325982Y-100713558D02*
X142285506Y-100875462D01*
X142285506Y-100875462D02*
X142285506Y-100996891D01*
X142285506Y-100996891D02*
X142325982Y-101158796D01*
X142325982Y-101158796D02*
X142366459Y-101239748D01*
X142366459Y-101239748D02*
X142447411Y-101320701D01*
X142447411Y-101320701D02*
X142568840Y-101361177D01*
X142568840Y-101361177D02*
X142771221Y-101361177D01*
X141961697Y-101118320D02*
X141556935Y-101118320D01*
X142042649Y-101361177D02*
X141759316Y-100511177D01*
X141759316Y-100511177D02*
X141475982Y-101361177D01*
X117255696Y-130928177D02*
X117741411Y-130928177D01*
X117498554Y-130928177D02*
X117498554Y-130078177D01*
X117498554Y-130078177D02*
X117579506Y-130199605D01*
X117579506Y-130199605D02*
X117660458Y-130280558D01*
X117660458Y-130280558D02*
X117741411Y-130321034D01*
X116931887Y-130159129D02*
X116891411Y-130118653D01*
X116891411Y-130118653D02*
X116810458Y-130078177D01*
X116810458Y-130078177D02*
X116608077Y-130078177D01*
X116608077Y-130078177D02*
X116527125Y-130118653D01*
X116527125Y-130118653D02*
X116486649Y-130159129D01*
X116486649Y-130159129D02*
X116446172Y-130240081D01*
X116446172Y-130240081D02*
X116446172Y-130321034D01*
X116446172Y-130321034D02*
X116486649Y-130442462D01*
X116486649Y-130442462D02*
X116972363Y-130928177D01*
X116972363Y-130928177D02*
X116446172Y-130928177D01*
X116203315Y-130078177D02*
X115919982Y-130928177D01*
X115919982Y-130928177D02*
X115636648Y-130078177D01*
D11*
%TO.C,J2*%
X142043000Y-95952000D02*
X142043000Y-98612000D01*
X142043000Y-95952000D02*
X149723000Y-95952000D01*
X142043000Y-98612000D02*
X149723000Y-98612000D01*
X149723000Y-95952000D02*
X149723000Y-98612000D01*
X152323000Y-97282000D02*
X152323000Y-98612000D01*
X152323000Y-98612000D02*
X150993000Y-98612000D01*
%TO.C,J1*%
X133534000Y-88205000D02*
X133534000Y-90865000D01*
X133534000Y-88205000D02*
X141214000Y-88205000D01*
X133534000Y-90865000D02*
X141214000Y-90865000D01*
X141214000Y-88205000D02*
X141214000Y-90865000D01*
X143814000Y-89535000D02*
X143814000Y-90865000D01*
X143814000Y-90865000D02*
X142484000Y-90865000D01*
%TD*%
%LPC*%
D12*
%TO.C,U3*%
X113919000Y-104392000D03*
D13*
X116459000Y-104392000D03*
X118999000Y-104392000D03*
X121539000Y-104392000D03*
X124079000Y-104392000D03*
X126619000Y-104392000D03*
X129159000Y-104392000D03*
X131699000Y-104392000D03*
X134239000Y-104392000D03*
X136779000Y-104392000D03*
X139319000Y-104392000D03*
X141859000Y-104392000D03*
X144399000Y-104392000D03*
X146939000Y-104392000D03*
X149479000Y-104392000D03*
X152019000Y-104392000D03*
X154559000Y-104392000D03*
X157099000Y-104392000D03*
X159639000Y-104392000D03*
X162179000Y-104392000D03*
X164719000Y-104392000D03*
X167259000Y-104392000D03*
%TD*%
D14*
%TO.C,P1*%
X110967000Y-129815000D03*
X168367000Y-129815000D03*
D15*
X117667000Y-125095000D03*
X121667000Y-125095000D03*
X125667000Y-125095000D03*
X129667000Y-125095000D03*
X133667000Y-125095000D03*
X137667000Y-125095000D03*
X141667000Y-125095000D03*
X145667000Y-125095000D03*
X149667000Y-125095000D03*
X153667000Y-125095000D03*
X157667000Y-125095000D03*
X161667000Y-125095000D03*
X119667000Y-129095000D03*
X123667000Y-129095000D03*
X127667000Y-129095000D03*
X131667000Y-129095000D03*
X135667000Y-129095000D03*
X139667000Y-129095000D03*
X143667000Y-129095000D03*
X147667000Y-129095000D03*
X151667000Y-129095000D03*
X155667000Y-129095000D03*
X159667000Y-129095000D03*
X117667000Y-133095000D03*
X121667000Y-133095000D03*
X125667000Y-133095000D03*
X129667000Y-133095000D03*
X133667000Y-133095000D03*
X137667000Y-133095000D03*
X141667000Y-133095000D03*
X145667000Y-133095000D03*
X149667000Y-133095000D03*
X153667000Y-133095000D03*
X157667000Y-133095000D03*
X161667000Y-133095000D03*
%TD*%
D12*
%TO.C,U2*%
X113919000Y-78994000D03*
D13*
X116459000Y-78994000D03*
X118999000Y-78994000D03*
X121539000Y-78994000D03*
X124079000Y-78994000D03*
X126619000Y-78994000D03*
X129159000Y-78994000D03*
X131699000Y-78994000D03*
X134239000Y-78994000D03*
X136779000Y-78994000D03*
X139319000Y-78994000D03*
X141859000Y-78994000D03*
X144399000Y-78994000D03*
X146939000Y-78994000D03*
X149479000Y-78994000D03*
X152019000Y-78994000D03*
X154559000Y-78994000D03*
X157099000Y-78994000D03*
X159639000Y-78994000D03*
X162179000Y-78994000D03*
X164719000Y-78994000D03*
X167259000Y-78994000D03*
%TD*%
D12*
%TO.C,J2*%
X150993000Y-97282000D03*
D13*
X148453000Y-97282000D03*
X145913000Y-97282000D03*
X143373000Y-97282000D03*
%TD*%
D12*
%TO.C,J1*%
X142484000Y-89535000D03*
D13*
X139944000Y-89535000D03*
X137404000Y-89535000D03*
X134864000Y-89535000D03*
%TD*%
%LPD*%
M02*
