%TF.GenerationSoftware,KiCad,Pcbnew,8.0.8*%
%TF.CreationDate,2025-02-23T18:35:03+01:00*%
%TF.ProjectId,espio,65737069-6f2e-46b6-9963-61645f706362,rev?*%
%TF.SameCoordinates,Original*%
%TF.FileFunction,Copper,L2,Bot*%
%TF.FilePolarity,Positive*%
%FSLAX46Y46*%
G04 Gerber Fmt 4.6, Leading zero omitted, Abs format (unit mm)*
G04 Created by KiCad (PCBNEW 8.0.8) date 2025-02-23 18:35:03*
%MOMM*%
%LPD*%
G01*
G04 APERTURE LIST*
%TA.AperFunction,ComponentPad*%
%ADD10R,1.700000X1.700000*%
%TD*%
%TA.AperFunction,ComponentPad*%
%ADD11O,1.700000X1.700000*%
%TD*%
%TA.AperFunction,ComponentPad*%
%ADD12C,2.000000*%
%TD*%
%TA.AperFunction,ComponentPad*%
%ADD13C,2.500000*%
%TD*%
%TA.AperFunction,ViaPad*%
%ADD14C,0.800000*%
%TD*%
%TA.AperFunction,ViaPad*%
%ADD15C,3.200000*%
%TD*%
%TA.AperFunction,Conductor*%
%ADD16C,0.250000*%
%TD*%
%TA.AperFunction,Conductor*%
%ADD17C,0.350000*%
%TD*%
%TA.AperFunction,Conductor*%
%ADD18C,1.000000*%
%TD*%
%TA.AperFunction,Conductor*%
%ADD19C,1.500000*%
%TD*%
G04 APERTURE END LIST*
D10*
%TO.P,U3,1,GND*%
%TO.N,GND*%
X113919000Y-104392000D03*
D11*
%TO.P,U3,2,GND*%
X116459000Y-104392000D03*
%TO.P,U3,3,19*%
%TO.N,/SwitchingNode11/SN_IN*%
X118999000Y-104392000D03*
%TO.P,U3,4,20*%
%TO.N,/SwitchingNode10/SN_IN*%
X121539000Y-104392000D03*
%TO.P,U3,5,21*%
%TO.N,/SwitchingNode9/SN_IN*%
X124079000Y-104392000D03*
%TO.P,U3,6,47*%
%TO.N,CAN_RX*%
X126619000Y-104392000D03*
%TO.P,U3,7,48*%
%TO.N,CAN_TX*%
X129159000Y-104392000D03*
%TO.P,U3,8,45*%
%TO.N,/SwitchingNode8/SN_IN*%
X131699000Y-104392000D03*
%TO.P,U3,9,0*%
%TO.N,/SwitchingNode7/SN_IN*%
X134239000Y-104392000D03*
%TO.P,U3,10,35*%
%TO.N,/SwitchingNode6/SN_IN*%
X136779000Y-104392000D03*
%TO.P,U3,11,36*%
%TO.N,/SwitchingNode5/SN_IN*%
X139319000Y-104392000D03*
%TO.P,U3,12,37*%
%TO.N,I2C1_SDA*%
X141859000Y-104392000D03*
%TO.P,U3,13,38*%
%TO.N,I2C1_SCL*%
X144399000Y-104392000D03*
%TO.P,U3,14,39*%
%TO.N,/SwitchingNode4/SN_IN*%
X146939000Y-104392000D03*
%TO.P,U3,15,40*%
%TO.N,/SwitchingNode3/SN_IN*%
X149479000Y-104392000D03*
%TO.P,U3,16,41*%
%TO.N,I2C0_SDA*%
X152019000Y-104392000D03*
%TO.P,U3,17,42*%
%TO.N,I2C0_SCL*%
X154559000Y-104392000D03*
%TO.P,U3,18,2*%
%TO.N,/SwitchingNode2/SN_IN*%
X157099000Y-104392000D03*
%TO.P,U3,19,1*%
%TO.N,/SwitchingNode1/SN_IN*%
X159639000Y-104392000D03*
%TO.P,U3,20,RX*%
%TO.N,unconnected-(U3-RX-Pad20)*%
X162179000Y-104392000D03*
%TO.P,U3,21,TX*%
%TO.N,unconnected-(U3-TX-Pad21)*%
X164719000Y-104392000D03*
%TO.P,U3,22,GND*%
%TO.N,GND*%
X167259000Y-104392000D03*
%TD*%
D12*
%TO.P,P1,*%
%TO.N,*%
X110967000Y-129815000D03*
X168367000Y-129815000D03*
D13*
%TO.P,P1,1,1*%
%TO.N,/SwitchingNode12/SN_OUT*%
X117667000Y-125095000D03*
%TO.P,P1,2,2*%
%TO.N,/SwitchingNode11/SN_OUT*%
X121667000Y-125095000D03*
%TO.P,P1,3,3*%
%TO.N,/SwitchingNode10/SN_OUT*%
X125667000Y-125095000D03*
%TO.P,P1,4,4*%
%TO.N,/SwitchingNode9/SN_OUT*%
X129667000Y-125095000D03*
%TO.P,P1,5,5*%
%TO.N,/SwitchingNode8/SN_OUT*%
X133667000Y-125095000D03*
%TO.P,P1,6,6*%
%TO.N,/SwitchingNode7/SN_OUT*%
X137667000Y-125095000D03*
%TO.P,P1,7,7*%
%TO.N,/SwitchingNode6/SN_OUT*%
X141667000Y-125095000D03*
%TO.P,P1,8,8*%
%TO.N,/SwitchingNode5/SN_OUT*%
X145667000Y-125095000D03*
%TO.P,P1,9,9*%
%TO.N,/SwitchingNode4/SN_OUT*%
X149667000Y-125095000D03*
%TO.P,P1,10,10*%
%TO.N,/SwitchingNode3/SN_OUT*%
X153667000Y-125095000D03*
%TO.P,P1,11,11*%
%TO.N,/SwitchingNode2/SN_OUT*%
X157667000Y-125095000D03*
%TO.P,P1,12,12*%
%TO.N,/SwitchingNode1/SN_OUT*%
X161667000Y-125095000D03*
%TO.P,P1,13,13*%
%TO.N,+12V*%
X119667000Y-129095000D03*
%TO.P,P1,14,14*%
%TO.N,IN_8*%
X123667000Y-129095000D03*
%TO.P,P1,15,15*%
%TO.N,IN_9*%
X127667000Y-129095000D03*
%TO.P,P1,16,16*%
%TO.N,IN_11*%
X131667000Y-129095000D03*
%TO.P,P1,17,17*%
%TO.N,IN_12*%
X135667000Y-129095000D03*
%TO.P,P1,18,18*%
%TO.N,IN_5*%
X139667000Y-129095000D03*
%TO.P,P1,19,19*%
%TO.N,IN_3*%
X143667000Y-129095000D03*
%TO.P,P1,20,20*%
%TO.N,IN_2*%
X147667000Y-129095000D03*
%TO.P,P1,21,21*%
%TO.N,CAN_H*%
X151667000Y-129095000D03*
%TO.P,P1,22,22*%
%TO.N,CAN_L*%
X155667000Y-129095000D03*
%TO.P,P1,23,23*%
%TO.N,GND*%
X159667000Y-129095000D03*
%TO.P,P1,24,24*%
%TO.N,+12V*%
X117667000Y-133095000D03*
%TO.P,P1,25,25*%
X121667000Y-133095000D03*
%TO.P,P1,26,26*%
%TO.N,IN_10*%
X125667000Y-133095000D03*
%TO.P,P1,27,27*%
%TO.N,IN_13*%
X129667000Y-133095000D03*
%TO.P,P1,28,28*%
%TO.N,IN_14*%
X133667000Y-133095000D03*
%TO.P,P1,29,29*%
%TO.N,IN_7*%
X137667000Y-133095000D03*
%TO.P,P1,30,30*%
%TO.N,IN_6*%
X141667000Y-133095000D03*
%TO.P,P1,31,31*%
%TO.N,IN_4*%
X145667000Y-133095000D03*
%TO.P,P1,32,32*%
%TO.N,IN_0*%
X149667000Y-133095000D03*
%TO.P,P1,33,33*%
%TO.N,IN_1*%
X153667000Y-133095000D03*
%TO.P,P1,34,34*%
%TO.N,GND*%
X157667000Y-133095000D03*
%TO.P,P1,35,35*%
X161667000Y-133095000D03*
%TD*%
D10*
%TO.P,U2,1,GND*%
%TO.N,GND*%
X113919000Y-78994000D03*
D11*
%TO.P,U2,2,5V_in*%
%TO.N,+5V*%
X116459000Y-78994000D03*
%TO.P,U2,3,14*%
%TO.N,SN_IN_12*%
X118999000Y-78994000D03*
%TO.P,U2,4,13*%
%TO.N,Net-(U2-13)*%
X121539000Y-78994000D03*
%TO.P,U2,5,12*%
%TO.N,Net-(U2-12)*%
X124079000Y-78994000D03*
%TO.P,U2,6,11*%
%TO.N,Net-(U2-11)*%
X126619000Y-78994000D03*
%TO.P,U2,7,10*%
%TO.N,Net-(U2-10)*%
X129159000Y-78994000D03*
%TO.P,U2,8,9*%
%TO.N,Net-(U2-9)*%
X131699000Y-78994000D03*
%TO.P,U2,9,46*%
%TO.N,Net-(U2-46)*%
X134239000Y-78994000D03*
%TO.P,U2,10,3*%
%TO.N,unconnected-(U2-3-Pad10)*%
X136779000Y-78994000D03*
%TO.P,U2,11,8*%
%TO.N,Net-(R15-Pad2)*%
X139319000Y-78994000D03*
%TO.P,U2,12,18*%
%TO.N,Net-(U2-18)*%
X141859000Y-78994000D03*
%TO.P,U2,13,17*%
%TO.N,Net-(U2-17)*%
X144399000Y-78994000D03*
%TO.P,U2,14,16*%
%TO.N,Net-(U2-16)*%
X146939000Y-78994000D03*
%TO.P,U2,15,15*%
%TO.N,Net-(R41-Pad2)*%
X149479000Y-78994000D03*
%TO.P,U2,16,8*%
%TO.N,Net-(R39-Pad2)*%
X152019000Y-78994000D03*
%TO.P,U2,17,6*%
%TO.N,Net-(U2-6)*%
X154559000Y-78994000D03*
%TO.P,U2,18,5*%
%TO.N,Net-(U2-5)*%
X157099000Y-78994000D03*
%TO.P,U2,19,4*%
%TO.N,Net-(U2-4)*%
X159639000Y-78994000D03*
%TO.P,U2,20,RST*%
%TO.N,NC_RST*%
X162179000Y-78994000D03*
%TO.P,U2,21,3V3*%
%TO.N,+3V3*%
X164719000Y-78994000D03*
%TO.P,U2,22,3V3*%
X167259000Y-78994000D03*
%TD*%
D10*
%TO.P,J2,1,Pin_1*%
%TO.N,I2C0_SCL*%
X150993000Y-97282000D03*
D11*
%TO.P,J2,2,Pin_2*%
%TO.N,I2C0_SDA*%
X148453000Y-97282000D03*
%TO.P,J2,3,Pin_3*%
%TO.N,I2C1_SCL*%
X145913000Y-97282000D03*
%TO.P,J2,4,Pin_4*%
%TO.N,I2C1_SDA*%
X143373000Y-97282000D03*
%TD*%
D10*
%TO.P,J1,1,Pin_1*%
%TO.N,GND*%
X142484000Y-89535000D03*
D11*
%TO.P,J1,2,Pin_2*%
%TO.N,NC_RST*%
X139944000Y-89535000D03*
%TO.P,J1,3,Pin_3*%
%TO.N,+5V*%
X137404000Y-89535000D03*
%TO.P,J1,4,Pin_4*%
%TO.N,+12V*%
X134864000Y-89535000D03*
%TD*%
D14*
%TO.N,+3V3*%
X154002000Y-98740000D03*
X157858000Y-93472000D03*
X118491000Y-88066000D03*
X112903000Y-87757000D03*
%TO.N,GND*%
X122502000Y-85040000D03*
X165002000Y-133540000D03*
X123571000Y-108746500D03*
X160274000Y-108746500D03*
X120502000Y-85040000D03*
X164416653Y-128454653D03*
X119634000Y-108746500D03*
X165666653Y-127204653D03*
D15*
X104000000Y-72000000D03*
D14*
X127508000Y-108746500D03*
X139954000Y-108619500D03*
X145161000Y-100965000D03*
X131826000Y-108619500D03*
X166002000Y-132540000D03*
D15*
X175000000Y-72000000D03*
D14*
X148082000Y-108746500D03*
X167002000Y-131540000D03*
X135890000Y-108619500D03*
X156210000Y-108746500D03*
D15*
X104000000Y-125000000D03*
X175000000Y-125000000D03*
D14*
X144145000Y-108746500D03*
X121502000Y-85040000D03*
X163416653Y-129454653D03*
X152273000Y-108746500D03*
%TO.N,CAN_L*%
X165097000Y-92964000D03*
%TO.N,+12V*%
X123825000Y-116904000D03*
X131953000Y-116904000D03*
X136017000Y-116904000D03*
X140081000Y-116904000D03*
X144145000Y-116904000D03*
X119761000Y-116904000D03*
X156337000Y-116904000D03*
X164465000Y-116904000D03*
X148209000Y-116904000D03*
X127889000Y-116904000D03*
X152273000Y-116904000D03*
X160401000Y-116904000D03*
%TO.N,IN_2*%
X154940000Y-73152000D03*
%TO.N,IN_3*%
X152527000Y-73152000D03*
%TO.N,IN_7*%
X141605000Y-73279000D03*
%TO.N,IN_12*%
X131445000Y-72988000D03*
%TO.N,IN_13*%
X134112000Y-72771000D03*
%TO.N,IN_14*%
X138938000Y-73406000D03*
%TO.N,CAN_RX*%
X146002000Y-93740000D03*
%TO.N,SN_IN_12*%
X127889000Y-87630000D03*
X116002000Y-106540000D03*
%TD*%
D16*
%TO.N,+3V3*%
X154002000Y-98740000D02*
X157858000Y-94884000D01*
X157858000Y-94884000D02*
X157858000Y-93472000D01*
D17*
X164719000Y-78994000D02*
X164719000Y-81223000D01*
X164719000Y-81223000D02*
X159201000Y-86741000D01*
X159201000Y-86741000D02*
X158242000Y-86741000D01*
D16*
%TO.N,CAN_RX*%
X146002000Y-93740000D02*
X135495000Y-93740000D01*
X135495000Y-93740000D02*
X126619000Y-102616000D01*
X126619000Y-102616000D02*
X126619000Y-104392000D01*
D17*
%TO.N,+3V3*%
X149352000Y-86741000D02*
X119816000Y-86741000D01*
X118491000Y-88066000D02*
X113212000Y-88066000D01*
D16*
X157858000Y-93472000D02*
X159128000Y-92202000D01*
D17*
X167259000Y-78994000D02*
X164719000Y-78994000D01*
D16*
X159128000Y-92202000D02*
X159128000Y-87627000D01*
D17*
X113212000Y-88066000D02*
X112903000Y-87757000D01*
X158242000Y-86741000D02*
X149352000Y-86741000D01*
D16*
X159128000Y-87627000D02*
X158242000Y-86741000D01*
D17*
X119816000Y-86741000D02*
X118491000Y-88066000D01*
D16*
%TO.N,CAN_L*%
X165989000Y-124587000D02*
X165989000Y-93856000D01*
X155667000Y-129095000D02*
X157635000Y-127127000D01*
X165989000Y-93856000D02*
X165097000Y-92964000D01*
X157635000Y-127127000D02*
X163449000Y-127127000D01*
X163449000Y-127127000D02*
X165989000Y-124587000D01*
D18*
%TO.N,+12V*%
X164465000Y-116904000D02*
X160401000Y-116904000D01*
X152273000Y-116904000D02*
X148209000Y-116904000D01*
D19*
X121667000Y-133095000D02*
X121538000Y-133095000D01*
D18*
X136017000Y-116904000D02*
X131953000Y-116904000D01*
X123825000Y-116904000D02*
X119761000Y-116904000D01*
X127889000Y-116904000D02*
X123825000Y-116904000D01*
X144145000Y-116904000D02*
X140081000Y-116904000D01*
X160401000Y-116904000D02*
X156337000Y-116904000D01*
X131953000Y-116904000D02*
X127889000Y-116904000D01*
X156337000Y-116904000D02*
X152273000Y-116904000D01*
X140081000Y-116904000D02*
X136017000Y-116904000D01*
X148209000Y-116904000D02*
X144145000Y-116904000D01*
D19*
X117667000Y-133095000D02*
X117796000Y-133095000D01*
D16*
%TO.N,IN_2*%
X169095000Y-125566401D02*
X163759167Y-130902234D01*
X149474234Y-130902234D02*
X147667000Y-129095000D01*
X169095000Y-77528000D02*
X169095000Y-125566401D01*
X155448000Y-72644000D02*
X164211000Y-72644000D01*
X164211000Y-72644000D02*
X169095000Y-77528000D01*
X154940000Y-73152000D02*
X155448000Y-72644000D01*
X163759167Y-130902234D02*
X149474234Y-130902234D01*
%TO.N,IN_3*%
X152527000Y-73152000D02*
X153485000Y-72194000D01*
X169545000Y-125872198D02*
X164064964Y-131352234D01*
X169545000Y-77341604D02*
X169545000Y-125872198D01*
X145924234Y-131352234D02*
X143667000Y-129095000D01*
X153485000Y-72194000D02*
X164397396Y-72194000D01*
X164064964Y-131352234D02*
X145924234Y-131352234D01*
X164397396Y-72194000D02*
X169545000Y-77341604D01*
%TO.N,IN_7*%
X113281208Y-137033000D02*
X133731000Y-137033000D01*
X107442000Y-80007208D02*
X107442000Y-131193792D01*
X107442000Y-131193792D02*
X113281208Y-137033000D01*
X133731000Y-137033000D02*
X137667000Y-133097000D01*
X141605000Y-73279000D02*
X139689000Y-71363000D01*
X116086208Y-71363000D02*
X107442000Y-80007208D01*
X139689000Y-71363000D02*
X116086208Y-71363000D01*
X137667000Y-133097000D02*
X137667000Y-133095000D01*
%TO.N,IN_12*%
X131445000Y-72988000D02*
X131170000Y-72713000D01*
X113840396Y-135683000D02*
X126442604Y-135683000D01*
X126442604Y-135683000D02*
X127508000Y-134617604D01*
X108850000Y-130692604D02*
X113840396Y-135683000D01*
X135667000Y-129128000D02*
X135667000Y-129095000D01*
X127508000Y-134617604D02*
X127508000Y-132461000D01*
X133858000Y-130937000D02*
X135667000Y-129128000D01*
X108850000Y-80508396D02*
X108850000Y-130692604D01*
X131170000Y-72713000D02*
X116645396Y-72713000D01*
X129032000Y-130937000D02*
X133858000Y-130937000D01*
X127508000Y-132461000D02*
X129032000Y-130937000D01*
X116645396Y-72713000D02*
X108850000Y-80508396D01*
%TO.N,IN_13*%
X133604000Y-72263000D02*
X134112000Y-72771000D01*
X108400000Y-130879000D02*
X108400000Y-80322000D01*
X126629000Y-136133000D02*
X113654000Y-136133000D01*
X113654000Y-136133000D02*
X108400000Y-130879000D01*
X108400000Y-80322000D02*
X116459000Y-72263000D01*
X116459000Y-72263000D02*
X133604000Y-72263000D01*
X129667000Y-133095000D02*
X126629000Y-136133000D01*
%TO.N,IN_14*%
X130244000Y-136583000D02*
X133667000Y-133160000D01*
X133667000Y-133160000D02*
X133667000Y-133095000D01*
X107950000Y-80135604D02*
X107950000Y-131065396D01*
X137345000Y-71813000D02*
X116272604Y-71813000D01*
X116272604Y-71813000D02*
X107950000Y-80135604D01*
X138938000Y-73406000D02*
X137345000Y-71813000D01*
X107950000Y-131065396D02*
X113467604Y-136583000D01*
X113467604Y-136583000D02*
X130244000Y-136583000D01*
%TO.N,SN_IN_12*%
X117634000Y-105408000D02*
X117634000Y-102896500D01*
X116002000Y-106540000D02*
X116502000Y-106540000D01*
X117634000Y-102896500D02*
X127889000Y-92641500D01*
X127889000Y-92641500D02*
X127889000Y-87630000D01*
X116502000Y-106540000D02*
X117634000Y-105408000D01*
%TD*%
%TA.AperFunction,Conductor*%
%TO.N,GND*%
G36*
X166085822Y-79689185D02*
G01*
X166120357Y-79722375D01*
X166220505Y-79865401D01*
X166387599Y-80032495D01*
X166484384Y-80100265D01*
X166581165Y-80168032D01*
X166581167Y-80168033D01*
X166581170Y-80168035D01*
X166795337Y-80267903D01*
X167023592Y-80329063D01*
X167211918Y-80345539D01*
X167258999Y-80349659D01*
X167259000Y-80349659D01*
X167259001Y-80349659D01*
X167298234Y-80346226D01*
X167494408Y-80329063D01*
X167722663Y-80267903D01*
X167936830Y-80168035D01*
X168130401Y-80032495D01*
X168257819Y-79905077D01*
X168319142Y-79871592D01*
X168388834Y-79876576D01*
X168444767Y-79918448D01*
X168469184Y-79983912D01*
X168469500Y-79992758D01*
X168469500Y-125255948D01*
X168449815Y-125322987D01*
X168433181Y-125343629D01*
X163536396Y-130240415D01*
X163475073Y-130273900D01*
X163448715Y-130276734D01*
X157220504Y-130276734D01*
X157153465Y-130257049D01*
X157107710Y-130204245D01*
X157097766Y-130135087D01*
X157115918Y-130088367D01*
X157115066Y-130087875D01*
X157117386Y-130083857D01*
X157248568Y-129856643D01*
X157344420Y-129612416D01*
X157402802Y-129356630D01*
X157402803Y-129356620D01*
X157422408Y-129095004D01*
X157422408Y-129094995D01*
X157402803Y-128833379D01*
X157402802Y-128833374D01*
X157402802Y-128833370D01*
X157344420Y-128577584D01*
X157296453Y-128455369D01*
X157290285Y-128385774D01*
X157322722Y-128323890D01*
X157324133Y-128322455D01*
X157857771Y-127788819D01*
X157919094Y-127755334D01*
X157945452Y-127752500D01*
X163510607Y-127752500D01*
X163571029Y-127740481D01*
X163631452Y-127728463D01*
X163631455Y-127728461D01*
X163631458Y-127728461D01*
X163664787Y-127714654D01*
X163664786Y-127714654D01*
X163664792Y-127714652D01*
X163745286Y-127681312D01*
X163796509Y-127647084D01*
X163847733Y-127612858D01*
X163934858Y-127525733D01*
X163934858Y-127525731D01*
X163945066Y-127515524D01*
X163945067Y-127515521D01*
X166474857Y-124985734D01*
X166526180Y-124908925D01*
X166543311Y-124883286D01*
X166590463Y-124769452D01*
X166614500Y-124648606D01*
X166614500Y-93794394D01*
X166590463Y-93673548D01*
X166543311Y-93559714D01*
X166543310Y-93559713D01*
X166543307Y-93559707D01*
X166474859Y-93457268D01*
X166435218Y-93417627D01*
X166387733Y-93370142D01*
X166387732Y-93370141D01*
X166035960Y-93018369D01*
X166002475Y-92957046D01*
X166000323Y-92943668D01*
X165982674Y-92775744D01*
X165925809Y-92600733D01*
X165924181Y-92595722D01*
X165924180Y-92595721D01*
X165924179Y-92595716D01*
X165829533Y-92431784D01*
X165702871Y-92291112D01*
X165665018Y-92263610D01*
X165549734Y-92179851D01*
X165549729Y-92179848D01*
X165376807Y-92102857D01*
X165376802Y-92102855D01*
X165231001Y-92071865D01*
X165191646Y-92063500D01*
X165002354Y-92063500D01*
X164969897Y-92070398D01*
X164817197Y-92102855D01*
X164817192Y-92102857D01*
X164644270Y-92179848D01*
X164644265Y-92179851D01*
X164491129Y-92291111D01*
X164364466Y-92431785D01*
X164269821Y-92595715D01*
X164269818Y-92595722D01*
X164211327Y-92775740D01*
X164211326Y-92775744D01*
X164191540Y-92964000D01*
X164211326Y-93152256D01*
X164211327Y-93152259D01*
X164269818Y-93332277D01*
X164269821Y-93332284D01*
X164364467Y-93496216D01*
X164414465Y-93551744D01*
X164491129Y-93636888D01*
X164644265Y-93748148D01*
X164644270Y-93748151D01*
X164817192Y-93825142D01*
X164817197Y-93825144D01*
X165002354Y-93864500D01*
X165061547Y-93864500D01*
X165128586Y-93884185D01*
X165149228Y-93900819D01*
X165327181Y-94078771D01*
X165360666Y-94140094D01*
X165363500Y-94166452D01*
X165363500Y-103007781D01*
X165343815Y-103074820D01*
X165291011Y-103120575D01*
X165221853Y-103130519D01*
X165187104Y-103120167D01*
X165182671Y-103118100D01*
X165182655Y-103118094D01*
X164954413Y-103056938D01*
X164954403Y-103056936D01*
X164719001Y-103036341D01*
X164718999Y-103036341D01*
X164483596Y-103056936D01*
X164483586Y-103056938D01*
X164255344Y-103118094D01*
X164255335Y-103118098D01*
X164041171Y-103217964D01*
X164041169Y-103217965D01*
X163847597Y-103353505D01*
X163680505Y-103520597D01*
X163550575Y-103706158D01*
X163495998Y-103749783D01*
X163426500Y-103756977D01*
X163364145Y-103725454D01*
X163347425Y-103706158D01*
X163217494Y-103520597D01*
X163050402Y-103353506D01*
X163050395Y-103353501D01*
X162856834Y-103217967D01*
X162856830Y-103217965D01*
X162804500Y-103193563D01*
X162642663Y-103118097D01*
X162642659Y-103118096D01*
X162642655Y-103118094D01*
X162414413Y-103056938D01*
X162414403Y-103056936D01*
X162179001Y-103036341D01*
X162178999Y-103036341D01*
X161943596Y-103056936D01*
X161943586Y-103056938D01*
X161715344Y-103118094D01*
X161715335Y-103118098D01*
X161501171Y-103217964D01*
X161501169Y-103217965D01*
X161307597Y-103353505D01*
X161140505Y-103520597D01*
X161010575Y-103706158D01*
X160955998Y-103749783D01*
X160886500Y-103756977D01*
X160824145Y-103725454D01*
X160807425Y-103706158D01*
X160677494Y-103520597D01*
X160510402Y-103353506D01*
X160510395Y-103353501D01*
X160316834Y-103217967D01*
X160316830Y-103217965D01*
X160264500Y-103193563D01*
X160102663Y-103118097D01*
X160102659Y-103118096D01*
X160102655Y-103118094D01*
X159874413Y-103056938D01*
X159874403Y-103056936D01*
X159639001Y-103036341D01*
X159638999Y-103036341D01*
X159403596Y-103056936D01*
X159403586Y-103056938D01*
X159175344Y-103118094D01*
X159175335Y-103118098D01*
X158961171Y-103217964D01*
X158961169Y-103217965D01*
X158767597Y-103353505D01*
X158600505Y-103520597D01*
X158470575Y-103706158D01*
X158415998Y-103749783D01*
X158346500Y-103756977D01*
X158284145Y-103725454D01*
X158267425Y-103706158D01*
X158137494Y-103520597D01*
X157970402Y-103353506D01*
X157970395Y-103353501D01*
X157776834Y-103217967D01*
X157776830Y-103217965D01*
X157724500Y-103193563D01*
X157562663Y-103118097D01*
X157562659Y-103118096D01*
X157562655Y-103118094D01*
X157334413Y-103056938D01*
X157334403Y-103056936D01*
X157099001Y-103036341D01*
X157098999Y-103036341D01*
X156863596Y-103056936D01*
X156863586Y-103056938D01*
X156635344Y-103118094D01*
X156635335Y-103118098D01*
X156421171Y-103217964D01*
X156421169Y-103217965D01*
X156227597Y-103353505D01*
X156060505Y-103520597D01*
X155930575Y-103706158D01*
X155875998Y-103749783D01*
X155806500Y-103756977D01*
X155744145Y-103725454D01*
X155727425Y-103706158D01*
X155597494Y-103520597D01*
X155430402Y-103353506D01*
X155430395Y-103353501D01*
X155236834Y-103217967D01*
X155236830Y-103217965D01*
X155184500Y-103193563D01*
X155022663Y-103118097D01*
X155022659Y-103118096D01*
X155022655Y-103118094D01*
X154794413Y-103056938D01*
X154794403Y-103056936D01*
X154559001Y-103036341D01*
X154558999Y-103036341D01*
X154323596Y-103056936D01*
X154323586Y-103056938D01*
X154095344Y-103118094D01*
X154095335Y-103118098D01*
X153881171Y-103217964D01*
X153881169Y-103217965D01*
X153687597Y-103353505D01*
X153520505Y-103520597D01*
X153390575Y-103706158D01*
X153335998Y-103749783D01*
X153266500Y-103756977D01*
X153204145Y-103725454D01*
X153187425Y-103706158D01*
X153057494Y-103520597D01*
X152890402Y-103353506D01*
X152890395Y-103353501D01*
X152696834Y-103217967D01*
X152696830Y-103217965D01*
X152644500Y-103193563D01*
X152482663Y-103118097D01*
X152482659Y-103118096D01*
X152482655Y-103118094D01*
X152254413Y-103056938D01*
X152254403Y-103056936D01*
X152019001Y-103036341D01*
X152018999Y-103036341D01*
X151783596Y-103056936D01*
X151783586Y-103056938D01*
X151555344Y-103118094D01*
X151555335Y-103118098D01*
X151341171Y-103217964D01*
X151341169Y-103217965D01*
X151147597Y-103353505D01*
X150980505Y-103520597D01*
X150850575Y-103706158D01*
X150795998Y-103749783D01*
X150726500Y-103756977D01*
X150664145Y-103725454D01*
X150647425Y-103706158D01*
X150517494Y-103520597D01*
X150350402Y-103353506D01*
X150350395Y-103353501D01*
X150156834Y-103217967D01*
X150156830Y-103217965D01*
X150104500Y-103193563D01*
X149942663Y-103118097D01*
X149942659Y-103118096D01*
X149942655Y-103118094D01*
X149714413Y-103056938D01*
X149714403Y-103056936D01*
X149479001Y-103036341D01*
X149478999Y-103036341D01*
X149243596Y-103056936D01*
X149243586Y-103056938D01*
X149015344Y-103118094D01*
X149015335Y-103118098D01*
X148801171Y-103217964D01*
X148801169Y-103217965D01*
X148607597Y-103353505D01*
X148440505Y-103520597D01*
X148310575Y-103706158D01*
X148255998Y-103749783D01*
X148186500Y-103756977D01*
X148124145Y-103725454D01*
X148107425Y-103706158D01*
X147977494Y-103520597D01*
X147810402Y-103353506D01*
X147810395Y-103353501D01*
X147616834Y-103217967D01*
X147616830Y-103217965D01*
X147564500Y-103193563D01*
X147402663Y-103118097D01*
X147402659Y-103118096D01*
X147402655Y-103118094D01*
X147174413Y-103056938D01*
X147174403Y-103056936D01*
X146939001Y-103036341D01*
X146938999Y-103036341D01*
X146703596Y-103056936D01*
X146703586Y-103056938D01*
X146475344Y-103118094D01*
X146475335Y-103118098D01*
X146261171Y-103217964D01*
X146261169Y-103217965D01*
X146067597Y-103353505D01*
X145900505Y-103520597D01*
X145770575Y-103706158D01*
X145715998Y-103749783D01*
X145646500Y-103756977D01*
X145584145Y-103725454D01*
X145567425Y-103706158D01*
X145437494Y-103520597D01*
X145270402Y-103353506D01*
X145270395Y-103353501D01*
X145076834Y-103217967D01*
X145076830Y-103217965D01*
X145024500Y-103193563D01*
X144862663Y-103118097D01*
X144862659Y-103118096D01*
X144862655Y-103118094D01*
X144634413Y-103056938D01*
X144634403Y-103056936D01*
X144399001Y-103036341D01*
X144398999Y-103036341D01*
X144163596Y-103056936D01*
X144163586Y-103056938D01*
X143935344Y-103118094D01*
X143935335Y-103118098D01*
X143721171Y-103217964D01*
X143721169Y-103217965D01*
X143527597Y-103353505D01*
X143360505Y-103520597D01*
X143230575Y-103706158D01*
X143175998Y-103749783D01*
X143106500Y-103756977D01*
X143044145Y-103725454D01*
X143027425Y-103706158D01*
X142897494Y-103520597D01*
X142730402Y-103353506D01*
X142730395Y-103353501D01*
X142536834Y-103217967D01*
X142536830Y-103217965D01*
X142484500Y-103193563D01*
X142322663Y-103118097D01*
X142322659Y-103118096D01*
X142322655Y-103118094D01*
X142094413Y-103056938D01*
X142094403Y-103056936D01*
X141859001Y-103036341D01*
X141858999Y-103036341D01*
X141623596Y-103056936D01*
X141623586Y-103056938D01*
X141395344Y-103118094D01*
X141395335Y-103118098D01*
X141181171Y-103217964D01*
X141181169Y-103217965D01*
X140987597Y-103353505D01*
X140820505Y-103520597D01*
X140690575Y-103706158D01*
X140635998Y-103749783D01*
X140566500Y-103756977D01*
X140504145Y-103725454D01*
X140487425Y-103706158D01*
X140357494Y-103520597D01*
X140190402Y-103353506D01*
X140190395Y-103353501D01*
X139996834Y-103217967D01*
X139996830Y-103217965D01*
X139944500Y-103193563D01*
X139782663Y-103118097D01*
X139782659Y-103118096D01*
X139782655Y-103118094D01*
X139554413Y-103056938D01*
X139554403Y-103056936D01*
X139319001Y-103036341D01*
X139318999Y-103036341D01*
X139083596Y-103056936D01*
X139083586Y-103056938D01*
X138855344Y-103118094D01*
X138855335Y-103118098D01*
X138641171Y-103217964D01*
X138641169Y-103217965D01*
X138447597Y-103353505D01*
X138280505Y-103520597D01*
X138150575Y-103706158D01*
X138095998Y-103749783D01*
X138026500Y-103756977D01*
X137964145Y-103725454D01*
X137947425Y-103706158D01*
X137817494Y-103520597D01*
X137650402Y-103353506D01*
X137650395Y-103353501D01*
X137456834Y-103217967D01*
X137456830Y-103217965D01*
X137404500Y-103193563D01*
X137242663Y-103118097D01*
X137242659Y-103118096D01*
X137242655Y-103118094D01*
X137014413Y-103056938D01*
X137014403Y-103056936D01*
X136779001Y-103036341D01*
X136778999Y-103036341D01*
X136543596Y-103056936D01*
X136543586Y-103056938D01*
X136315344Y-103118094D01*
X136315335Y-103118098D01*
X136101171Y-103217964D01*
X136101169Y-103217965D01*
X135907597Y-103353505D01*
X135740505Y-103520597D01*
X135610575Y-103706158D01*
X135555998Y-103749783D01*
X135486500Y-103756977D01*
X135424145Y-103725454D01*
X135407425Y-103706158D01*
X135277494Y-103520597D01*
X135110402Y-103353506D01*
X135110395Y-103353501D01*
X134916834Y-103217967D01*
X134916830Y-103217965D01*
X134864500Y-103193563D01*
X134702663Y-103118097D01*
X134702659Y-103118096D01*
X134702655Y-103118094D01*
X134474413Y-103056938D01*
X134474403Y-103056936D01*
X134239001Y-103036341D01*
X134238999Y-103036341D01*
X134003596Y-103056936D01*
X134003586Y-103056938D01*
X133775344Y-103118094D01*
X133775335Y-103118098D01*
X133561171Y-103217964D01*
X133561169Y-103217965D01*
X133367597Y-103353505D01*
X133200505Y-103520597D01*
X133070575Y-103706158D01*
X133015998Y-103749783D01*
X132946500Y-103756977D01*
X132884145Y-103725454D01*
X132867425Y-103706158D01*
X132737494Y-103520597D01*
X132570402Y-103353506D01*
X132570395Y-103353501D01*
X132376834Y-103217967D01*
X132376830Y-103217965D01*
X132324500Y-103193563D01*
X132162663Y-103118097D01*
X132162659Y-103118096D01*
X132162655Y-103118094D01*
X131934413Y-103056938D01*
X131934403Y-103056936D01*
X131699001Y-103036341D01*
X131698999Y-103036341D01*
X131463596Y-103056936D01*
X131463586Y-103056938D01*
X131235344Y-103118094D01*
X131235335Y-103118098D01*
X131021171Y-103217964D01*
X131021169Y-103217965D01*
X130827597Y-103353505D01*
X130660505Y-103520597D01*
X130530575Y-103706158D01*
X130475998Y-103749783D01*
X130406500Y-103756977D01*
X130344145Y-103725454D01*
X130327425Y-103706158D01*
X130197494Y-103520597D01*
X130030402Y-103353506D01*
X130030395Y-103353501D01*
X129836834Y-103217967D01*
X129836830Y-103217965D01*
X129784500Y-103193563D01*
X129622663Y-103118097D01*
X129622659Y-103118096D01*
X129622655Y-103118094D01*
X129394413Y-103056938D01*
X129394403Y-103056936D01*
X129159001Y-103036341D01*
X129158999Y-103036341D01*
X128923596Y-103056936D01*
X128923586Y-103056938D01*
X128695344Y-103118094D01*
X128695335Y-103118098D01*
X128481171Y-103217964D01*
X128481169Y-103217965D01*
X128287597Y-103353505D01*
X128120505Y-103520597D01*
X127990575Y-103706158D01*
X127935998Y-103749783D01*
X127866500Y-103756977D01*
X127804145Y-103725454D01*
X127787425Y-103706158D01*
X127657494Y-103520597D01*
X127490402Y-103353506D01*
X127490401Y-103353505D01*
X127297376Y-103218347D01*
X127253751Y-103163770D01*
X127244500Y-103116772D01*
X127244500Y-102926452D01*
X127264185Y-102859413D01*
X127280819Y-102838771D01*
X132837592Y-97281999D01*
X142017341Y-97281999D01*
X142017341Y-97282000D01*
X142037936Y-97517403D01*
X142037938Y-97517413D01*
X142099094Y-97745655D01*
X142099096Y-97745659D01*
X142099097Y-97745663D01*
X142141533Y-97836666D01*
X142198965Y-97959830D01*
X142198967Y-97959834D01*
X142307281Y-98114521D01*
X142334505Y-98153401D01*
X142501599Y-98320495D01*
X142598384Y-98388265D01*
X142695165Y-98456032D01*
X142695167Y-98456033D01*
X142695170Y-98456035D01*
X142909337Y-98555903D01*
X143137592Y-98617063D01*
X143314034Y-98632500D01*
X143372999Y-98637659D01*
X143373000Y-98637659D01*
X143373001Y-98637659D01*
X143431966Y-98632500D01*
X143608408Y-98617063D01*
X143836663Y-98555903D01*
X144050830Y-98456035D01*
X144244401Y-98320495D01*
X144411495Y-98153401D01*
X144541425Y-97967842D01*
X144596002Y-97924217D01*
X144665500Y-97917023D01*
X144727855Y-97948546D01*
X144744575Y-97967842D01*
X144874500Y-98153395D01*
X144874505Y-98153401D01*
X145041599Y-98320495D01*
X145138384Y-98388265D01*
X145235165Y-98456032D01*
X145235167Y-98456033D01*
X145235170Y-98456035D01*
X145449337Y-98555903D01*
X145677592Y-98617063D01*
X145854034Y-98632500D01*
X145912999Y-98637659D01*
X145913000Y-98637659D01*
X145913001Y-98637659D01*
X145971966Y-98632500D01*
X146148408Y-98617063D01*
X146376663Y-98555903D01*
X146590830Y-98456035D01*
X146784401Y-98320495D01*
X146951495Y-98153401D01*
X147081425Y-97967842D01*
X147136002Y-97924217D01*
X147205500Y-97917023D01*
X147267855Y-97948546D01*
X147284575Y-97967842D01*
X147414500Y-98153395D01*
X147414505Y-98153401D01*
X147581599Y-98320495D01*
X147678384Y-98388265D01*
X147775165Y-98456032D01*
X147775167Y-98456033D01*
X147775170Y-98456035D01*
X147989337Y-98555903D01*
X148217592Y-98617063D01*
X148394034Y-98632500D01*
X148452999Y-98637659D01*
X148453000Y-98637659D01*
X148453001Y-98637659D01*
X148511966Y-98632500D01*
X148688408Y-98617063D01*
X148916663Y-98555903D01*
X149130830Y-98456035D01*
X149324401Y-98320495D01*
X149446329Y-98198566D01*
X149507648Y-98165084D01*
X149577340Y-98170068D01*
X149633274Y-98211939D01*
X149650189Y-98242917D01*
X149699202Y-98374328D01*
X149699206Y-98374335D01*
X149785452Y-98489544D01*
X149785455Y-98489547D01*
X149900664Y-98575793D01*
X149900671Y-98575797D01*
X150035517Y-98626091D01*
X150035516Y-98626091D01*
X150042444Y-98626835D01*
X150095127Y-98632500D01*
X151890872Y-98632499D01*
X151950483Y-98626091D01*
X152085331Y-98575796D01*
X152200546Y-98489546D01*
X152286796Y-98374331D01*
X152337091Y-98239483D01*
X152343500Y-98179873D01*
X152343499Y-96384128D01*
X152337091Y-96324517D01*
X152335810Y-96321083D01*
X152286797Y-96189671D01*
X152286793Y-96189664D01*
X152200547Y-96074455D01*
X152200544Y-96074452D01*
X152085335Y-95988206D01*
X152085328Y-95988202D01*
X151950482Y-95937908D01*
X151950483Y-95937908D01*
X151890883Y-95931501D01*
X151890881Y-95931500D01*
X151890873Y-95931500D01*
X151890864Y-95931500D01*
X150095129Y-95931500D01*
X150095123Y-95931501D01*
X150035516Y-95937908D01*
X149900671Y-95988202D01*
X149900664Y-95988206D01*
X149785455Y-96074452D01*
X149785452Y-96074455D01*
X149699206Y-96189664D01*
X149699203Y-96189669D01*
X149650189Y-96321083D01*
X149608317Y-96377016D01*
X149542853Y-96401433D01*
X149474580Y-96386581D01*
X149446326Y-96365430D01*
X149324402Y-96243506D01*
X149324395Y-96243501D01*
X149130834Y-96107967D01*
X149130830Y-96107965D01*
X149130828Y-96107964D01*
X148916663Y-96008097D01*
X148916659Y-96008096D01*
X148916655Y-96008094D01*
X148688413Y-95946938D01*
X148688403Y-95946936D01*
X148453001Y-95926341D01*
X148452999Y-95926341D01*
X148217596Y-95946936D01*
X148217586Y-95946938D01*
X147989344Y-96008094D01*
X147989335Y-96008098D01*
X147775171Y-96107964D01*
X147775169Y-96107965D01*
X147581597Y-96243505D01*
X147414505Y-96410597D01*
X147284575Y-96596158D01*
X147229998Y-96639783D01*
X147160500Y-96646977D01*
X147098145Y-96615454D01*
X147081425Y-96596158D01*
X146951494Y-96410597D01*
X146784402Y-96243506D01*
X146784395Y-96243501D01*
X146590834Y-96107967D01*
X146590830Y-96107965D01*
X146590828Y-96107964D01*
X146376663Y-96008097D01*
X146376659Y-96008096D01*
X146376655Y-96008094D01*
X146148413Y-95946938D01*
X146148403Y-95946936D01*
X145913001Y-95926341D01*
X145912999Y-95926341D01*
X145677596Y-95946936D01*
X145677586Y-95946938D01*
X145449344Y-96008094D01*
X145449335Y-96008098D01*
X145235171Y-96107964D01*
X145235169Y-96107965D01*
X145041597Y-96243505D01*
X144874505Y-96410597D01*
X144744575Y-96596158D01*
X144689998Y-96639783D01*
X144620500Y-96646977D01*
X144558145Y-96615454D01*
X144541425Y-96596158D01*
X144411494Y-96410597D01*
X144244402Y-96243506D01*
X144244395Y-96243501D01*
X144050834Y-96107967D01*
X144050830Y-96107965D01*
X144050828Y-96107964D01*
X143836663Y-96008097D01*
X143836659Y-96008096D01*
X143836655Y-96008094D01*
X143608413Y-95946938D01*
X143608403Y-95946936D01*
X143373001Y-95926341D01*
X143372999Y-95926341D01*
X143137596Y-95946936D01*
X143137586Y-95946938D01*
X142909344Y-96008094D01*
X142909335Y-96008098D01*
X142695171Y-96107964D01*
X142695169Y-96107965D01*
X142501597Y-96243505D01*
X142334505Y-96410597D01*
X142198965Y-96604169D01*
X142198964Y-96604171D01*
X142099098Y-96818335D01*
X142099094Y-96818344D01*
X142037938Y-97046586D01*
X142037936Y-97046596D01*
X142017341Y-97281999D01*
X132837592Y-97281999D01*
X135717772Y-94401819D01*
X135779095Y-94368334D01*
X135805453Y-94365500D01*
X145298252Y-94365500D01*
X145365291Y-94385185D01*
X145390400Y-94406526D01*
X145396126Y-94412885D01*
X145396130Y-94412889D01*
X145549265Y-94524148D01*
X145549270Y-94524151D01*
X145722192Y-94601142D01*
X145722197Y-94601144D01*
X145907354Y-94640500D01*
X145907355Y-94640500D01*
X146096644Y-94640500D01*
X146096646Y-94640500D01*
X146281803Y-94601144D01*
X146454730Y-94524151D01*
X146607871Y-94412888D01*
X146734533Y-94272216D01*
X146829179Y-94108284D01*
X146887674Y-93928256D01*
X146907460Y-93740000D01*
X146887674Y-93551744D01*
X146829179Y-93371716D01*
X146734533Y-93207784D01*
X146607871Y-93067112D01*
X146607870Y-93067111D01*
X146454734Y-92955851D01*
X146454729Y-92955848D01*
X146281807Y-92878857D01*
X146281802Y-92878855D01*
X146136001Y-92847865D01*
X146096646Y-92839500D01*
X145907354Y-92839500D01*
X145874897Y-92846398D01*
X145722197Y-92878855D01*
X145722192Y-92878857D01*
X145549270Y-92955848D01*
X145549265Y-92955851D01*
X145396130Y-93067110D01*
X145396126Y-93067114D01*
X145390400Y-93073474D01*
X145330913Y-93110121D01*
X145298252Y-93114500D01*
X135562741Y-93114500D01*
X135562721Y-93114499D01*
X135556607Y-93114499D01*
X135433394Y-93114499D01*
X135332597Y-93134548D01*
X135332592Y-93134548D01*
X135312548Y-93138536D01*
X135312545Y-93138537D01*
X135279430Y-93152255D01*
X135279428Y-93152256D01*
X135198711Y-93185689D01*
X135096267Y-93254141D01*
X135096263Y-93254144D01*
X126220269Y-102130140D01*
X126133144Y-102217264D01*
X126133138Y-102217272D01*
X126098914Y-102268489D01*
X126098915Y-102268490D01*
X126064688Y-102319713D01*
X126064685Y-102319718D01*
X126055380Y-102342186D01*
X126055379Y-102342188D01*
X126017538Y-102433544D01*
X126017535Y-102433556D01*
X125993500Y-102554389D01*
X125993500Y-103116773D01*
X125973815Y-103183812D01*
X125940623Y-103218348D01*
X125747597Y-103353505D01*
X125580505Y-103520597D01*
X125450575Y-103706158D01*
X125395998Y-103749783D01*
X125326500Y-103756977D01*
X125264145Y-103725454D01*
X125247425Y-103706158D01*
X125117494Y-103520597D01*
X124950402Y-103353506D01*
X124950395Y-103353501D01*
X124756834Y-103217967D01*
X124756830Y-103217965D01*
X124704500Y-103193563D01*
X124542663Y-103118097D01*
X124542659Y-103118096D01*
X124542655Y-103118094D01*
X124314413Y-103056938D01*
X124314403Y-103056936D01*
X124079001Y-103036341D01*
X124078999Y-103036341D01*
X123843596Y-103056936D01*
X123843586Y-103056938D01*
X123615344Y-103118094D01*
X123615335Y-103118098D01*
X123401171Y-103217964D01*
X123401169Y-103217965D01*
X123207597Y-103353505D01*
X123040505Y-103520597D01*
X122910575Y-103706158D01*
X122855998Y-103749783D01*
X122786500Y-103756977D01*
X122724145Y-103725454D01*
X122707425Y-103706158D01*
X122577494Y-103520597D01*
X122410402Y-103353506D01*
X122410395Y-103353501D01*
X122216834Y-103217967D01*
X122216830Y-103217965D01*
X122164500Y-103193563D01*
X122002663Y-103118097D01*
X122002659Y-103118096D01*
X122002655Y-103118094D01*
X121774413Y-103056938D01*
X121774403Y-103056936D01*
X121539001Y-103036341D01*
X121538999Y-103036341D01*
X121303596Y-103056936D01*
X121303586Y-103056938D01*
X121075344Y-103118094D01*
X121075335Y-103118098D01*
X120861171Y-103217964D01*
X120861169Y-103217965D01*
X120667597Y-103353505D01*
X120500505Y-103520597D01*
X120370575Y-103706158D01*
X120315998Y-103749783D01*
X120246500Y-103756977D01*
X120184145Y-103725454D01*
X120167425Y-103706158D01*
X120037494Y-103520597D01*
X119870402Y-103353506D01*
X119870395Y-103353501D01*
X119676834Y-103217967D01*
X119676830Y-103217965D01*
X119624500Y-103193563D01*
X119462663Y-103118097D01*
X119462659Y-103118096D01*
X119462655Y-103118094D01*
X119234413Y-103056938D01*
X119234403Y-103056936D01*
X118999001Y-103036341D01*
X118998999Y-103036341D01*
X118763596Y-103056936D01*
X118763583Y-103056939D01*
X118656756Y-103085562D01*
X118586906Y-103083899D01*
X118529044Y-103044735D01*
X118501541Y-102980507D01*
X118513128Y-102911605D01*
X118536980Y-102878109D01*
X128287729Y-93127360D01*
X128287733Y-93127358D01*
X128374858Y-93040233D01*
X128411001Y-92986142D01*
X128443312Y-92937786D01*
X128490463Y-92823951D01*
X128492799Y-92812210D01*
X128514500Y-92703106D01*
X128514500Y-89534999D01*
X133508341Y-89534999D01*
X133508341Y-89535000D01*
X133528936Y-89770403D01*
X133528938Y-89770413D01*
X133590094Y-89998655D01*
X133590096Y-89998659D01*
X133590097Y-89998663D01*
X133594000Y-90007032D01*
X133689965Y-90212830D01*
X133689967Y-90212834D01*
X133798281Y-90367521D01*
X133825505Y-90406401D01*
X133992599Y-90573495D01*
X134089384Y-90641265D01*
X134186165Y-90709032D01*
X134186167Y-90709033D01*
X134186170Y-90709035D01*
X134400337Y-90808903D01*
X134628592Y-90870063D01*
X134816918Y-90886539D01*
X134863999Y-90890659D01*
X134864000Y-90890659D01*
X134864001Y-90890659D01*
X134903234Y-90887226D01*
X135099408Y-90870063D01*
X135327663Y-90808903D01*
X135541830Y-90709035D01*
X135735401Y-90573495D01*
X135902495Y-90406401D01*
X136032425Y-90220842D01*
X136087002Y-90177217D01*
X136156500Y-90170023D01*
X136218855Y-90201546D01*
X136235575Y-90220842D01*
X136365500Y-90406395D01*
X136365505Y-90406401D01*
X136532599Y-90573495D01*
X136629384Y-90641265D01*
X136726165Y-90709032D01*
X136726167Y-90709033D01*
X136726170Y-90709035D01*
X136940337Y-90808903D01*
X137168592Y-90870063D01*
X137356918Y-90886539D01*
X137403999Y-90890659D01*
X137404000Y-90890659D01*
X137404001Y-90890659D01*
X137443234Y-90887226D01*
X137639408Y-90870063D01*
X137867663Y-90808903D01*
X138081830Y-90709035D01*
X138275401Y-90573495D01*
X138442495Y-90406401D01*
X138572425Y-90220842D01*
X138627002Y-90177217D01*
X138696500Y-90170023D01*
X138758855Y-90201546D01*
X138775575Y-90220842D01*
X138905500Y-90406395D01*
X138905505Y-90406401D01*
X139072599Y-90573495D01*
X139169384Y-90641265D01*
X139266165Y-90709032D01*
X139266167Y-90709033D01*
X139266170Y-90709035D01*
X139480337Y-90808903D01*
X139708592Y-90870063D01*
X139896918Y-90886539D01*
X139943999Y-90890659D01*
X139944000Y-90890659D01*
X139944001Y-90890659D01*
X139983234Y-90887226D01*
X140179408Y-90870063D01*
X140407663Y-90808903D01*
X140621830Y-90709035D01*
X140815401Y-90573495D01*
X140982495Y-90406401D01*
X141118035Y-90212830D01*
X141217903Y-89998663D01*
X141279063Y-89770408D01*
X141299659Y-89535000D01*
X141279063Y-89299592D01*
X141217903Y-89071337D01*
X141118035Y-88857171D01*
X141113118Y-88850148D01*
X140982494Y-88663597D01*
X140815402Y-88496506D01*
X140815395Y-88496501D01*
X140621834Y-88360967D01*
X140621830Y-88360965D01*
X140621828Y-88360964D01*
X140407663Y-88261097D01*
X140407659Y-88261096D01*
X140407655Y-88261094D01*
X140179413Y-88199938D01*
X140179403Y-88199936D01*
X139944001Y-88179341D01*
X139943999Y-88179341D01*
X139708596Y-88199936D01*
X139708586Y-88199938D01*
X139480344Y-88261094D01*
X139480337Y-88261096D01*
X139480337Y-88261097D01*
X139466816Y-88267401D01*
X139266171Y-88360964D01*
X139266169Y-88360965D01*
X139072597Y-88496505D01*
X138905505Y-88663597D01*
X138775575Y-88849158D01*
X138720998Y-88892783D01*
X138651500Y-88899977D01*
X138589145Y-88868454D01*
X138572425Y-88849158D01*
X138442494Y-88663597D01*
X138275402Y-88496506D01*
X138275395Y-88496501D01*
X138081834Y-88360967D01*
X138081830Y-88360965D01*
X138081828Y-88360964D01*
X137867663Y-88261097D01*
X137867659Y-88261096D01*
X137867655Y-88261094D01*
X137639413Y-88199938D01*
X137639403Y-88199936D01*
X137404001Y-88179341D01*
X137403999Y-88179341D01*
X137168596Y-88199936D01*
X137168586Y-88199938D01*
X136940344Y-88261094D01*
X136940337Y-88261096D01*
X136940337Y-88261097D01*
X136926816Y-88267401D01*
X136726171Y-88360964D01*
X136726169Y-88360965D01*
X136532597Y-88496505D01*
X136365505Y-88663597D01*
X136235575Y-88849158D01*
X136180998Y-88892783D01*
X136111500Y-88899977D01*
X136049145Y-88868454D01*
X136032425Y-88849158D01*
X135902494Y-88663597D01*
X135735402Y-88496506D01*
X135735395Y-88496501D01*
X135541834Y-88360967D01*
X135541830Y-88360965D01*
X135541828Y-88360964D01*
X135327663Y-88261097D01*
X135327659Y-88261096D01*
X135327655Y-88261094D01*
X135099413Y-88199938D01*
X135099403Y-88199936D01*
X134864001Y-88179341D01*
X134863999Y-88179341D01*
X134628596Y-88199936D01*
X134628586Y-88199938D01*
X134400344Y-88261094D01*
X134400337Y-88261096D01*
X134400337Y-88261097D01*
X134386816Y-88267401D01*
X134186171Y-88360964D01*
X134186169Y-88360965D01*
X133992597Y-88496505D01*
X133825505Y-88663597D01*
X133689965Y-88857169D01*
X133689964Y-88857171D01*
X133590098Y-89071335D01*
X133590094Y-89071344D01*
X133528938Y-89299586D01*
X133528936Y-89299596D01*
X133508341Y-89534999D01*
X128514500Y-89534999D01*
X128514500Y-88328687D01*
X128534185Y-88261648D01*
X128546350Y-88245715D01*
X128564891Y-88225122D01*
X128621533Y-88162216D01*
X128716179Y-87998284D01*
X128774674Y-87818256D01*
X128794460Y-87630000D01*
X128788022Y-87568744D01*
X128786416Y-87553460D01*
X128798986Y-87484731D01*
X128846719Y-87433707D01*
X128909737Y-87416500D01*
X149285469Y-87416500D01*
X157981548Y-87416500D01*
X158048587Y-87436185D01*
X158069229Y-87452819D01*
X158466181Y-87849771D01*
X158499666Y-87911094D01*
X158502500Y-87937452D01*
X158502500Y-91891548D01*
X158482815Y-91958587D01*
X158466181Y-91979229D01*
X157910229Y-92535181D01*
X157848906Y-92568666D01*
X157822548Y-92571500D01*
X157763354Y-92571500D01*
X157730897Y-92578398D01*
X157578197Y-92610855D01*
X157578192Y-92610857D01*
X157405270Y-92687848D01*
X157405265Y-92687851D01*
X157252129Y-92799111D01*
X157125466Y-92939785D01*
X157030821Y-93103715D01*
X157030818Y-93103722D01*
X156972327Y-93283740D01*
X156972326Y-93283744D01*
X156952540Y-93472000D01*
X156972326Y-93660256D01*
X156972327Y-93660259D01*
X157030818Y-93840277D01*
X157030821Y-93840284D01*
X157125467Y-94004216D01*
X157168772Y-94052310D01*
X157200650Y-94087715D01*
X157230880Y-94150706D01*
X157232500Y-94170687D01*
X157232500Y-94573547D01*
X157212815Y-94640586D01*
X157196181Y-94661228D01*
X154054229Y-97803181D01*
X153992906Y-97836666D01*
X153966548Y-97839500D01*
X153907354Y-97839500D01*
X153874897Y-97846398D01*
X153722197Y-97878855D01*
X153722192Y-97878857D01*
X153549270Y-97955848D01*
X153549265Y-97955851D01*
X153396129Y-98067111D01*
X153269466Y-98207785D01*
X153174821Y-98371715D01*
X153174818Y-98371722D01*
X153136536Y-98489544D01*
X153116326Y-98551744D01*
X153096540Y-98740000D01*
X153116326Y-98928256D01*
X153116327Y-98928259D01*
X153174818Y-99108277D01*
X153174821Y-99108284D01*
X153269467Y-99272216D01*
X153396129Y-99412888D01*
X153549265Y-99524148D01*
X153549270Y-99524151D01*
X153722192Y-99601142D01*
X153722197Y-99601144D01*
X153907354Y-99640500D01*
X153907355Y-99640500D01*
X154096644Y-99640500D01*
X154096646Y-99640500D01*
X154281803Y-99601144D01*
X154454730Y-99524151D01*
X154607871Y-99412888D01*
X154734533Y-99272216D01*
X154829179Y-99108284D01*
X154887674Y-98928256D01*
X154905321Y-98760345D01*
X154931905Y-98695732D01*
X154940952Y-98685636D01*
X158343857Y-95282734D01*
X158412311Y-95180286D01*
X158459463Y-95066452D01*
X158483500Y-94945607D01*
X158483500Y-94822394D01*
X158483500Y-94170687D01*
X158503185Y-94103648D01*
X158515350Y-94087715D01*
X158533891Y-94067122D01*
X158590533Y-94004216D01*
X158685179Y-93840284D01*
X158743674Y-93660256D01*
X158761321Y-93492345D01*
X158787905Y-93427732D01*
X158796952Y-93417636D01*
X159526729Y-92687860D01*
X159526733Y-92687858D01*
X159613858Y-92600733D01*
X159682311Y-92498286D01*
X159729463Y-92384452D01*
X159753500Y-92263606D01*
X159753500Y-87565394D01*
X159729463Y-87444548D01*
X159682311Y-87330714D01*
X159682309Y-87330711D01*
X159680122Y-87325431D01*
X159672653Y-87255962D01*
X159703928Y-87193483D01*
X159706974Y-87190325D01*
X165243695Y-81653606D01*
X165317620Y-81542969D01*
X165368540Y-81420036D01*
X165394500Y-81289531D01*
X165394500Y-80234216D01*
X165414185Y-80167177D01*
X165447375Y-80132642D01*
X165590401Y-80032495D01*
X165757495Y-79865401D01*
X165857642Y-79722375D01*
X165912219Y-79678752D01*
X165959217Y-79669500D01*
X166018783Y-79669500D01*
X166085822Y-79689185D01*
G37*
%TD.AperFunction*%
%TA.AperFunction,Conductor*%
G36*
X178251039Y-68853685D02*
G01*
X178296794Y-68906489D01*
X178308000Y-68958000D01*
X178308000Y-138433000D01*
X178288315Y-138500039D01*
X178235511Y-138545794D01*
X178184000Y-138557000D01*
X101089000Y-138557000D01*
X101021961Y-138537315D01*
X100976206Y-138484511D01*
X100965000Y-138433000D01*
X100965000Y-79945601D01*
X106816500Y-79945601D01*
X106816500Y-131255403D01*
X106840535Y-131376236D01*
X106840540Y-131376253D01*
X106887685Y-131490073D01*
X106887690Y-131490082D01*
X106897321Y-131504494D01*
X106897323Y-131504501D01*
X106897325Y-131504500D01*
X106956141Y-131592524D01*
X106956144Y-131592528D01*
X107047586Y-131683970D01*
X107047608Y-131683990D01*
X112792224Y-137428606D01*
X112792253Y-137428637D01*
X112882472Y-137518856D01*
X112882475Y-137518858D01*
X112933698Y-137553084D01*
X112984922Y-137587312D01*
X113065415Y-137620652D01*
X113098756Y-137634463D01*
X113159179Y-137646481D01*
X113219601Y-137658500D01*
X133792607Y-137658500D01*
X133853029Y-137646481D01*
X133913452Y-137634463D01*
X133913455Y-137634461D01*
X133913458Y-137634461D01*
X133946787Y-137620654D01*
X133946786Y-137620654D01*
X133946792Y-137620652D01*
X134027286Y-137587312D01*
X134078509Y-137553084D01*
X134078511Y-137553083D01*
X134091271Y-137544556D01*
X134129733Y-137518858D01*
X134216858Y-137431733D01*
X134216858Y-137431731D01*
X134227066Y-137421524D01*
X134227068Y-137421521D01*
X136892038Y-134756550D01*
X136953359Y-134723067D01*
X137021175Y-134727916D01*
X137021244Y-134727695D01*
X137022201Y-134727990D01*
X137023051Y-134728051D01*
X137025013Y-134728802D01*
X137025663Y-134729056D01*
X137025677Y-134729063D01*
X137276385Y-134806396D01*
X137535818Y-134845500D01*
X137798182Y-134845500D01*
X138057615Y-134806396D01*
X138308323Y-134729063D01*
X138544704Y-134615228D01*
X138761479Y-134467433D01*
X138925192Y-134315530D01*
X138953801Y-134288985D01*
X138953801Y-134288983D01*
X138953805Y-134288981D01*
X139117386Y-134083857D01*
X139248568Y-133856643D01*
X139344420Y-133612416D01*
X139402802Y-133356630D01*
X139422408Y-133095000D01*
X139422408Y-133094995D01*
X139911592Y-133094995D01*
X139911592Y-133095004D01*
X139931196Y-133356620D01*
X139931197Y-133356625D01*
X139989576Y-133612402D01*
X139989579Y-133612410D01*
X139989580Y-133612416D01*
X140085432Y-133856643D01*
X140216614Y-134083857D01*
X140348736Y-134249533D01*
X140380198Y-134288985D01*
X140509807Y-134409243D01*
X140572521Y-134467433D01*
X140789296Y-134615228D01*
X140789301Y-134615230D01*
X140789302Y-134615231D01*
X140789303Y-134615232D01*
X140914843Y-134675688D01*
X141025673Y-134729061D01*
X141025674Y-134729061D01*
X141025677Y-134729063D01*
X141276385Y-134806396D01*
X141535818Y-134845500D01*
X141798182Y-134845500D01*
X142057615Y-134806396D01*
X142308323Y-134729063D01*
X142544704Y-134615228D01*
X142761479Y-134467433D01*
X142925192Y-134315530D01*
X142953801Y-134288985D01*
X142953801Y-134288983D01*
X142953805Y-134288981D01*
X143117386Y-134083857D01*
X143248568Y-133856643D01*
X143344420Y-133612416D01*
X143402802Y-133356630D01*
X143422408Y-133095000D01*
X143402802Y-132833370D01*
X143344420Y-132577584D01*
X143248568Y-132333357D01*
X143117386Y-132106143D01*
X142953805Y-131901019D01*
X142953804Y-131901018D01*
X142953801Y-131901014D01*
X142761479Y-131722567D01*
X142704897Y-131683990D01*
X142544704Y-131574772D01*
X142544698Y-131574769D01*
X142544697Y-131574768D01*
X142544696Y-131574767D01*
X142308325Y-131460938D01*
X142308327Y-131460938D01*
X142057623Y-131383606D01*
X142057619Y-131383605D01*
X142057615Y-131383604D01*
X141913343Y-131361858D01*
X141798187Y-131344500D01*
X141798182Y-131344500D01*
X141535818Y-131344500D01*
X141535812Y-131344500D01*
X141374247Y-131368853D01*
X141276385Y-131383604D01*
X141276382Y-131383605D01*
X141276376Y-131383606D01*
X141025673Y-131460938D01*
X140789303Y-131574767D01*
X140789302Y-131574768D01*
X140572520Y-131722567D01*
X140380198Y-131901014D01*
X140216614Y-132106143D01*
X140085432Y-132333356D01*
X139989582Y-132577578D01*
X139989576Y-132577597D01*
X139931197Y-132833374D01*
X139931196Y-132833379D01*
X139911592Y-133094995D01*
X139422408Y-133094995D01*
X139402802Y-132833370D01*
X139344420Y-132577584D01*
X139248568Y-132333357D01*
X139117386Y-132106143D01*
X138953805Y-131901019D01*
X138953804Y-131901018D01*
X138953801Y-131901014D01*
X138761479Y-131722567D01*
X138704897Y-131683990D01*
X138544704Y-131574772D01*
X138544698Y-131574769D01*
X138544697Y-131574768D01*
X138544696Y-131574767D01*
X138308325Y-131460938D01*
X138308327Y-131460938D01*
X138057623Y-131383606D01*
X138057619Y-131383605D01*
X138057615Y-131383604D01*
X137913343Y-131361858D01*
X137798187Y-131344500D01*
X137798182Y-131344500D01*
X137535818Y-131344500D01*
X137535812Y-131344500D01*
X137374247Y-131368853D01*
X137276385Y-131383604D01*
X137276382Y-131383605D01*
X137276376Y-131383606D01*
X137025673Y-131460938D01*
X136789303Y-131574767D01*
X136789302Y-131574768D01*
X136572520Y-131722567D01*
X136380198Y-131901014D01*
X136216614Y-132106143D01*
X136085432Y-132333356D01*
X135989582Y-132577578D01*
X135989576Y-132577597D01*
X135931197Y-132833374D01*
X135931196Y-132833379D01*
X135911592Y-133094995D01*
X135911592Y-133095004D01*
X135931196Y-133356620D01*
X135931197Y-133356625D01*
X135989576Y-133612402D01*
X135989582Y-133612421D01*
X136038108Y-133736063D01*
X136044277Y-133805660D01*
X136011839Y-133867543D01*
X136010361Y-133869046D01*
X133508229Y-136371181D01*
X133446906Y-136404666D01*
X133420548Y-136407500D01*
X131603452Y-136407500D01*
X131536413Y-136387815D01*
X131490658Y-136335011D01*
X131480714Y-136265853D01*
X131509739Y-136202297D01*
X131515771Y-136195819D01*
X131826579Y-135885011D01*
X132939867Y-134771721D01*
X133001188Y-134738238D01*
X133064093Y-134740912D01*
X133276385Y-134806396D01*
X133535818Y-134845500D01*
X133798182Y-134845500D01*
X134057615Y-134806396D01*
X134308323Y-134729063D01*
X134544704Y-134615228D01*
X134761479Y-134467433D01*
X134925192Y-134315530D01*
X134953801Y-134288985D01*
X134953801Y-134288983D01*
X134953805Y-134288981D01*
X135117386Y-134083857D01*
X135248568Y-133856643D01*
X135344420Y-133612416D01*
X135402802Y-133356630D01*
X135422408Y-133095000D01*
X135402802Y-132833370D01*
X135344420Y-132577584D01*
X135248568Y-132333357D01*
X135117386Y-132106143D01*
X134953805Y-131901019D01*
X134953804Y-131901018D01*
X134953801Y-131901014D01*
X134761479Y-131722567D01*
X134570747Y-131592528D01*
X134544704Y-131574772D01*
X134544701Y-131574771D01*
X134544699Y-131574769D01*
X134405253Y-131507616D01*
X134353394Y-131460794D01*
X134335081Y-131393367D01*
X134356129Y-131326743D01*
X134371374Y-131308215D01*
X134651176Y-131028413D01*
X134915411Y-130764177D01*
X134976733Y-130730694D01*
X135039636Y-130733368D01*
X135276385Y-130806396D01*
X135535818Y-130845500D01*
X135798182Y-130845500D01*
X136057615Y-130806396D01*
X136308323Y-130729063D01*
X136544704Y-130615228D01*
X136761479Y-130467433D01*
X136937740Y-130303887D01*
X136953801Y-130288985D01*
X136953801Y-130288983D01*
X136953805Y-130288981D01*
X137117386Y-130083857D01*
X137248568Y-129856643D01*
X137344420Y-129612416D01*
X137402802Y-129356630D01*
X137402803Y-129356620D01*
X137422408Y-129095004D01*
X137422408Y-129094995D01*
X137911592Y-129094995D01*
X137911592Y-129095004D01*
X137931196Y-129356620D01*
X137931197Y-129356625D01*
X137989576Y-129612402D01*
X137989578Y-129612411D01*
X137989580Y-129612416D01*
X138085432Y-129856643D01*
X138216614Y-130083857D01*
X138282420Y-130166375D01*
X138380198Y-130288985D01*
X138535964Y-130433513D01*
X138572521Y-130467433D01*
X138789296Y-130615228D01*
X138789301Y-130615230D01*
X138789302Y-130615231D01*
X138789303Y-130615232D01*
X138914843Y-130675688D01*
X139025673Y-130729061D01*
X139025674Y-130729061D01*
X139025677Y-130729063D01*
X139276385Y-130806396D01*
X139535818Y-130845500D01*
X139798182Y-130845500D01*
X140057615Y-130806396D01*
X140308323Y-130729063D01*
X140544704Y-130615228D01*
X140761479Y-130467433D01*
X140937740Y-130303887D01*
X140953801Y-130288985D01*
X140953801Y-130288983D01*
X140953805Y-130288981D01*
X141117386Y-130083857D01*
X141248568Y-129856643D01*
X141344420Y-129612416D01*
X141402802Y-129356630D01*
X141402803Y-129356620D01*
X141422408Y-129095004D01*
X141422408Y-129094995D01*
X141402803Y-128833379D01*
X141402802Y-128833374D01*
X141402802Y-128833370D01*
X141344420Y-128577584D01*
X141248568Y-128333357D01*
X141117386Y-128106143D01*
X140953805Y-127901019D01*
X140953804Y-127901018D01*
X140953801Y-127901014D01*
X140761479Y-127722567D01*
X140700969Y-127681312D01*
X140544704Y-127574772D01*
X140544700Y-127574770D01*
X140544697Y-127574768D01*
X140544696Y-127574767D01*
X140315680Y-127464480D01*
X140308325Y-127460938D01*
X140308327Y-127460938D01*
X140057623Y-127383606D01*
X140057619Y-127383605D01*
X140057615Y-127383604D01*
X139932823Y-127364794D01*
X139798187Y-127344500D01*
X139798182Y-127344500D01*
X139535818Y-127344500D01*
X139535812Y-127344500D01*
X139374247Y-127368853D01*
X139276385Y-127383604D01*
X139276382Y-127383605D01*
X139276376Y-127383606D01*
X139025673Y-127460938D01*
X138789303Y-127574767D01*
X138789302Y-127574768D01*
X138572520Y-127722567D01*
X138380198Y-127901014D01*
X138216614Y-128106143D01*
X138085432Y-128333356D01*
X137989582Y-128577578D01*
X137989576Y-128577597D01*
X137931197Y-128833374D01*
X137931196Y-128833379D01*
X137911592Y-129094995D01*
X137422408Y-129094995D01*
X137402803Y-128833379D01*
X137402802Y-128833374D01*
X137402802Y-128833370D01*
X137344420Y-128577584D01*
X137248568Y-128333357D01*
X137117386Y-128106143D01*
X136953805Y-127901019D01*
X136953804Y-127901018D01*
X136953801Y-127901014D01*
X136761479Y-127722567D01*
X136700969Y-127681312D01*
X136544704Y-127574772D01*
X136544700Y-127574770D01*
X136544697Y-127574768D01*
X136544696Y-127574767D01*
X136315680Y-127464480D01*
X136308325Y-127460938D01*
X136308327Y-127460938D01*
X136057623Y-127383606D01*
X136057619Y-127383605D01*
X136057615Y-127383604D01*
X135932823Y-127364794D01*
X135798187Y-127344500D01*
X135798182Y-127344500D01*
X135535818Y-127344500D01*
X135535812Y-127344500D01*
X135374247Y-127368853D01*
X135276385Y-127383604D01*
X135276382Y-127383605D01*
X135276376Y-127383606D01*
X135025673Y-127460938D01*
X134789303Y-127574767D01*
X134789302Y-127574768D01*
X134572520Y-127722567D01*
X134380198Y-127901014D01*
X134216614Y-128106143D01*
X134085432Y-128333356D01*
X133989582Y-128577578D01*
X133989576Y-128577597D01*
X133931197Y-128833374D01*
X133931196Y-128833379D01*
X133911592Y-129094995D01*
X133911592Y-129095004D01*
X133931196Y-129356620D01*
X133931197Y-129356625D01*
X133989576Y-129612402D01*
X133989582Y-129612421D01*
X134046846Y-129758327D01*
X134053015Y-129827924D01*
X134020577Y-129889807D01*
X134019099Y-129891310D01*
X133635229Y-130275181D01*
X133573906Y-130308666D01*
X133547548Y-130311500D01*
X133193335Y-130311500D01*
X133126296Y-130291815D01*
X133080541Y-130239011D01*
X133070597Y-130169853D01*
X133096387Y-130110188D01*
X133117386Y-130083857D01*
X133248568Y-129856643D01*
X133344420Y-129612416D01*
X133402802Y-129356630D01*
X133402803Y-129356620D01*
X133422408Y-129095004D01*
X133422408Y-129094995D01*
X133402803Y-128833379D01*
X133402802Y-128833374D01*
X133402802Y-128833370D01*
X133344420Y-128577584D01*
X133248568Y-128333357D01*
X133117386Y-128106143D01*
X132953805Y-127901019D01*
X132953804Y-127901018D01*
X132953801Y-127901014D01*
X132761479Y-127722567D01*
X132700969Y-127681312D01*
X132544704Y-127574772D01*
X132544700Y-127574770D01*
X132544697Y-127574768D01*
X132544696Y-127574767D01*
X132315680Y-127464480D01*
X132308325Y-127460938D01*
X132308327Y-127460938D01*
X132057623Y-127383606D01*
X132057619Y-127383605D01*
X132057615Y-127383604D01*
X131932823Y-127364794D01*
X131798187Y-127344500D01*
X131798182Y-127344500D01*
X131535818Y-127344500D01*
X131535812Y-127344500D01*
X131374247Y-127368853D01*
X131276385Y-127383604D01*
X131276382Y-127383605D01*
X131276376Y-127383606D01*
X131025673Y-127460938D01*
X130789303Y-127574767D01*
X130789302Y-127574768D01*
X130572520Y-127722567D01*
X130380198Y-127901014D01*
X130216614Y-128106143D01*
X130085432Y-128333356D01*
X129989582Y-128577578D01*
X129989576Y-128577597D01*
X129931197Y-128833374D01*
X129931196Y-128833379D01*
X129911592Y-129094995D01*
X129911592Y-129095004D01*
X129931196Y-129356620D01*
X129931197Y-129356625D01*
X129989576Y-129612402D01*
X129989578Y-129612411D01*
X129989580Y-129612416D01*
X130085432Y-129856643D01*
X130216614Y-130083857D01*
X130237612Y-130110188D01*
X130264020Y-130174873D01*
X130251265Y-130243569D01*
X130203394Y-130294463D01*
X130140665Y-130311500D01*
X129193335Y-130311500D01*
X129126296Y-130291815D01*
X129080541Y-130239011D01*
X129070597Y-130169853D01*
X129096387Y-130110188D01*
X129117386Y-130083857D01*
X129248568Y-129856643D01*
X129344420Y-129612416D01*
X129402802Y-129356630D01*
X129402803Y-129356620D01*
X129422408Y-129095004D01*
X129422408Y-129094995D01*
X129402803Y-128833379D01*
X129402802Y-128833374D01*
X129402802Y-128833370D01*
X129344420Y-128577584D01*
X129248568Y-128333357D01*
X129117386Y-128106143D01*
X128953805Y-127901019D01*
X128953804Y-127901018D01*
X128953801Y-127901014D01*
X128761479Y-127722567D01*
X128700969Y-127681312D01*
X128544704Y-127574772D01*
X128544700Y-127574770D01*
X128544697Y-127574768D01*
X128544696Y-127574767D01*
X128315680Y-127464480D01*
X128308325Y-127460938D01*
X128308327Y-127460938D01*
X128057623Y-127383606D01*
X128057619Y-127383605D01*
X128057615Y-127383604D01*
X127932823Y-127364794D01*
X127798187Y-127344500D01*
X127798182Y-127344500D01*
X127535818Y-127344500D01*
X127535812Y-127344500D01*
X127374247Y-127368853D01*
X127276385Y-127383604D01*
X127276382Y-127383605D01*
X127276376Y-127383606D01*
X127025673Y-127460938D01*
X126789303Y-127574767D01*
X126789302Y-127574768D01*
X126572520Y-127722567D01*
X126380198Y-127901014D01*
X126216614Y-128106143D01*
X126085432Y-128333356D01*
X125989582Y-128577578D01*
X125989576Y-128577597D01*
X125931197Y-128833374D01*
X125931196Y-128833379D01*
X125911592Y-129094995D01*
X125911592Y-129095004D01*
X125931196Y-129356620D01*
X125931197Y-129356625D01*
X125989576Y-129612402D01*
X125989578Y-129612411D01*
X125989580Y-129612416D01*
X126085432Y-129856643D01*
X126216614Y-130083857D01*
X126282420Y-130166375D01*
X126380198Y-130288985D01*
X126535964Y-130433513D01*
X126572521Y-130467433D01*
X126789296Y-130615228D01*
X126789301Y-130615230D01*
X126789302Y-130615231D01*
X126789303Y-130615232D01*
X126914843Y-130675688D01*
X127025673Y-130729061D01*
X127025674Y-130729061D01*
X127025677Y-130729063D01*
X127276385Y-130806396D01*
X127535818Y-130845500D01*
X127798182Y-130845500D01*
X127944507Y-130823444D01*
X128013728Y-130832916D01*
X128066842Y-130878310D01*
X128086983Y-130945214D01*
X128067756Y-131012386D01*
X128050667Y-131033740D01*
X127153778Y-131930630D01*
X127092455Y-131964115D01*
X127022764Y-131959131D01*
X126969151Y-131920262D01*
X126953805Y-131901019D01*
X126953804Y-131901018D01*
X126953800Y-131901013D01*
X126761479Y-131722567D01*
X126704897Y-131683990D01*
X126544704Y-131574772D01*
X126544698Y-131574769D01*
X126544697Y-131574768D01*
X126544696Y-131574767D01*
X126308325Y-131460938D01*
X126308327Y-131460938D01*
X126057623Y-131383606D01*
X126057619Y-131383605D01*
X126057615Y-131383604D01*
X125913343Y-131361858D01*
X125798187Y-131344500D01*
X125798182Y-131344500D01*
X125535818Y-131344500D01*
X125535812Y-131344500D01*
X125374247Y-131368853D01*
X125276385Y-131383604D01*
X125276382Y-131383605D01*
X125276376Y-131383606D01*
X125025673Y-131460938D01*
X124789303Y-131574767D01*
X124789302Y-131574768D01*
X124572520Y-131722567D01*
X124411841Y-131871655D01*
X124349308Y-131902823D01*
X124279852Y-131895236D01*
X124225523Y-131851302D01*
X124203572Y-131784970D01*
X124203500Y-131780756D01*
X124203500Y-131513726D01*
X124191261Y-131403167D01*
X124191260Y-131403166D01*
X124191260Y-131403160D01*
X124179396Y-131350232D01*
X124143274Y-131245031D01*
X124063968Y-131124980D01*
X124017553Y-131072758D01*
X124017275Y-131072445D01*
X124015291Y-131070848D01*
X123965055Y-131028413D01*
X123926544Y-130970115D01*
X123925665Y-130900251D01*
X123962697Y-130841002D01*
X124025882Y-130811180D01*
X124026241Y-130811124D01*
X124057615Y-130806396D01*
X124308323Y-130729063D01*
X124544704Y-130615228D01*
X124761479Y-130467433D01*
X124937740Y-130303887D01*
X124953801Y-130288985D01*
X124953801Y-130288983D01*
X124953805Y-130288981D01*
X125117386Y-130083857D01*
X125248568Y-129856643D01*
X125344420Y-129612416D01*
X125402802Y-129356630D01*
X125402803Y-129356620D01*
X125422408Y-129095004D01*
X125422408Y-129094995D01*
X125402803Y-128833379D01*
X125402802Y-128833374D01*
X125402802Y-128833370D01*
X125344420Y-128577584D01*
X125248568Y-128333357D01*
X125117386Y-128106143D01*
X124953805Y-127901019D01*
X124953804Y-127901018D01*
X124953801Y-127901014D01*
X124761479Y-127722567D01*
X124700969Y-127681312D01*
X124544704Y-127574772D01*
X124544700Y-127574770D01*
X124544697Y-127574768D01*
X124544696Y-127574767D01*
X124315680Y-127464480D01*
X124308325Y-127460938D01*
X124308327Y-127460938D01*
X124057623Y-127383606D01*
X124057618Y-127383604D01*
X124057615Y-127383604D01*
X124057610Y-127383603D01*
X124057609Y-127383603D01*
X124031050Y-127379599D01*
X123967694Y-127350141D01*
X123930322Y-127291106D01*
X123930799Y-127221238D01*
X123968974Y-127162719D01*
X123972594Y-127159743D01*
X123994909Y-127142106D01*
X124033504Y-127103993D01*
X124103567Y-127017609D01*
X124163338Y-126886732D01*
X124183023Y-126819693D01*
X124183024Y-126819689D01*
X124203500Y-126677273D01*
X124203500Y-126409243D01*
X124223185Y-126342204D01*
X124275989Y-126296449D01*
X124345147Y-126286505D01*
X124408703Y-126315530D01*
X124411837Y-126318340D01*
X124572521Y-126467433D01*
X124789296Y-126615228D01*
X124789301Y-126615230D01*
X124789302Y-126615231D01*
X124789303Y-126615232D01*
X124914843Y-126675688D01*
X125025673Y-126729061D01*
X125025674Y-126729061D01*
X125025677Y-126729063D01*
X125276385Y-126806396D01*
X125535818Y-126845500D01*
X125798182Y-126845500D01*
X126057615Y-126806396D01*
X126308323Y-126729063D01*
X126544704Y-126615228D01*
X126761479Y-126467433D01*
X126925192Y-126315530D01*
X126953801Y-126288985D01*
X126953801Y-126288983D01*
X126953805Y-126288981D01*
X127117386Y-126083857D01*
X127248568Y-125856643D01*
X127344420Y-125612416D01*
X127402802Y-125356630D01*
X127402803Y-125356620D01*
X127422408Y-125095004D01*
X127422408Y-125094995D01*
X127911592Y-125094995D01*
X127911592Y-125095004D01*
X127931196Y-125356620D01*
X127931197Y-125356625D01*
X127989576Y-125612402D01*
X127989578Y-125612411D01*
X127989580Y-125612416D01*
X128085432Y-125856643D01*
X128216614Y-126083857D01*
X128284102Y-126168484D01*
X128380198Y-126288985D01*
X128531112Y-126429011D01*
X128572521Y-126467433D01*
X128789296Y-126615228D01*
X128789301Y-126615230D01*
X128789302Y-126615231D01*
X128789303Y-126615232D01*
X128914843Y-126675688D01*
X129025673Y-126729061D01*
X129025674Y-126729061D01*
X129025677Y-126729063D01*
X129276385Y-126806396D01*
X129535818Y-126845500D01*
X129798182Y-126845500D01*
X130057615Y-126806396D01*
X130308323Y-126729063D01*
X130544704Y-126615228D01*
X130761479Y-126467433D01*
X130925192Y-126315530D01*
X130953801Y-126288985D01*
X130953801Y-126288983D01*
X130953805Y-126288981D01*
X131117386Y-126083857D01*
X131248568Y-125856643D01*
X131344420Y-125612416D01*
X131402802Y-125356630D01*
X131402803Y-125356620D01*
X131422408Y-125095004D01*
X131422408Y-125094995D01*
X131911592Y-125094995D01*
X131911592Y-125095004D01*
X131931196Y-125356620D01*
X131931197Y-125356625D01*
X131989576Y-125612402D01*
X131989578Y-125612411D01*
X131989580Y-125612416D01*
X132085432Y-125856643D01*
X132216614Y-126083857D01*
X132284102Y-126168484D01*
X132380198Y-126288985D01*
X132531112Y-126429011D01*
X132572521Y-126467433D01*
X132789296Y-126615228D01*
X132789301Y-126615230D01*
X132789302Y-126615231D01*
X132789303Y-126615232D01*
X132914843Y-126675688D01*
X133025673Y-126729061D01*
X133025674Y-126729061D01*
X133025677Y-126729063D01*
X133276385Y-126806396D01*
X133535818Y-126845500D01*
X133798182Y-126845500D01*
X134057615Y-126806396D01*
X134308323Y-126729063D01*
X134544704Y-126615228D01*
X134761479Y-126467433D01*
X134925192Y-126315530D01*
X134953801Y-126288985D01*
X134953801Y-126288983D01*
X134953805Y-126288981D01*
X135117386Y-126083857D01*
X135248568Y-125856643D01*
X135344420Y-125612416D01*
X135402802Y-125356630D01*
X135402803Y-125356620D01*
X135422408Y-125095004D01*
X135422408Y-125094995D01*
X135911592Y-125094995D01*
X135911592Y-125095004D01*
X135931196Y-125356620D01*
X135931197Y-125356625D01*
X135989576Y-125612402D01*
X135989578Y-125612411D01*
X135989580Y-125612416D01*
X136085432Y-125856643D01*
X136216614Y-126083857D01*
X136284102Y-126168484D01*
X136380198Y-126288985D01*
X136531112Y-126429011D01*
X136572521Y-126467433D01*
X136789296Y-126615228D01*
X136789301Y-126615230D01*
X136789302Y-126615231D01*
X136789303Y-126615232D01*
X136914843Y-126675688D01*
X137025673Y-126729061D01*
X137025674Y-126729061D01*
X137025677Y-126729063D01*
X137276385Y-126806396D01*
X137535818Y-126845500D01*
X137798182Y-126845500D01*
X138057615Y-126806396D01*
X138308323Y-126729063D01*
X138544704Y-126615228D01*
X138761479Y-126467433D01*
X138925192Y-126315530D01*
X138953801Y-126288985D01*
X138953801Y-126288983D01*
X138953805Y-126288981D01*
X139117386Y-126083857D01*
X139248568Y-125856643D01*
X139344420Y-125612416D01*
X139402802Y-125356630D01*
X139402803Y-125356620D01*
X139422408Y-125095004D01*
X139422408Y-125094995D01*
X139911592Y-125094995D01*
X139911592Y-125095004D01*
X139931196Y-125356620D01*
X139931197Y-125356625D01*
X139989576Y-125612402D01*
X139989578Y-125612411D01*
X139989580Y-125612416D01*
X140085432Y-125856643D01*
X140216614Y-126083857D01*
X140284102Y-126168484D01*
X140380198Y-126288985D01*
X140531112Y-126429011D01*
X140572521Y-126467433D01*
X140789296Y-126615228D01*
X140789301Y-126615230D01*
X140789302Y-126615231D01*
X140789303Y-126615232D01*
X140914843Y-126675688D01*
X141025673Y-126729061D01*
X141025674Y-126729061D01*
X141025677Y-126729063D01*
X141276385Y-126806396D01*
X141535818Y-126845500D01*
X141798182Y-126845500D01*
X142057615Y-126806396D01*
X142308323Y-126729063D01*
X142544704Y-126615228D01*
X142761479Y-126467433D01*
X142925192Y-126315530D01*
X142953801Y-126288985D01*
X142953801Y-126288983D01*
X142953805Y-126288981D01*
X143117386Y-126083857D01*
X143248568Y-125856643D01*
X143344420Y-125612416D01*
X143402802Y-125356630D01*
X143402803Y-125356620D01*
X143422408Y-125095004D01*
X143422408Y-125094995D01*
X143911592Y-125094995D01*
X143911592Y-125095004D01*
X143931196Y-125356620D01*
X143931197Y-125356625D01*
X143989576Y-125612402D01*
X143989578Y-125612411D01*
X143989580Y-125612416D01*
X144085432Y-125856643D01*
X144216614Y-126083857D01*
X144284102Y-126168484D01*
X144380198Y-126288985D01*
X144531112Y-126429011D01*
X144572521Y-126467433D01*
X144789296Y-126615228D01*
X144789301Y-126615230D01*
X144789302Y-126615231D01*
X144789303Y-126615232D01*
X144914843Y-126675688D01*
X145025673Y-126729061D01*
X145025674Y-126729061D01*
X145025677Y-126729063D01*
X145276385Y-126806396D01*
X145535818Y-126845500D01*
X145798182Y-126845500D01*
X146057615Y-126806396D01*
X146308323Y-126729063D01*
X146544704Y-126615228D01*
X146761479Y-126467433D01*
X146925192Y-126315530D01*
X146953801Y-126288985D01*
X146953801Y-126288983D01*
X146953805Y-126288981D01*
X147117386Y-126083857D01*
X147248568Y-125856643D01*
X147344420Y-125612416D01*
X147402802Y-125356630D01*
X147402803Y-125356620D01*
X147422408Y-125095004D01*
X147422408Y-125094995D01*
X147911592Y-125094995D01*
X147911592Y-125095004D01*
X147931196Y-125356620D01*
X147931197Y-125356625D01*
X147989576Y-125612402D01*
X147989578Y-125612411D01*
X147989580Y-125612416D01*
X148085432Y-125856643D01*
X148216614Y-126083857D01*
X148284102Y-126168484D01*
X148380198Y-126288985D01*
X148531112Y-126429011D01*
X148572521Y-126467433D01*
X148789296Y-126615228D01*
X148789301Y-126615230D01*
X148789302Y-126615231D01*
X148789303Y-126615232D01*
X148914843Y-126675688D01*
X149025673Y-126729061D01*
X149025674Y-126729061D01*
X149025677Y-126729063D01*
X149276385Y-126806396D01*
X149535818Y-126845500D01*
X149798182Y-126845500D01*
X150057615Y-126806396D01*
X150308323Y-126729063D01*
X150544704Y-126615228D01*
X150761479Y-126467433D01*
X150925192Y-126315530D01*
X150953801Y-126288985D01*
X150953801Y-126288983D01*
X150953805Y-126288981D01*
X151117386Y-126083857D01*
X151248568Y-125856643D01*
X151344420Y-125612416D01*
X151402802Y-125356630D01*
X151402803Y-125356620D01*
X151422408Y-125095004D01*
X151422408Y-125094995D01*
X151911592Y-125094995D01*
X151911592Y-125095004D01*
X151931196Y-125356620D01*
X151931197Y-125356625D01*
X151989576Y-125612402D01*
X151989578Y-125612411D01*
X151989580Y-125612416D01*
X152085432Y-125856643D01*
X152216614Y-126083857D01*
X152284102Y-126168484D01*
X152380198Y-126288985D01*
X152531112Y-126429011D01*
X152572521Y-126467433D01*
X152789296Y-126615228D01*
X152789301Y-126615230D01*
X152789302Y-126615231D01*
X152789303Y-126615232D01*
X152914843Y-126675688D01*
X153025673Y-126729061D01*
X153025674Y-126729061D01*
X153025677Y-126729063D01*
X153276385Y-126806396D01*
X153535818Y-126845500D01*
X153798182Y-126845500D01*
X154057615Y-126806396D01*
X154308323Y-126729063D01*
X154544704Y-126615228D01*
X154761479Y-126467433D01*
X154925192Y-126315530D01*
X154953801Y-126288985D01*
X154953801Y-126288983D01*
X154953805Y-126288981D01*
X155117386Y-126083857D01*
X155248568Y-125856643D01*
X155344420Y-125612416D01*
X155402802Y-125356630D01*
X155402803Y-125356620D01*
X155422408Y-125095004D01*
X155422408Y-125094995D01*
X155402803Y-124833379D01*
X155402802Y-124833374D01*
X155402802Y-124833370D01*
X155344420Y-124577584D01*
X155248568Y-124333357D01*
X155117386Y-124106143D01*
X154953805Y-123901019D01*
X154953804Y-123901018D01*
X154953801Y-123901014D01*
X154761479Y-123722567D01*
X154544704Y-123574772D01*
X154544700Y-123574770D01*
X154544697Y-123574768D01*
X154544696Y-123574767D01*
X154308325Y-123460938D01*
X154308327Y-123460938D01*
X154057623Y-123383606D01*
X154057619Y-123383605D01*
X154057615Y-123383604D01*
X153932823Y-123364794D01*
X153798187Y-123344500D01*
X153798182Y-123344500D01*
X153535818Y-123344500D01*
X153535812Y-123344500D01*
X153374247Y-123368853D01*
X153276385Y-123383604D01*
X153276382Y-123383605D01*
X153276376Y-123383606D01*
X153025673Y-123460938D01*
X152789303Y-123574767D01*
X152789302Y-123574768D01*
X152572520Y-123722567D01*
X152380198Y-123901014D01*
X152216614Y-124106143D01*
X152085432Y-124333356D01*
X151989582Y-124577578D01*
X151989576Y-124577597D01*
X151931197Y-124833374D01*
X151931196Y-124833379D01*
X151911592Y-125094995D01*
X151422408Y-125094995D01*
X151402803Y-124833379D01*
X151402802Y-124833374D01*
X151402802Y-124833370D01*
X151344420Y-124577584D01*
X151248568Y-124333357D01*
X151117386Y-124106143D01*
X150953805Y-123901019D01*
X150953804Y-123901018D01*
X150953801Y-123901014D01*
X150761479Y-123722567D01*
X150544704Y-123574772D01*
X150544700Y-123574770D01*
X150544697Y-123574768D01*
X150544696Y-123574767D01*
X150308325Y-123460938D01*
X150308327Y-123460938D01*
X150057623Y-123383606D01*
X150057619Y-123383605D01*
X150057615Y-123383604D01*
X149932823Y-123364794D01*
X149798187Y-123344500D01*
X149798182Y-123344500D01*
X149535818Y-123344500D01*
X149535812Y-123344500D01*
X149374247Y-123368853D01*
X149276385Y-123383604D01*
X149276382Y-123383605D01*
X149276376Y-123383606D01*
X149025673Y-123460938D01*
X148789303Y-123574767D01*
X148789302Y-123574768D01*
X148572520Y-123722567D01*
X148380198Y-123901014D01*
X148216614Y-124106143D01*
X148085432Y-124333356D01*
X147989582Y-124577578D01*
X147989576Y-124577597D01*
X147931197Y-124833374D01*
X147931196Y-124833379D01*
X147911592Y-125094995D01*
X147422408Y-125094995D01*
X147402803Y-124833379D01*
X147402802Y-124833374D01*
X147402802Y-124833370D01*
X147344420Y-124577584D01*
X147248568Y-124333357D01*
X147117386Y-124106143D01*
X146953805Y-123901019D01*
X146953804Y-123901018D01*
X146953801Y-123901014D01*
X146761479Y-123722567D01*
X146544704Y-123574772D01*
X146544700Y-123574770D01*
X146544697Y-123574768D01*
X146544696Y-123574767D01*
X146308325Y-123460938D01*
X146308327Y-123460938D01*
X146057623Y-123383606D01*
X146057619Y-123383605D01*
X146057615Y-123383604D01*
X145932823Y-123364794D01*
X145798187Y-123344500D01*
X145798182Y-123344500D01*
X145535818Y-123344500D01*
X145535812Y-123344500D01*
X145374247Y-123368853D01*
X145276385Y-123383604D01*
X145276382Y-123383605D01*
X145276376Y-123383606D01*
X145025673Y-123460938D01*
X144789303Y-123574767D01*
X144789302Y-123574768D01*
X144572520Y-123722567D01*
X144380198Y-123901014D01*
X144216614Y-124106143D01*
X144085432Y-124333356D01*
X143989582Y-124577578D01*
X143989576Y-124577597D01*
X143931197Y-124833374D01*
X143931196Y-124833379D01*
X143911592Y-125094995D01*
X143422408Y-125094995D01*
X143402803Y-124833379D01*
X143402802Y-124833374D01*
X143402802Y-124833370D01*
X143344420Y-124577584D01*
X143248568Y-124333357D01*
X143117386Y-124106143D01*
X142953805Y-123901019D01*
X142953804Y-123901018D01*
X142953801Y-123901014D01*
X142761479Y-123722567D01*
X142544704Y-123574772D01*
X142544700Y-123574770D01*
X142544697Y-123574768D01*
X142544696Y-123574767D01*
X142308325Y-123460938D01*
X142308327Y-123460938D01*
X142057623Y-123383606D01*
X142057619Y-123383605D01*
X142057615Y-123383604D01*
X141932823Y-123364794D01*
X141798187Y-123344500D01*
X141798182Y-123344500D01*
X141535818Y-123344500D01*
X141535812Y-123344500D01*
X141374247Y-123368853D01*
X141276385Y-123383604D01*
X141276382Y-123383605D01*
X141276376Y-123383606D01*
X141025673Y-123460938D01*
X140789303Y-123574767D01*
X140789302Y-123574768D01*
X140572520Y-123722567D01*
X140380198Y-123901014D01*
X140216614Y-124106143D01*
X140085432Y-124333356D01*
X139989582Y-124577578D01*
X139989576Y-124577597D01*
X139931197Y-124833374D01*
X139931196Y-124833379D01*
X139911592Y-125094995D01*
X139422408Y-125094995D01*
X139402803Y-124833379D01*
X139402802Y-124833374D01*
X139402802Y-124833370D01*
X139344420Y-124577584D01*
X139248568Y-124333357D01*
X139117386Y-124106143D01*
X138953805Y-123901019D01*
X138953804Y-123901018D01*
X138953801Y-123901014D01*
X138761479Y-123722567D01*
X138544704Y-123574772D01*
X138544700Y-123574770D01*
X138544697Y-123574768D01*
X138544696Y-123574767D01*
X138308325Y-123460938D01*
X138308327Y-123460938D01*
X138057623Y-123383606D01*
X138057619Y-123383605D01*
X138057615Y-123383604D01*
X137932823Y-123364794D01*
X137798187Y-123344500D01*
X137798182Y-123344500D01*
X137535818Y-123344500D01*
X137535812Y-123344500D01*
X137374247Y-123368853D01*
X137276385Y-123383604D01*
X137276382Y-123383605D01*
X137276376Y-123383606D01*
X137025673Y-123460938D01*
X136789303Y-123574767D01*
X136789302Y-123574768D01*
X136572520Y-123722567D01*
X136380198Y-123901014D01*
X136216614Y-124106143D01*
X136085432Y-124333356D01*
X135989582Y-124577578D01*
X135989576Y-124577597D01*
X135931197Y-124833374D01*
X135931196Y-124833379D01*
X135911592Y-125094995D01*
X135422408Y-125094995D01*
X135402803Y-124833379D01*
X135402802Y-124833374D01*
X135402802Y-124833370D01*
X135344420Y-124577584D01*
X135248568Y-124333357D01*
X135117386Y-124106143D01*
X134953805Y-123901019D01*
X134953804Y-123901018D01*
X134953801Y-123901014D01*
X134761479Y-123722567D01*
X134544704Y-123574772D01*
X134544700Y-123574770D01*
X134544697Y-123574768D01*
X134544696Y-123574767D01*
X134308325Y-123460938D01*
X134308327Y-123460938D01*
X134057623Y-123383606D01*
X134057619Y-123383605D01*
X134057615Y-123383604D01*
X133932823Y-123364794D01*
X133798187Y-123344500D01*
X133798182Y-123344500D01*
X133535818Y-123344500D01*
X133535812Y-123344500D01*
X133374247Y-123368853D01*
X133276385Y-123383604D01*
X133276382Y-123383605D01*
X133276376Y-123383606D01*
X133025673Y-123460938D01*
X132789303Y-123574767D01*
X132789302Y-123574768D01*
X132572520Y-123722567D01*
X132380198Y-123901014D01*
X132216614Y-124106143D01*
X132085432Y-124333356D01*
X131989582Y-124577578D01*
X131989576Y-124577597D01*
X131931197Y-124833374D01*
X131931196Y-124833379D01*
X131911592Y-125094995D01*
X131422408Y-125094995D01*
X131402803Y-124833379D01*
X131402802Y-124833374D01*
X131402802Y-124833370D01*
X131344420Y-124577584D01*
X131248568Y-124333357D01*
X131117386Y-124106143D01*
X130953805Y-123901019D01*
X130953804Y-123901018D01*
X130953801Y-123901014D01*
X130761479Y-123722567D01*
X130544704Y-123574772D01*
X130544700Y-123574770D01*
X130544697Y-123574768D01*
X130544696Y-123574767D01*
X130308325Y-123460938D01*
X130308327Y-123460938D01*
X130057623Y-123383606D01*
X130057619Y-123383605D01*
X130057615Y-123383604D01*
X129932823Y-123364794D01*
X129798187Y-123344500D01*
X129798182Y-123344500D01*
X129535818Y-123344500D01*
X129535812Y-123344500D01*
X129374247Y-123368853D01*
X129276385Y-123383604D01*
X129276382Y-123383605D01*
X129276376Y-123383606D01*
X129025673Y-123460938D01*
X128789303Y-123574767D01*
X128789302Y-123574768D01*
X128572520Y-123722567D01*
X128380198Y-123901014D01*
X128216614Y-124106143D01*
X128085432Y-124333356D01*
X127989582Y-124577578D01*
X127989576Y-124577597D01*
X127931197Y-124833374D01*
X127931196Y-124833379D01*
X127911592Y-125094995D01*
X127422408Y-125094995D01*
X127402803Y-124833379D01*
X127402802Y-124833374D01*
X127402802Y-124833370D01*
X127344420Y-124577584D01*
X127248568Y-124333357D01*
X127117386Y-124106143D01*
X126953805Y-123901019D01*
X126953804Y-123901018D01*
X126953801Y-123901014D01*
X126761479Y-123722567D01*
X126544704Y-123574772D01*
X126544700Y-123574770D01*
X126544697Y-123574768D01*
X126544696Y-123574767D01*
X126308325Y-123460938D01*
X126308327Y-123460938D01*
X126057623Y-123383606D01*
X126057619Y-123383605D01*
X126057615Y-123383604D01*
X125932823Y-123364794D01*
X125798187Y-123344500D01*
X125798182Y-123344500D01*
X125535818Y-123344500D01*
X125535812Y-123344500D01*
X125374247Y-123368853D01*
X125276385Y-123383604D01*
X125276382Y-123383605D01*
X125276376Y-123383606D01*
X125025673Y-123460938D01*
X124789303Y-123574767D01*
X124789302Y-123574768D01*
X124572520Y-123722567D01*
X124411841Y-123871655D01*
X124349308Y-123902823D01*
X124279852Y-123895236D01*
X124225523Y-123851302D01*
X124203572Y-123784970D01*
X124203500Y-123780756D01*
X124203500Y-123055570D01*
X124223185Y-122988531D01*
X124275989Y-122942776D01*
X124327116Y-122931571D01*
X164977931Y-122806877D01*
X165084589Y-122795161D01*
X165135720Y-122783956D01*
X165200252Y-122762422D01*
X165270075Y-122759877D01*
X165330191Y-122795483D01*
X165361513Y-122857939D01*
X165363500Y-122880048D01*
X165363500Y-124276547D01*
X165343815Y-124343586D01*
X165327181Y-124364228D01*
X163226229Y-126465181D01*
X163164906Y-126498666D01*
X163138548Y-126501500D01*
X163040712Y-126501500D01*
X162973673Y-126481815D01*
X162927918Y-126429011D01*
X162917974Y-126359853D01*
X162946999Y-126296297D01*
X162950710Y-126292456D01*
X162950641Y-126292392D01*
X162953799Y-126288987D01*
X162953800Y-126288985D01*
X162953805Y-126288981D01*
X163117386Y-126083857D01*
X163248568Y-125856643D01*
X163344420Y-125612416D01*
X163402802Y-125356630D01*
X163402803Y-125356620D01*
X163422408Y-125095004D01*
X163422408Y-125094995D01*
X163402803Y-124833379D01*
X163402802Y-124833374D01*
X163402802Y-124833370D01*
X163344420Y-124577584D01*
X163248568Y-124333357D01*
X163117386Y-124106143D01*
X162953805Y-123901019D01*
X162953804Y-123901018D01*
X162953801Y-123901014D01*
X162761479Y-123722567D01*
X162544704Y-123574772D01*
X162544700Y-123574770D01*
X162544697Y-123574768D01*
X162544696Y-123574767D01*
X162308325Y-123460938D01*
X162308327Y-123460938D01*
X162057623Y-123383606D01*
X162057619Y-123383605D01*
X162057615Y-123383604D01*
X161932823Y-123364794D01*
X161798187Y-123344500D01*
X161798182Y-123344500D01*
X161535818Y-123344500D01*
X161535812Y-123344500D01*
X161374247Y-123368853D01*
X161276385Y-123383604D01*
X161276382Y-123383605D01*
X161276376Y-123383606D01*
X161025673Y-123460938D01*
X160789303Y-123574767D01*
X160789302Y-123574768D01*
X160572520Y-123722567D01*
X160380198Y-123901014D01*
X160216614Y-124106143D01*
X160085432Y-124333356D01*
X159989582Y-124577578D01*
X159989576Y-124577597D01*
X159931197Y-124833374D01*
X159931196Y-124833379D01*
X159911592Y-125094995D01*
X159911592Y-125095004D01*
X159931196Y-125356620D01*
X159931197Y-125356625D01*
X159989576Y-125612402D01*
X159989578Y-125612411D01*
X159989580Y-125612416D01*
X160085432Y-125856643D01*
X160216614Y-126083857D01*
X160380195Y-126288981D01*
X160380200Y-126288987D01*
X160383359Y-126292392D01*
X160381893Y-126293751D01*
X160413390Y-126346653D01*
X160411001Y-126416482D01*
X160371239Y-126473934D01*
X160306728Y-126500769D01*
X160293288Y-126501500D01*
X159040712Y-126501500D01*
X158973673Y-126481815D01*
X158927918Y-126429011D01*
X158917974Y-126359853D01*
X158946999Y-126296297D01*
X158950710Y-126292456D01*
X158950641Y-126292392D01*
X158953799Y-126288987D01*
X158953800Y-126288985D01*
X158953805Y-126288981D01*
X159117386Y-126083857D01*
X159248568Y-125856643D01*
X159344420Y-125612416D01*
X159402802Y-125356630D01*
X159402803Y-125356620D01*
X159422408Y-125095004D01*
X159422408Y-125094995D01*
X159402803Y-124833379D01*
X159402802Y-124833374D01*
X159402802Y-124833370D01*
X159344420Y-124577584D01*
X159248568Y-124333357D01*
X159117386Y-124106143D01*
X158953805Y-123901019D01*
X158953804Y-123901018D01*
X158953801Y-123901014D01*
X158761479Y-123722567D01*
X158544704Y-123574772D01*
X158544700Y-123574770D01*
X158544697Y-123574768D01*
X158544696Y-123574767D01*
X158308325Y-123460938D01*
X158308327Y-123460938D01*
X158057623Y-123383606D01*
X158057619Y-123383605D01*
X158057615Y-123383604D01*
X157932823Y-123364794D01*
X157798187Y-123344500D01*
X157798182Y-123344500D01*
X157535818Y-123344500D01*
X157535812Y-123344500D01*
X157374247Y-123368853D01*
X157276385Y-123383604D01*
X157276382Y-123383605D01*
X157276376Y-123383606D01*
X157025673Y-123460938D01*
X156789303Y-123574767D01*
X156789302Y-123574768D01*
X156572520Y-123722567D01*
X156380198Y-123901014D01*
X156216614Y-124106143D01*
X156085432Y-124333356D01*
X155989582Y-124577578D01*
X155989576Y-124577597D01*
X155931197Y-124833374D01*
X155931196Y-124833379D01*
X155911592Y-125094995D01*
X155911592Y-125095004D01*
X155931196Y-125356620D01*
X155931197Y-125356625D01*
X155989576Y-125612402D01*
X155989578Y-125612411D01*
X155989580Y-125612416D01*
X156085432Y-125856643D01*
X156216614Y-126083857D01*
X156284102Y-126168484D01*
X156380198Y-126288985D01*
X156531112Y-126429011D01*
X156572521Y-126467433D01*
X156789296Y-126615228D01*
X156789301Y-126615230D01*
X156789302Y-126615231D01*
X156789303Y-126615232D01*
X156951018Y-126693109D01*
X157002878Y-126739931D01*
X157021191Y-126807358D01*
X157000143Y-126873982D01*
X156984898Y-126892510D01*
X156443397Y-127434011D01*
X156382074Y-127467496D01*
X156312382Y-127462512D01*
X156310410Y-127461757D01*
X156308320Y-127460936D01*
X156057623Y-127383606D01*
X156057619Y-127383605D01*
X156057615Y-127383604D01*
X155932823Y-127364794D01*
X155798187Y-127344500D01*
X155798182Y-127344500D01*
X155535818Y-127344500D01*
X155535812Y-127344500D01*
X155374247Y-127368853D01*
X155276385Y-127383604D01*
X155276382Y-127383605D01*
X155276376Y-127383606D01*
X155025673Y-127460938D01*
X154789303Y-127574767D01*
X154789302Y-127574768D01*
X154572520Y-127722567D01*
X154380198Y-127901014D01*
X154216614Y-128106143D01*
X154085432Y-128333356D01*
X153989582Y-128577578D01*
X153989576Y-128577597D01*
X153931197Y-128833374D01*
X153931196Y-128833379D01*
X153911592Y-129094995D01*
X153911592Y-129095004D01*
X153931196Y-129356620D01*
X153931197Y-129356625D01*
X153989576Y-129612402D01*
X153989578Y-129612411D01*
X153989580Y-129612416D01*
X154085432Y-129856643D01*
X154216613Y-130083856D01*
X154218934Y-130087875D01*
X154217780Y-130088540D01*
X154237450Y-130149369D01*
X154219593Y-130216918D01*
X154168050Y-130264089D01*
X154113496Y-130276734D01*
X153220504Y-130276734D01*
X153153465Y-130257049D01*
X153107710Y-130204245D01*
X153097766Y-130135087D01*
X153115918Y-130088367D01*
X153115066Y-130087875D01*
X153117386Y-130083857D01*
X153248568Y-129856643D01*
X153344420Y-129612416D01*
X153402802Y-129356630D01*
X153402803Y-129356620D01*
X153422408Y-129095004D01*
X153422408Y-129094995D01*
X153402803Y-128833379D01*
X153402802Y-128833374D01*
X153402802Y-128833370D01*
X153344420Y-128577584D01*
X153248568Y-128333357D01*
X153117386Y-128106143D01*
X152953805Y-127901019D01*
X152953804Y-127901018D01*
X152953801Y-127901014D01*
X152761479Y-127722567D01*
X152700969Y-127681312D01*
X152544704Y-127574772D01*
X152544700Y-127574770D01*
X152544697Y-127574768D01*
X152544696Y-127574767D01*
X152315680Y-127464480D01*
X152308325Y-127460938D01*
X152308327Y-127460938D01*
X152057623Y-127383606D01*
X152057619Y-127383605D01*
X152057615Y-127383604D01*
X151932823Y-127364794D01*
X151798187Y-127344500D01*
X151798182Y-127344500D01*
X151535818Y-127344500D01*
X151535812Y-127344500D01*
X151374247Y-127368853D01*
X151276385Y-127383604D01*
X151276382Y-127383605D01*
X151276376Y-127383606D01*
X151025673Y-127460938D01*
X150789303Y-127574767D01*
X150789302Y-127574768D01*
X150572520Y-127722567D01*
X150380198Y-127901014D01*
X150216614Y-128106143D01*
X150085432Y-128333356D01*
X149989582Y-128577578D01*
X149989576Y-128577597D01*
X149931197Y-128833374D01*
X149931196Y-128833379D01*
X149911592Y-129094995D01*
X149911592Y-129095004D01*
X149931196Y-129356620D01*
X149931197Y-129356625D01*
X149989576Y-129612402D01*
X149989578Y-129612411D01*
X149989580Y-129612416D01*
X150085432Y-129856643D01*
X150216613Y-130083856D01*
X150218934Y-130087875D01*
X150217780Y-130088540D01*
X150237450Y-130149369D01*
X150219593Y-130216918D01*
X150168050Y-130264089D01*
X150113496Y-130276734D01*
X149784686Y-130276734D01*
X149717647Y-130257049D01*
X149697005Y-130240415D01*
X149324201Y-129867611D01*
X149290716Y-129806288D01*
X149295700Y-129736596D01*
X149296403Y-129734758D01*
X149344420Y-129612416D01*
X149402802Y-129356630D01*
X149402803Y-129356620D01*
X149422408Y-129095004D01*
X149422408Y-129094995D01*
X149402803Y-128833379D01*
X149402802Y-128833374D01*
X149402802Y-128833370D01*
X149344420Y-128577584D01*
X149248568Y-128333357D01*
X149117386Y-128106143D01*
X148953805Y-127901019D01*
X148953804Y-127901018D01*
X148953801Y-127901014D01*
X148761479Y-127722567D01*
X148700969Y-127681312D01*
X148544704Y-127574772D01*
X148544700Y-127574770D01*
X148544697Y-127574768D01*
X148544696Y-127574767D01*
X148315680Y-127464480D01*
X148308325Y-127460938D01*
X148308327Y-127460938D01*
X148057623Y-127383606D01*
X148057619Y-127383605D01*
X148057615Y-127383604D01*
X147932823Y-127364794D01*
X147798187Y-127344500D01*
X147798182Y-127344500D01*
X147535818Y-127344500D01*
X147535812Y-127344500D01*
X147374247Y-127368853D01*
X147276385Y-127383604D01*
X147276382Y-127383605D01*
X147276376Y-127383606D01*
X147025673Y-127460938D01*
X146789303Y-127574767D01*
X146789302Y-127574768D01*
X146572520Y-127722567D01*
X146380198Y-127901014D01*
X146216614Y-128106143D01*
X146085432Y-128333356D01*
X145989582Y-128577578D01*
X145989576Y-128577597D01*
X145931197Y-128833374D01*
X145931196Y-128833379D01*
X145911592Y-129094995D01*
X145911592Y-129095004D01*
X145931196Y-129356620D01*
X145931197Y-129356625D01*
X145989576Y-129612402D01*
X145989578Y-129612411D01*
X145989580Y-129612416D01*
X146085432Y-129856643D01*
X146216614Y-130083857D01*
X146282420Y-130166375D01*
X146380198Y-130288985D01*
X146490134Y-130390989D01*
X146572521Y-130467433D01*
X146620699Y-130500280D01*
X146665001Y-130554309D01*
X146673061Y-130623712D01*
X146642318Y-130686455D01*
X146582534Y-130722617D01*
X146550848Y-130726734D01*
X146234686Y-130726734D01*
X146167647Y-130707049D01*
X146147005Y-130690415D01*
X145324201Y-129867611D01*
X145290716Y-129806288D01*
X145295700Y-129736596D01*
X145296403Y-129734758D01*
X145344420Y-129612416D01*
X145402802Y-129356630D01*
X145402803Y-129356620D01*
X145422408Y-129095004D01*
X145422408Y-129094995D01*
X145402803Y-128833379D01*
X145402802Y-128833374D01*
X145402802Y-128833370D01*
X145344420Y-128577584D01*
X145248568Y-128333357D01*
X145117386Y-128106143D01*
X144953805Y-127901019D01*
X144953804Y-127901018D01*
X144953801Y-127901014D01*
X144761479Y-127722567D01*
X144700969Y-127681312D01*
X144544704Y-127574772D01*
X144544700Y-127574770D01*
X144544697Y-127574768D01*
X144544696Y-127574767D01*
X144315680Y-127464480D01*
X144308325Y-127460938D01*
X144308327Y-127460938D01*
X144057623Y-127383606D01*
X144057619Y-127383605D01*
X144057615Y-127383604D01*
X143932823Y-127364794D01*
X143798187Y-127344500D01*
X143798182Y-127344500D01*
X143535818Y-127344500D01*
X143535812Y-127344500D01*
X143374247Y-127368853D01*
X143276385Y-127383604D01*
X143276382Y-127383605D01*
X143276376Y-127383606D01*
X143025673Y-127460938D01*
X142789303Y-127574767D01*
X142789302Y-127574768D01*
X142572520Y-127722567D01*
X142380198Y-127901014D01*
X142216614Y-128106143D01*
X142085432Y-128333356D01*
X141989582Y-128577578D01*
X141989576Y-128577597D01*
X141931197Y-128833374D01*
X141931196Y-128833379D01*
X141911592Y-129094995D01*
X141911592Y-129095004D01*
X141931196Y-129356620D01*
X141931197Y-129356625D01*
X141989576Y-129612402D01*
X141989578Y-129612411D01*
X141989580Y-129612416D01*
X142085432Y-129856643D01*
X142216614Y-130083857D01*
X142282420Y-130166375D01*
X142380198Y-130288985D01*
X142535964Y-130433513D01*
X142572521Y-130467433D01*
X142789296Y-130615228D01*
X142789301Y-130615230D01*
X142789302Y-130615231D01*
X142789303Y-130615232D01*
X142914843Y-130675688D01*
X143025673Y-130729061D01*
X143025674Y-130729061D01*
X143025677Y-130729063D01*
X143276385Y-130806396D01*
X143535818Y-130845500D01*
X143798182Y-130845500D01*
X144057615Y-130806396D01*
X144308323Y-130729063D01*
X144308350Y-130729049D01*
X144310395Y-130728248D01*
X144311194Y-130728177D01*
X144312757Y-130727695D01*
X144312860Y-130728029D01*
X144379991Y-130722068D01*
X144441880Y-130754495D01*
X144443398Y-130755988D01*
X144984899Y-131297489D01*
X145018384Y-131358812D01*
X145013400Y-131428504D01*
X144971528Y-131484437D01*
X144951019Y-131496890D01*
X144789304Y-131574767D01*
X144789302Y-131574768D01*
X144572520Y-131722567D01*
X144380198Y-131901014D01*
X144216614Y-132106143D01*
X144085432Y-132333356D01*
X143989582Y-132577578D01*
X143989576Y-132577597D01*
X143931197Y-132833374D01*
X143931196Y-132833379D01*
X143911592Y-133094995D01*
X143911592Y-133095004D01*
X143931196Y-133356620D01*
X143931197Y-133356625D01*
X143989576Y-133612402D01*
X143989579Y-133612410D01*
X143989580Y-133612416D01*
X144085432Y-133856643D01*
X144216614Y-134083857D01*
X144348736Y-134249533D01*
X144380198Y-134288985D01*
X144509807Y-134409243D01*
X144572521Y-134467433D01*
X144789296Y-134615228D01*
X144789301Y-134615230D01*
X144789302Y-134615231D01*
X144789303Y-134615232D01*
X144914843Y-134675688D01*
X145025673Y-134729061D01*
X145025674Y-134729061D01*
X145025677Y-134729063D01*
X145276385Y-134806396D01*
X145535818Y-134845500D01*
X145798182Y-134845500D01*
X146057615Y-134806396D01*
X146308323Y-134729063D01*
X146544704Y-134615228D01*
X146761479Y-134467433D01*
X146925192Y-134315530D01*
X146953801Y-134288985D01*
X146953801Y-134288983D01*
X146953805Y-134288981D01*
X147117386Y-134083857D01*
X147248568Y-133856643D01*
X147344420Y-133612416D01*
X147402802Y-133356630D01*
X147422408Y-133095000D01*
X147402802Y-132833370D01*
X147344420Y-132577584D01*
X147248568Y-132333357D01*
X147248567Y-132333356D01*
X147248568Y-132333356D01*
X147150636Y-132163734D01*
X147134163Y-132095834D01*
X147157015Y-132029807D01*
X147211937Y-131986616D01*
X147258023Y-131977734D01*
X148075977Y-131977734D01*
X148143016Y-131997419D01*
X148188771Y-132050223D01*
X148198715Y-132119381D01*
X148183364Y-132163734D01*
X148085432Y-132333356D01*
X147989582Y-132577578D01*
X147989576Y-132577597D01*
X147931197Y-132833374D01*
X147931196Y-132833379D01*
X147911592Y-133094995D01*
X147911592Y-133095004D01*
X147931196Y-133356620D01*
X147931197Y-133356625D01*
X147989576Y-133612402D01*
X147989579Y-133612410D01*
X147989580Y-133612416D01*
X148085432Y-133856643D01*
X148216614Y-134083857D01*
X148348736Y-134249533D01*
X148380198Y-134288985D01*
X148509807Y-134409243D01*
X148572521Y-134467433D01*
X148789296Y-134615228D01*
X148789301Y-134615230D01*
X148789302Y-134615231D01*
X148789303Y-134615232D01*
X148914843Y-134675688D01*
X149025673Y-134729061D01*
X149025674Y-134729061D01*
X149025677Y-134729063D01*
X149276385Y-134806396D01*
X149535818Y-134845500D01*
X149798182Y-134845500D01*
X150057615Y-134806396D01*
X150308323Y-134729063D01*
X150544704Y-134615228D01*
X150761479Y-134467433D01*
X150925192Y-134315530D01*
X150953801Y-134288985D01*
X150953801Y-134288983D01*
X150953805Y-134288981D01*
X151117386Y-134083857D01*
X151248568Y-133856643D01*
X151344420Y-133612416D01*
X151402802Y-133356630D01*
X151422408Y-133095000D01*
X151402802Y-132833370D01*
X151344420Y-132577584D01*
X151248568Y-132333357D01*
X151248567Y-132333356D01*
X151248568Y-132333356D01*
X151150636Y-132163734D01*
X151134163Y-132095834D01*
X151157015Y-132029807D01*
X151211937Y-131986616D01*
X151258023Y-131977734D01*
X152075977Y-131977734D01*
X152143016Y-131997419D01*
X152188771Y-132050223D01*
X152198715Y-132119381D01*
X152183364Y-132163734D01*
X152085432Y-132333356D01*
X151989582Y-132577578D01*
X151989576Y-132577597D01*
X151931197Y-132833374D01*
X151931196Y-132833379D01*
X151911592Y-133094995D01*
X151911592Y-133095004D01*
X151931196Y-133356620D01*
X151931197Y-133356625D01*
X151989576Y-133612402D01*
X151989579Y-133612410D01*
X151989580Y-133612416D01*
X152085432Y-133856643D01*
X152216614Y-134083857D01*
X152348736Y-134249533D01*
X152380198Y-134288985D01*
X152509807Y-134409243D01*
X152572521Y-134467433D01*
X152789296Y-134615228D01*
X152789301Y-134615230D01*
X152789302Y-134615231D01*
X152789303Y-134615232D01*
X152914843Y-134675688D01*
X153025673Y-134729061D01*
X153025674Y-134729061D01*
X153025677Y-134729063D01*
X153276385Y-134806396D01*
X153535818Y-134845500D01*
X153798182Y-134845500D01*
X154057615Y-134806396D01*
X154308323Y-134729063D01*
X154544704Y-134615228D01*
X154761479Y-134467433D01*
X154925192Y-134315530D01*
X154953801Y-134288985D01*
X154953801Y-134288983D01*
X154953805Y-134288981D01*
X155117386Y-134083857D01*
X155248568Y-133856643D01*
X155344420Y-133612416D01*
X155402802Y-133356630D01*
X155422408Y-133095000D01*
X155402802Y-132833370D01*
X155344420Y-132577584D01*
X155248568Y-132333357D01*
X155248567Y-132333356D01*
X155248568Y-132333356D01*
X155150636Y-132163734D01*
X155134163Y-132095834D01*
X155157015Y-132029807D01*
X155211937Y-131986616D01*
X155258023Y-131977734D01*
X164126571Y-131977734D01*
X164186993Y-131965715D01*
X164247416Y-131953697D01*
X164289860Y-131936116D01*
X164361250Y-131906546D01*
X164431602Y-131859537D01*
X164463697Y-131838092D01*
X164550822Y-131750967D01*
X164550823Y-131750965D01*
X164557889Y-131743899D01*
X164557892Y-131743895D01*
X166654819Y-129646968D01*
X166716142Y-129613483D01*
X166785834Y-129618467D01*
X166841767Y-129660339D01*
X166866184Y-129725803D01*
X166866500Y-129734649D01*
X166866500Y-129747809D01*
X166866076Y-129758050D01*
X166861357Y-129814995D01*
X166861357Y-129815004D01*
X166866076Y-129871948D01*
X166866500Y-129882189D01*
X166866500Y-129933096D01*
X166875514Y-129990005D01*
X166876615Y-129999147D01*
X166880462Y-130045572D01*
X166881892Y-130062824D01*
X166894270Y-130111703D01*
X166896537Y-130122743D01*
X166903447Y-130166369D01*
X166923332Y-130227569D01*
X166925606Y-130235446D01*
X166942935Y-130303874D01*
X166942939Y-130303887D01*
X166960487Y-130343892D01*
X166964862Y-130355384D01*
X166976430Y-130390989D01*
X166976432Y-130390992D01*
X167008696Y-130454314D01*
X167011767Y-130460798D01*
X167042826Y-130531606D01*
X167042829Y-130531610D01*
X167063038Y-130562542D01*
X167069715Y-130574069D01*
X167083658Y-130601434D01*
X167083664Y-130601443D01*
X167129379Y-130664365D01*
X167132870Y-130669429D01*
X167171830Y-130729061D01*
X167178836Y-130739785D01*
X167199309Y-130762025D01*
X167208395Y-130773119D01*
X167222481Y-130792508D01*
X167282216Y-130852243D01*
X167285764Y-130855941D01*
X167347252Y-130922734D01*
X167347256Y-130922738D01*
X167365791Y-130937164D01*
X167377310Y-130947337D01*
X167389490Y-130959517D01*
X167389493Y-130959519D01*
X167463263Y-131013116D01*
X167466527Y-131015570D01*
X167543491Y-131075474D01*
X167558214Y-131083442D01*
X167572079Y-131092176D01*
X167580567Y-131098343D01*
X167667815Y-131142798D01*
X167670503Y-131144209D01*
X167762190Y-131193828D01*
X167771643Y-131197073D01*
X167787673Y-131203869D01*
X167791008Y-131205568D01*
X167791013Y-131205569D01*
X167791014Y-131205570D01*
X167890517Y-131237900D01*
X167892381Y-131238522D01*
X167997386Y-131274571D01*
X167998166Y-131274701D01*
X168000583Y-131275105D01*
X168010842Y-131277612D01*
X168010890Y-131277415D01*
X168015623Y-131278550D01*
X168015632Y-131278553D01*
X168082387Y-131289125D01*
X168125639Y-131295976D01*
X168126562Y-131296125D01*
X168242665Y-131315500D01*
X168242666Y-131315500D01*
X168491333Y-131315500D01*
X168491335Y-131315500D01*
X168607532Y-131296109D01*
X168608217Y-131295997D01*
X168718368Y-131278553D01*
X168718379Y-131278549D01*
X168723110Y-131277414D01*
X168723157Y-131277612D01*
X168733414Y-131275104D01*
X168736614Y-131274571D01*
X168841688Y-131238497D01*
X168843360Y-131237939D01*
X168942992Y-131205568D01*
X168946321Y-131203871D01*
X168962355Y-131197074D01*
X168964269Y-131196416D01*
X168971810Y-131193828D01*
X169063524Y-131144194D01*
X169066117Y-131142831D01*
X169153433Y-131098343D01*
X169161916Y-131092178D01*
X169175780Y-131083444D01*
X169190509Y-131075474D01*
X169267465Y-131015575D01*
X169270680Y-131013156D01*
X169344510Y-130959517D01*
X169356699Y-130947327D01*
X169368210Y-130937162D01*
X169386744Y-130922738D01*
X169448234Y-130855940D01*
X169451734Y-130852291D01*
X169511517Y-130792510D01*
X169525604Y-130773119D01*
X169534695Y-130762019D01*
X169540247Y-130755988D01*
X169555164Y-130739785D01*
X169601139Y-130669412D01*
X169604611Y-130664374D01*
X169650343Y-130601433D01*
X169664285Y-130574066D01*
X169670962Y-130562541D01*
X169691171Y-130531610D01*
X169691173Y-130531607D01*
X169722240Y-130460777D01*
X169725286Y-130454345D01*
X169757568Y-130390992D01*
X169769136Y-130355383D01*
X169773513Y-130343890D01*
X169783183Y-130321844D01*
X169791063Y-130303881D01*
X169808397Y-130235428D01*
X169810667Y-130227569D01*
X169830553Y-130166368D01*
X169837465Y-130122718D01*
X169839724Y-130111720D01*
X169852108Y-130062821D01*
X169857382Y-129999152D01*
X169858486Y-129989998D01*
X169867500Y-129933090D01*
X169867500Y-129882189D01*
X169867924Y-129871948D01*
X169872643Y-129815004D01*
X169872643Y-129814995D01*
X169867924Y-129758050D01*
X169867500Y-129747809D01*
X169867500Y-129696909D01*
X169867500Y-129696908D01*
X169858485Y-129639995D01*
X169857382Y-129630841D01*
X169855856Y-129612421D01*
X169852108Y-129567179D01*
X169839727Y-129518291D01*
X169837464Y-129507267D01*
X169835428Y-129494418D01*
X169830553Y-129463632D01*
X169810665Y-129402424D01*
X169808400Y-129394582D01*
X169791063Y-129326119D01*
X169773512Y-129286109D01*
X169769137Y-129274617D01*
X169757567Y-129239006D01*
X169757565Y-129239001D01*
X169725300Y-129175679D01*
X169722228Y-129169192D01*
X169691177Y-129098401D01*
X169691174Y-129098395D01*
X169691173Y-129098393D01*
X169670956Y-129067449D01*
X169664282Y-129055926D01*
X169650343Y-129028567D01*
X169604619Y-128965634D01*
X169601128Y-128960569D01*
X169555165Y-128890217D01*
X169555164Y-128890215D01*
X169534686Y-128867970D01*
X169525607Y-128856884D01*
X169525605Y-128856881D01*
X169511517Y-128837490D01*
X169451782Y-128777755D01*
X169448234Y-128774057D01*
X169386747Y-128707265D01*
X169386742Y-128707261D01*
X169368206Y-128692833D01*
X169356692Y-128682665D01*
X169344511Y-128670484D01*
X169344508Y-128670482D01*
X169270706Y-128616861D01*
X169267430Y-128614396D01*
X169190514Y-128554530D01*
X169190515Y-128554530D01*
X169190509Y-128554526D01*
X169190505Y-128554524D01*
X169190501Y-128554521D01*
X169175783Y-128546556D01*
X169161922Y-128537824D01*
X169153436Y-128531659D01*
X169153426Y-128531653D01*
X169066178Y-128487197D01*
X169063457Y-128485768D01*
X168971813Y-128436173D01*
X168971802Y-128436169D01*
X168962346Y-128432922D01*
X168946328Y-128426131D01*
X168942996Y-128424433D01*
X168868152Y-128400114D01*
X168843468Y-128392094D01*
X168841535Y-128391448D01*
X168736616Y-128355429D01*
X168733403Y-128354893D01*
X168723143Y-128352385D01*
X168723096Y-128352582D01*
X168718362Y-128351445D01*
X168608437Y-128334035D01*
X168607426Y-128333871D01*
X168491335Y-128314500D01*
X168286649Y-128314500D01*
X168219610Y-128294815D01*
X168173855Y-128242011D01*
X168163911Y-128172853D01*
X168192936Y-128109297D01*
X168198968Y-128102819D01*
X169010681Y-127291106D01*
X169943729Y-126358058D01*
X169943733Y-126358056D01*
X170030858Y-126270931D01*
X170099311Y-126168484D01*
X170146463Y-126054650D01*
X170170500Y-125933804D01*
X170170500Y-77279998D01*
X170146463Y-77159152D01*
X170099311Y-77045318D01*
X170099310Y-77045317D01*
X170099307Y-77045311D01*
X170030859Y-76942872D01*
X170030858Y-76942871D01*
X169943733Y-76855746D01*
X169943732Y-76855745D01*
X164890323Y-71802337D01*
X164890321Y-71802334D01*
X164890321Y-71802335D01*
X164883255Y-71795269D01*
X164883254Y-71795267D01*
X164796129Y-71708142D01*
X164726380Y-71661537D01*
X164726381Y-71661537D01*
X164726379Y-71661535D01*
X164693686Y-71639690D01*
X164693682Y-71639688D01*
X164693675Y-71639685D01*
X164613188Y-71606347D01*
X164579849Y-71592537D01*
X164569823Y-71590543D01*
X164519425Y-71580518D01*
X164459006Y-71568500D01*
X164459003Y-71568500D01*
X164459002Y-71568500D01*
X153552741Y-71568500D01*
X153552721Y-71568499D01*
X153546607Y-71568499D01*
X153423394Y-71568499D01*
X153322597Y-71588548D01*
X153322592Y-71588548D01*
X153302549Y-71592536D01*
X153302547Y-71592536D01*
X153255397Y-71612067D01*
X153188719Y-71639685D01*
X153188717Y-71639686D01*
X153086266Y-71708141D01*
X153086263Y-71708144D01*
X152579229Y-72215181D01*
X152517906Y-72248666D01*
X152491548Y-72251500D01*
X152432354Y-72251500D01*
X152399897Y-72258398D01*
X152247197Y-72290855D01*
X152247192Y-72290857D01*
X152074270Y-72367848D01*
X152074265Y-72367851D01*
X151921129Y-72479111D01*
X151794466Y-72619785D01*
X151699821Y-72783715D01*
X151699818Y-72783722D01*
X151650690Y-72934924D01*
X151641326Y-72963744D01*
X151621540Y-73152000D01*
X151641326Y-73340256D01*
X151641327Y-73340259D01*
X151699818Y-73520277D01*
X151699821Y-73520284D01*
X151794467Y-73684216D01*
X151875559Y-73774277D01*
X151921129Y-73824888D01*
X152074265Y-73936148D01*
X152074270Y-73936151D01*
X152247192Y-74013142D01*
X152247197Y-74013144D01*
X152432354Y-74052500D01*
X152432355Y-74052500D01*
X152621644Y-74052500D01*
X152621646Y-74052500D01*
X152806803Y-74013144D01*
X152979730Y-73936151D01*
X153132871Y-73824888D01*
X153259533Y-73684216D01*
X153354179Y-73520284D01*
X153412674Y-73340256D01*
X153430321Y-73172344D01*
X153456904Y-73107734D01*
X153465941Y-73097648D01*
X153707773Y-72855816D01*
X153769095Y-72822334D01*
X153795453Y-72819500D01*
X153931859Y-72819500D01*
X153998898Y-72839185D01*
X154044653Y-72891989D01*
X154054026Y-72957178D01*
X154055006Y-72957281D01*
X154054327Y-72963740D01*
X154054326Y-72963744D01*
X154034540Y-73152000D01*
X154054326Y-73340256D01*
X154054327Y-73340259D01*
X154112818Y-73520277D01*
X154112821Y-73520284D01*
X154207467Y-73684216D01*
X154288559Y-73774277D01*
X154334129Y-73824888D01*
X154487265Y-73936148D01*
X154487270Y-73936151D01*
X154660192Y-74013142D01*
X154660197Y-74013144D01*
X154845354Y-74052500D01*
X154845355Y-74052500D01*
X155034644Y-74052500D01*
X155034646Y-74052500D01*
X155219803Y-74013144D01*
X155392730Y-73936151D01*
X155545871Y-73824888D01*
X155672533Y-73684216D01*
X155767179Y-73520284D01*
X155820824Y-73355181D01*
X155860261Y-73297507D01*
X155924620Y-73270308D01*
X155938755Y-73269500D01*
X163900548Y-73269500D01*
X163967587Y-73289185D01*
X163988229Y-73305819D01*
X168433181Y-77750771D01*
X168466666Y-77812094D01*
X168469500Y-77838452D01*
X168469500Y-77995241D01*
X168449815Y-78062280D01*
X168397011Y-78108035D01*
X168327853Y-78117979D01*
X168264297Y-78088954D01*
X168257819Y-78082923D01*
X168237176Y-78062280D01*
X168130401Y-77955505D01*
X168130397Y-77955502D01*
X168130396Y-77955501D01*
X167936834Y-77819967D01*
X167936830Y-77819965D01*
X167919951Y-77812094D01*
X167722663Y-77720097D01*
X167722659Y-77720096D01*
X167722655Y-77720094D01*
X167494413Y-77658938D01*
X167494403Y-77658936D01*
X167259001Y-77638341D01*
X167258999Y-77638341D01*
X167023596Y-77658936D01*
X167023586Y-77658938D01*
X166795344Y-77720094D01*
X166795335Y-77720098D01*
X166581171Y-77819964D01*
X166581169Y-77819965D01*
X166387597Y-77955505D01*
X166220506Y-78122596D01*
X166120359Y-78265623D01*
X166065782Y-78309248D01*
X166018784Y-78318500D01*
X165959216Y-78318500D01*
X165892177Y-78298815D01*
X165857641Y-78265623D01*
X165757494Y-78122597D01*
X165590402Y-77955506D01*
X165590395Y-77955501D01*
X165396834Y-77819967D01*
X165396830Y-77819965D01*
X165379951Y-77812094D01*
X165182663Y-77720097D01*
X165182659Y-77720096D01*
X165182655Y-77720094D01*
X164954413Y-77658938D01*
X164954403Y-77658936D01*
X164719001Y-77638341D01*
X164718999Y-77638341D01*
X164483596Y-77658936D01*
X164483586Y-77658938D01*
X164255344Y-77720094D01*
X164255335Y-77720098D01*
X164041171Y-77819964D01*
X164041169Y-77819965D01*
X163847597Y-77955505D01*
X163680505Y-78122597D01*
X163550575Y-78308158D01*
X163495998Y-78351783D01*
X163426500Y-78358977D01*
X163364145Y-78327454D01*
X163347425Y-78308158D01*
X163217494Y-78122597D01*
X163050402Y-77955506D01*
X163050395Y-77955501D01*
X162856834Y-77819967D01*
X162856830Y-77819965D01*
X162839951Y-77812094D01*
X162642663Y-77720097D01*
X162642659Y-77720096D01*
X162642655Y-77720094D01*
X162414413Y-77658938D01*
X162414403Y-77658936D01*
X162179001Y-77638341D01*
X162178999Y-77638341D01*
X161943596Y-77658936D01*
X161943586Y-77658938D01*
X161715344Y-77720094D01*
X161715335Y-77720098D01*
X161501171Y-77819964D01*
X161501169Y-77819965D01*
X161307597Y-77955505D01*
X161140505Y-78122597D01*
X161010575Y-78308158D01*
X160955998Y-78351783D01*
X160886500Y-78358977D01*
X160824145Y-78327454D01*
X160807425Y-78308158D01*
X160677494Y-78122597D01*
X160510402Y-77955506D01*
X160510395Y-77955501D01*
X160316834Y-77819967D01*
X160316830Y-77819965D01*
X160299951Y-77812094D01*
X160102663Y-77720097D01*
X160102659Y-77720096D01*
X160102655Y-77720094D01*
X159874413Y-77658938D01*
X159874403Y-77658936D01*
X159639001Y-77638341D01*
X159638999Y-77638341D01*
X159403596Y-77658936D01*
X159403586Y-77658938D01*
X159175344Y-77720094D01*
X159175335Y-77720098D01*
X158961171Y-77819964D01*
X158961169Y-77819965D01*
X158767597Y-77955505D01*
X158600505Y-78122597D01*
X158470575Y-78308158D01*
X158415998Y-78351783D01*
X158346500Y-78358977D01*
X158284145Y-78327454D01*
X158267425Y-78308158D01*
X158137494Y-78122597D01*
X157970402Y-77955506D01*
X157970395Y-77955501D01*
X157776834Y-77819967D01*
X157776830Y-77819965D01*
X157759951Y-77812094D01*
X157562663Y-77720097D01*
X157562659Y-77720096D01*
X157562655Y-77720094D01*
X157334413Y-77658938D01*
X157334403Y-77658936D01*
X157099001Y-77638341D01*
X157098999Y-77638341D01*
X156863596Y-77658936D01*
X156863586Y-77658938D01*
X156635344Y-77720094D01*
X156635335Y-77720098D01*
X156421171Y-77819964D01*
X156421169Y-77819965D01*
X156227597Y-77955505D01*
X156060505Y-78122597D01*
X155930575Y-78308158D01*
X155875998Y-78351783D01*
X155806500Y-78358977D01*
X155744145Y-78327454D01*
X155727425Y-78308158D01*
X155597494Y-78122597D01*
X155430402Y-77955506D01*
X155430395Y-77955501D01*
X155236834Y-77819967D01*
X155236830Y-77819965D01*
X155219951Y-77812094D01*
X155022663Y-77720097D01*
X155022659Y-77720096D01*
X155022655Y-77720094D01*
X154794413Y-77658938D01*
X154794403Y-77658936D01*
X154559001Y-77638341D01*
X154558999Y-77638341D01*
X154323596Y-77658936D01*
X154323586Y-77658938D01*
X154095344Y-77720094D01*
X154095335Y-77720098D01*
X153881171Y-77819964D01*
X153881169Y-77819965D01*
X153687597Y-77955505D01*
X153520505Y-78122597D01*
X153390575Y-78308158D01*
X153335998Y-78351783D01*
X153266500Y-78358977D01*
X153204145Y-78327454D01*
X153187425Y-78308158D01*
X153057494Y-78122597D01*
X152890402Y-77955506D01*
X152890395Y-77955501D01*
X152696834Y-77819967D01*
X152696830Y-77819965D01*
X152679951Y-77812094D01*
X152482663Y-77720097D01*
X152482659Y-77720096D01*
X152482655Y-77720094D01*
X152254413Y-77658938D01*
X152254403Y-77658936D01*
X152019001Y-77638341D01*
X152018999Y-77638341D01*
X151783596Y-77658936D01*
X151783586Y-77658938D01*
X151555344Y-77720094D01*
X151555335Y-77720098D01*
X151341171Y-77819964D01*
X151341169Y-77819965D01*
X151147597Y-77955505D01*
X150980505Y-78122597D01*
X150850575Y-78308158D01*
X150795998Y-78351783D01*
X150726500Y-78358977D01*
X150664145Y-78327454D01*
X150647425Y-78308158D01*
X150517494Y-78122597D01*
X150350402Y-77955506D01*
X150350395Y-77955501D01*
X150156834Y-77819967D01*
X150156830Y-77819965D01*
X150139951Y-77812094D01*
X149942663Y-77720097D01*
X149942659Y-77720096D01*
X149942655Y-77720094D01*
X149714413Y-77658938D01*
X149714403Y-77658936D01*
X149479001Y-77638341D01*
X149478999Y-77638341D01*
X149243596Y-77658936D01*
X149243586Y-77658938D01*
X149015344Y-77720094D01*
X149015335Y-77720098D01*
X148801171Y-77819964D01*
X148801169Y-77819965D01*
X148607597Y-77955505D01*
X148440505Y-78122597D01*
X148310575Y-78308158D01*
X148255998Y-78351783D01*
X148186500Y-78358977D01*
X148124145Y-78327454D01*
X148107425Y-78308158D01*
X147977494Y-78122597D01*
X147810402Y-77955506D01*
X147810395Y-77955501D01*
X147616834Y-77819967D01*
X147616830Y-77819965D01*
X147599951Y-77812094D01*
X147402663Y-77720097D01*
X147402659Y-77720096D01*
X147402655Y-77720094D01*
X147174413Y-77658938D01*
X147174403Y-77658936D01*
X146939001Y-77638341D01*
X146938999Y-77638341D01*
X146703596Y-77658936D01*
X146703586Y-77658938D01*
X146475344Y-77720094D01*
X146475335Y-77720098D01*
X146261171Y-77819964D01*
X146261169Y-77819965D01*
X146067597Y-77955505D01*
X145900505Y-78122597D01*
X145770575Y-78308158D01*
X145715998Y-78351783D01*
X145646500Y-78358977D01*
X145584145Y-78327454D01*
X145567425Y-78308158D01*
X145437494Y-78122597D01*
X145270402Y-77955506D01*
X145270395Y-77955501D01*
X145076834Y-77819967D01*
X145076830Y-77819965D01*
X145059951Y-77812094D01*
X144862663Y-77720097D01*
X144862659Y-77720096D01*
X144862655Y-77720094D01*
X144634413Y-77658938D01*
X144634403Y-77658936D01*
X144399001Y-77638341D01*
X144398999Y-77638341D01*
X144163596Y-77658936D01*
X144163586Y-77658938D01*
X143935344Y-77720094D01*
X143935335Y-77720098D01*
X143721171Y-77819964D01*
X143721169Y-77819965D01*
X143527597Y-77955505D01*
X143360505Y-78122597D01*
X143230575Y-78308158D01*
X143175998Y-78351783D01*
X143106500Y-78358977D01*
X143044145Y-78327454D01*
X143027425Y-78308158D01*
X142897494Y-78122597D01*
X142730402Y-77955506D01*
X142730395Y-77955501D01*
X142536834Y-77819967D01*
X142536830Y-77819965D01*
X142519951Y-77812094D01*
X142322663Y-77720097D01*
X142322659Y-77720096D01*
X142322655Y-77720094D01*
X142094413Y-77658938D01*
X142094403Y-77658936D01*
X141859001Y-77638341D01*
X141858999Y-77638341D01*
X141623596Y-77658936D01*
X141623586Y-77658938D01*
X141395344Y-77720094D01*
X141395335Y-77720098D01*
X141181171Y-77819964D01*
X141181169Y-77819965D01*
X140987597Y-77955505D01*
X140820505Y-78122597D01*
X140690575Y-78308158D01*
X140635998Y-78351783D01*
X140566500Y-78358977D01*
X140504145Y-78327454D01*
X140487425Y-78308158D01*
X140357494Y-78122597D01*
X140190402Y-77955506D01*
X140190395Y-77955501D01*
X139996834Y-77819967D01*
X139996830Y-77819965D01*
X139979951Y-77812094D01*
X139782663Y-77720097D01*
X139782659Y-77720096D01*
X139782655Y-77720094D01*
X139554413Y-77658938D01*
X139554403Y-77658936D01*
X139319001Y-77638341D01*
X139318999Y-77638341D01*
X139083596Y-77658936D01*
X139083586Y-77658938D01*
X138855344Y-77720094D01*
X138855335Y-77720098D01*
X138641171Y-77819964D01*
X138641169Y-77819965D01*
X138447597Y-77955505D01*
X138280505Y-78122597D01*
X138150575Y-78308158D01*
X138095998Y-78351783D01*
X138026500Y-78358977D01*
X137964145Y-78327454D01*
X137947425Y-78308158D01*
X137817494Y-78122597D01*
X137650402Y-77955506D01*
X137650395Y-77955501D01*
X137456834Y-77819967D01*
X137456830Y-77819965D01*
X137439951Y-77812094D01*
X137242663Y-77720097D01*
X137242659Y-77720096D01*
X137242655Y-77720094D01*
X137014413Y-77658938D01*
X137014403Y-77658936D01*
X136779001Y-77638341D01*
X136778999Y-77638341D01*
X136543596Y-77658936D01*
X136543586Y-77658938D01*
X136315344Y-77720094D01*
X136315335Y-77720098D01*
X136101171Y-77819964D01*
X136101169Y-77819965D01*
X135907597Y-77955505D01*
X135740505Y-78122597D01*
X135610575Y-78308158D01*
X135555998Y-78351783D01*
X135486500Y-78358977D01*
X135424145Y-78327454D01*
X135407425Y-78308158D01*
X135277494Y-78122597D01*
X135110402Y-77955506D01*
X135110395Y-77955501D01*
X134916834Y-77819967D01*
X134916830Y-77819965D01*
X134899951Y-77812094D01*
X134702663Y-77720097D01*
X134702659Y-77720096D01*
X134702655Y-77720094D01*
X134474413Y-77658938D01*
X134474403Y-77658936D01*
X134239001Y-77638341D01*
X134238999Y-77638341D01*
X134003596Y-77658936D01*
X134003586Y-77658938D01*
X133775344Y-77720094D01*
X133775335Y-77720098D01*
X133561171Y-77819964D01*
X133561169Y-77819965D01*
X133367597Y-77955505D01*
X133200505Y-78122597D01*
X133070575Y-78308158D01*
X133015998Y-78351783D01*
X132946500Y-78358977D01*
X132884145Y-78327454D01*
X132867425Y-78308158D01*
X132737494Y-78122597D01*
X132570402Y-77955506D01*
X132570395Y-77955501D01*
X132376834Y-77819967D01*
X132376830Y-77819965D01*
X132359951Y-77812094D01*
X132162663Y-77720097D01*
X132162659Y-77720096D01*
X132162655Y-77720094D01*
X131934413Y-77658938D01*
X131934403Y-77658936D01*
X131699001Y-77638341D01*
X131698999Y-77638341D01*
X131463596Y-77658936D01*
X131463586Y-77658938D01*
X131235344Y-77720094D01*
X131235335Y-77720098D01*
X131021171Y-77819964D01*
X131021169Y-77819965D01*
X130827597Y-77955505D01*
X130660505Y-78122597D01*
X130530575Y-78308158D01*
X130475998Y-78351783D01*
X130406500Y-78358977D01*
X130344145Y-78327454D01*
X130327425Y-78308158D01*
X130197494Y-78122597D01*
X130030402Y-77955506D01*
X130030395Y-77955501D01*
X129836834Y-77819967D01*
X129836830Y-77819965D01*
X129819951Y-77812094D01*
X129622663Y-77720097D01*
X129622659Y-77720096D01*
X129622655Y-77720094D01*
X129394413Y-77658938D01*
X129394403Y-77658936D01*
X129159001Y-77638341D01*
X129158999Y-77638341D01*
X128923596Y-77658936D01*
X128923586Y-77658938D01*
X128695344Y-77720094D01*
X128695335Y-77720098D01*
X128481171Y-77819964D01*
X128481169Y-77819965D01*
X128287597Y-77955505D01*
X128120505Y-78122597D01*
X127990575Y-78308158D01*
X127935998Y-78351783D01*
X127866500Y-78358977D01*
X127804145Y-78327454D01*
X127787425Y-78308158D01*
X127657494Y-78122597D01*
X127490402Y-77955506D01*
X127490395Y-77955501D01*
X127296834Y-77819967D01*
X127296830Y-77819965D01*
X127279951Y-77812094D01*
X127082663Y-77720097D01*
X127082659Y-77720096D01*
X127082655Y-77720094D01*
X126854413Y-77658938D01*
X126854403Y-77658936D01*
X126619001Y-77638341D01*
X126618999Y-77638341D01*
X126383596Y-77658936D01*
X126383586Y-77658938D01*
X126155344Y-77720094D01*
X126155335Y-77720098D01*
X125941171Y-77819964D01*
X125941169Y-77819965D01*
X125747597Y-77955505D01*
X125580505Y-78122597D01*
X125450575Y-78308158D01*
X125395998Y-78351783D01*
X125326500Y-78358977D01*
X125264145Y-78327454D01*
X125247425Y-78308158D01*
X125117494Y-78122597D01*
X124950402Y-77955506D01*
X124950395Y-77955501D01*
X124756834Y-77819967D01*
X124756830Y-77819965D01*
X124739951Y-77812094D01*
X124542663Y-77720097D01*
X124542659Y-77720096D01*
X124542655Y-77720094D01*
X124314413Y-77658938D01*
X124314403Y-77658936D01*
X124079001Y-77638341D01*
X124078999Y-77638341D01*
X123843596Y-77658936D01*
X123843586Y-77658938D01*
X123615344Y-77720094D01*
X123615335Y-77720098D01*
X123401171Y-77819964D01*
X123401169Y-77819965D01*
X123207597Y-77955505D01*
X123040505Y-78122597D01*
X122910575Y-78308158D01*
X122855998Y-78351783D01*
X122786500Y-78358977D01*
X122724145Y-78327454D01*
X122707425Y-78308158D01*
X122577494Y-78122597D01*
X122410402Y-77955506D01*
X122410395Y-77955501D01*
X122216834Y-77819967D01*
X122216830Y-77819965D01*
X122199951Y-77812094D01*
X122002663Y-77720097D01*
X122002659Y-77720096D01*
X122002655Y-77720094D01*
X121774413Y-77658938D01*
X121774403Y-77658936D01*
X121539001Y-77638341D01*
X121538999Y-77638341D01*
X121303596Y-77658936D01*
X121303586Y-77658938D01*
X121075344Y-77720094D01*
X121075335Y-77720098D01*
X120861171Y-77819964D01*
X120861169Y-77819965D01*
X120667597Y-77955505D01*
X120500505Y-78122597D01*
X120370575Y-78308158D01*
X120315998Y-78351783D01*
X120246500Y-78358977D01*
X120184145Y-78327454D01*
X120167425Y-78308158D01*
X120037494Y-78122597D01*
X119870402Y-77955506D01*
X119870395Y-77955501D01*
X119676834Y-77819967D01*
X119676830Y-77819965D01*
X119659951Y-77812094D01*
X119462663Y-77720097D01*
X119462659Y-77720096D01*
X119462655Y-77720094D01*
X119234413Y-77658938D01*
X119234403Y-77658936D01*
X118999001Y-77638341D01*
X118998999Y-77638341D01*
X118763596Y-77658936D01*
X118763586Y-77658938D01*
X118535344Y-77720094D01*
X118535335Y-77720098D01*
X118321171Y-77819964D01*
X118321169Y-77819965D01*
X118127597Y-77955505D01*
X117960505Y-78122597D01*
X117830575Y-78308158D01*
X117775998Y-78351783D01*
X117706500Y-78358977D01*
X117644145Y-78327454D01*
X117627425Y-78308158D01*
X117497494Y-78122597D01*
X117330402Y-77955506D01*
X117330395Y-77955501D01*
X117136834Y-77819967D01*
X117136830Y-77819965D01*
X117119951Y-77812094D01*
X116922663Y-77720097D01*
X116922659Y-77720096D01*
X116922655Y-77720094D01*
X116694413Y-77658938D01*
X116694403Y-77658936D01*
X116459001Y-77638341D01*
X116458999Y-77638341D01*
X116223596Y-77658936D01*
X116223586Y-77658938D01*
X115995344Y-77720094D01*
X115995335Y-77720098D01*
X115781171Y-77819964D01*
X115781169Y-77819965D01*
X115587597Y-77955505D01*
X115420505Y-78122597D01*
X115284965Y-78316169D01*
X115284964Y-78316171D01*
X115185098Y-78530335D01*
X115185094Y-78530344D01*
X115123938Y-78758586D01*
X115123936Y-78758596D01*
X115103341Y-78993999D01*
X115103341Y-78994000D01*
X115123936Y-79229403D01*
X115123938Y-79229413D01*
X115185094Y-79457655D01*
X115185096Y-79457659D01*
X115185097Y-79457663D01*
X115274668Y-79649748D01*
X115284965Y-79671830D01*
X115284967Y-79671834D01*
X115330507Y-79736871D01*
X115420505Y-79865401D01*
X115587599Y-80032495D01*
X115684384Y-80100265D01*
X115781165Y-80168032D01*
X115781167Y-80168033D01*
X115781170Y-80168035D01*
X115995337Y-80267903D01*
X116223592Y-80329063D01*
X116411918Y-80345539D01*
X116458999Y-80349659D01*
X116459000Y-80349659D01*
X116459001Y-80349659D01*
X116498234Y-80346226D01*
X116694408Y-80329063D01*
X116922663Y-80267903D01*
X117136830Y-80168035D01*
X117330401Y-80032495D01*
X117497495Y-79865401D01*
X117627425Y-79679842D01*
X117682002Y-79636217D01*
X117751500Y-79629023D01*
X117813855Y-79660546D01*
X117830575Y-79679842D01*
X117960500Y-79865395D01*
X117960505Y-79865401D01*
X118127599Y-80032495D01*
X118224384Y-80100265D01*
X118321165Y-80168032D01*
X118321167Y-80168033D01*
X118321170Y-80168035D01*
X118535337Y-80267903D01*
X118763592Y-80329063D01*
X118951918Y-80345539D01*
X118998999Y-80349659D01*
X118999000Y-80349659D01*
X118999001Y-80349659D01*
X119038234Y-80346226D01*
X119234408Y-80329063D01*
X119462663Y-80267903D01*
X119676830Y-80168035D01*
X119870401Y-80032495D01*
X120037495Y-79865401D01*
X120167425Y-79679842D01*
X120222002Y-79636217D01*
X120291500Y-79629023D01*
X120353855Y-79660546D01*
X120370575Y-79679842D01*
X120500500Y-79865395D01*
X120500505Y-79865401D01*
X120667599Y-80032495D01*
X120764384Y-80100265D01*
X120861165Y-80168032D01*
X120861167Y-80168033D01*
X120861170Y-80168035D01*
X121075337Y-80267903D01*
X121303592Y-80329063D01*
X121491918Y-80345539D01*
X121538999Y-80349659D01*
X121539000Y-80349659D01*
X121539001Y-80349659D01*
X121578234Y-80346226D01*
X121774408Y-80329063D01*
X122002663Y-80267903D01*
X122216830Y-80168035D01*
X122410401Y-80032495D01*
X122577495Y-79865401D01*
X122707425Y-79679842D01*
X122762002Y-79636217D01*
X122831500Y-79629023D01*
X122893855Y-79660546D01*
X122910575Y-79679842D01*
X123040500Y-79865395D01*
X123040505Y-79865401D01*
X123207599Y-80032495D01*
X123304384Y-80100265D01*
X123401165Y-80168032D01*
X123401167Y-80168033D01*
X123401170Y-80168035D01*
X123615337Y-80267903D01*
X123843592Y-80329063D01*
X124031918Y-80345539D01*
X124078999Y-80349659D01*
X124079000Y-80349659D01*
X124079001Y-80349659D01*
X124118234Y-80346226D01*
X124314408Y-80329063D01*
X124542663Y-80267903D01*
X124756830Y-80168035D01*
X124950401Y-80032495D01*
X125117495Y-79865401D01*
X125247425Y-79679842D01*
X125302002Y-79636217D01*
X125371500Y-79629023D01*
X125433855Y-79660546D01*
X125450575Y-79679842D01*
X125580500Y-79865395D01*
X125580505Y-79865401D01*
X125747599Y-80032495D01*
X125844384Y-80100265D01*
X125941165Y-80168032D01*
X125941167Y-80168033D01*
X125941170Y-80168035D01*
X126155337Y-80267903D01*
X126383592Y-80329063D01*
X126571918Y-80345539D01*
X126618999Y-80349659D01*
X126619000Y-80349659D01*
X126619001Y-80349659D01*
X126658234Y-80346226D01*
X126854408Y-80329063D01*
X127082663Y-80267903D01*
X127296830Y-80168035D01*
X127490401Y-80032495D01*
X127657495Y-79865401D01*
X127787425Y-79679842D01*
X127842002Y-79636217D01*
X127911500Y-79629023D01*
X127973855Y-79660546D01*
X127990575Y-79679842D01*
X128120500Y-79865395D01*
X128120505Y-79865401D01*
X128287599Y-80032495D01*
X128384384Y-80100265D01*
X128481165Y-80168032D01*
X128481167Y-80168033D01*
X128481170Y-80168035D01*
X128695337Y-80267903D01*
X128923592Y-80329063D01*
X129111918Y-80345539D01*
X129158999Y-80349659D01*
X129159000Y-80349659D01*
X129159001Y-80349659D01*
X129198234Y-80346226D01*
X129394408Y-80329063D01*
X129622663Y-80267903D01*
X129836830Y-80168035D01*
X130030401Y-80032495D01*
X130197495Y-79865401D01*
X130327425Y-79679842D01*
X130382002Y-79636217D01*
X130451500Y-79629023D01*
X130513855Y-79660546D01*
X130530575Y-79679842D01*
X130660500Y-79865395D01*
X130660505Y-79865401D01*
X130827599Y-80032495D01*
X130924384Y-80100265D01*
X131021165Y-80168032D01*
X131021167Y-80168033D01*
X131021170Y-80168035D01*
X131235337Y-80267903D01*
X131463592Y-80329063D01*
X131651918Y-80345539D01*
X131698999Y-80349659D01*
X131699000Y-80349659D01*
X131699001Y-80349659D01*
X131738234Y-80346226D01*
X131934408Y-80329063D01*
X132162663Y-80267903D01*
X132376830Y-80168035D01*
X132570401Y-80032495D01*
X132737495Y-79865401D01*
X132867425Y-79679842D01*
X132922002Y-79636217D01*
X132991500Y-79629023D01*
X133053855Y-79660546D01*
X133070575Y-79679842D01*
X133200500Y-79865395D01*
X133200505Y-79865401D01*
X133367599Y-80032495D01*
X133464384Y-80100265D01*
X133561165Y-80168032D01*
X133561167Y-80168033D01*
X133561170Y-80168035D01*
X133775337Y-80267903D01*
X134003592Y-80329063D01*
X134191918Y-80345539D01*
X134238999Y-80349659D01*
X134239000Y-80349659D01*
X134239001Y-80349659D01*
X134278234Y-80346226D01*
X134474408Y-80329063D01*
X134702663Y-80267903D01*
X134916830Y-80168035D01*
X135110401Y-80032495D01*
X135277495Y-79865401D01*
X135407425Y-79679842D01*
X135462002Y-79636217D01*
X135531500Y-79629023D01*
X135593855Y-79660546D01*
X135610575Y-79679842D01*
X135740500Y-79865395D01*
X135740505Y-79865401D01*
X135907599Y-80032495D01*
X136004384Y-80100265D01*
X136101165Y-80168032D01*
X136101167Y-80168033D01*
X136101170Y-80168035D01*
X136315337Y-80267903D01*
X136543592Y-80329063D01*
X136731918Y-80345539D01*
X136778999Y-80349659D01*
X136779000Y-80349659D01*
X136779001Y-80349659D01*
X136818234Y-80346226D01*
X137014408Y-80329063D01*
X137242663Y-80267903D01*
X137456830Y-80168035D01*
X137650401Y-80032495D01*
X137817495Y-79865401D01*
X137947425Y-79679842D01*
X138002002Y-79636217D01*
X138071500Y-79629023D01*
X138133855Y-79660546D01*
X138150575Y-79679842D01*
X138280500Y-79865395D01*
X138280505Y-79865401D01*
X138447599Y-80032495D01*
X138544384Y-80100265D01*
X138641165Y-80168032D01*
X138641167Y-80168033D01*
X138641170Y-80168035D01*
X138855337Y-80267903D01*
X139083592Y-80329063D01*
X139271918Y-80345539D01*
X139318999Y-80349659D01*
X139319000Y-80349659D01*
X139319001Y-80349659D01*
X139358234Y-80346226D01*
X139554408Y-80329063D01*
X139782663Y-80267903D01*
X139996830Y-80168035D01*
X140190401Y-80032495D01*
X140357495Y-79865401D01*
X140487425Y-79679842D01*
X140542002Y-79636217D01*
X140611500Y-79629023D01*
X140673855Y-79660546D01*
X140690575Y-79679842D01*
X140820500Y-79865395D01*
X140820505Y-79865401D01*
X140987599Y-80032495D01*
X141084384Y-80100265D01*
X141181165Y-80168032D01*
X141181167Y-80168033D01*
X141181170Y-80168035D01*
X141395337Y-80267903D01*
X141623592Y-80329063D01*
X141811918Y-80345539D01*
X141858999Y-80349659D01*
X141859000Y-80349659D01*
X141859001Y-80349659D01*
X141898234Y-80346226D01*
X142094408Y-80329063D01*
X142322663Y-80267903D01*
X142536830Y-80168035D01*
X142730401Y-80032495D01*
X142897495Y-79865401D01*
X143027425Y-79679842D01*
X143082002Y-79636217D01*
X143151500Y-79629023D01*
X143213855Y-79660546D01*
X143230575Y-79679842D01*
X143360500Y-79865395D01*
X143360505Y-79865401D01*
X143527599Y-80032495D01*
X143624384Y-80100265D01*
X143721165Y-80168032D01*
X143721167Y-80168033D01*
X143721170Y-80168035D01*
X143935337Y-80267903D01*
X144163592Y-80329063D01*
X144351918Y-80345539D01*
X144398999Y-80349659D01*
X144399000Y-80349659D01*
X144399001Y-80349659D01*
X144438234Y-80346226D01*
X144634408Y-80329063D01*
X144862663Y-80267903D01*
X145076830Y-80168035D01*
X145270401Y-80032495D01*
X145437495Y-79865401D01*
X145567425Y-79679842D01*
X145622002Y-79636217D01*
X145691500Y-79629023D01*
X145753855Y-79660546D01*
X145770575Y-79679842D01*
X145900500Y-79865395D01*
X145900505Y-79865401D01*
X146067599Y-80032495D01*
X146164384Y-80100265D01*
X146261165Y-80168032D01*
X146261167Y-80168033D01*
X146261170Y-80168035D01*
X146475337Y-80267903D01*
X146703592Y-80329063D01*
X146891918Y-80345539D01*
X146938999Y-80349659D01*
X146939000Y-80349659D01*
X146939001Y-80349659D01*
X146978234Y-80346226D01*
X147174408Y-80329063D01*
X147402663Y-80267903D01*
X147616830Y-80168035D01*
X147810401Y-80032495D01*
X147977495Y-79865401D01*
X148107425Y-79679842D01*
X148162002Y-79636217D01*
X148231500Y-79629023D01*
X148293855Y-79660546D01*
X148310575Y-79679842D01*
X148440500Y-79865395D01*
X148440505Y-79865401D01*
X148607599Y-80032495D01*
X148704384Y-80100265D01*
X148801165Y-80168032D01*
X148801167Y-80168033D01*
X148801170Y-80168035D01*
X149015337Y-80267903D01*
X149243592Y-80329063D01*
X149431918Y-80345539D01*
X149478999Y-80349659D01*
X149479000Y-80349659D01*
X149479001Y-80349659D01*
X149518234Y-80346226D01*
X149714408Y-80329063D01*
X149942663Y-80267903D01*
X150156830Y-80168035D01*
X150350401Y-80032495D01*
X150517495Y-79865401D01*
X150647425Y-79679842D01*
X150702002Y-79636217D01*
X150771500Y-79629023D01*
X150833855Y-79660546D01*
X150850575Y-79679842D01*
X150980500Y-79865395D01*
X150980505Y-79865401D01*
X151147599Y-80032495D01*
X151244384Y-80100265D01*
X151341165Y-80168032D01*
X151341167Y-80168033D01*
X151341170Y-80168035D01*
X151555337Y-80267903D01*
X151783592Y-80329063D01*
X151971918Y-80345539D01*
X152018999Y-80349659D01*
X152019000Y-80349659D01*
X152019001Y-80349659D01*
X152058234Y-80346226D01*
X152254408Y-80329063D01*
X152482663Y-80267903D01*
X152696830Y-80168035D01*
X152890401Y-80032495D01*
X153057495Y-79865401D01*
X153187425Y-79679842D01*
X153242002Y-79636217D01*
X153311500Y-79629023D01*
X153373855Y-79660546D01*
X153390575Y-79679842D01*
X153520500Y-79865395D01*
X153520505Y-79865401D01*
X153687599Y-80032495D01*
X153784384Y-80100265D01*
X153881165Y-80168032D01*
X153881167Y-80168033D01*
X153881170Y-80168035D01*
X154095337Y-80267903D01*
X154323592Y-80329063D01*
X154511918Y-80345539D01*
X154558999Y-80349659D01*
X154559000Y-80349659D01*
X154559001Y-80349659D01*
X154598234Y-80346226D01*
X154794408Y-80329063D01*
X155022663Y-80267903D01*
X155236830Y-80168035D01*
X155430401Y-80032495D01*
X155597495Y-79865401D01*
X155727425Y-79679842D01*
X155782002Y-79636217D01*
X155851500Y-79629023D01*
X155913855Y-79660546D01*
X155930575Y-79679842D01*
X156060500Y-79865395D01*
X156060505Y-79865401D01*
X156227599Y-80032495D01*
X156324384Y-80100265D01*
X156421165Y-80168032D01*
X156421167Y-80168033D01*
X156421170Y-80168035D01*
X156635337Y-80267903D01*
X156863592Y-80329063D01*
X157051918Y-80345539D01*
X157098999Y-80349659D01*
X157099000Y-80349659D01*
X157099001Y-80349659D01*
X157138234Y-80346226D01*
X157334408Y-80329063D01*
X157562663Y-80267903D01*
X157776830Y-80168035D01*
X157970401Y-80032495D01*
X158137495Y-79865401D01*
X158267425Y-79679842D01*
X158322002Y-79636217D01*
X158391500Y-79629023D01*
X158453855Y-79660546D01*
X158470575Y-79679842D01*
X158600500Y-79865395D01*
X158600505Y-79865401D01*
X158767599Y-80032495D01*
X158864384Y-80100265D01*
X158961165Y-80168032D01*
X158961167Y-80168033D01*
X158961170Y-80168035D01*
X159175337Y-80267903D01*
X159403592Y-80329063D01*
X159591918Y-80345539D01*
X159638999Y-80349659D01*
X159639000Y-80349659D01*
X159639001Y-80349659D01*
X159678234Y-80346226D01*
X159874408Y-80329063D01*
X160102663Y-80267903D01*
X160316830Y-80168035D01*
X160510401Y-80032495D01*
X160677495Y-79865401D01*
X160807425Y-79679842D01*
X160862002Y-79636217D01*
X160931500Y-79629023D01*
X160993855Y-79660546D01*
X161010575Y-79679842D01*
X161140500Y-79865395D01*
X161140505Y-79865401D01*
X161307599Y-80032495D01*
X161404384Y-80100265D01*
X161501165Y-80168032D01*
X161501167Y-80168033D01*
X161501170Y-80168035D01*
X161715337Y-80267903D01*
X161943592Y-80329063D01*
X162131918Y-80345539D01*
X162178999Y-80349659D01*
X162179000Y-80349659D01*
X162179001Y-80349659D01*
X162218234Y-80346226D01*
X162414408Y-80329063D01*
X162642663Y-80267903D01*
X162856830Y-80168035D01*
X163050401Y-80032495D01*
X163217495Y-79865401D01*
X163347425Y-79679842D01*
X163402002Y-79636217D01*
X163471500Y-79629023D01*
X163533855Y-79660546D01*
X163550575Y-79679842D01*
X163680500Y-79865395D01*
X163680505Y-79865401D01*
X163847599Y-80032495D01*
X163990624Y-80132642D01*
X164034248Y-80187218D01*
X164043500Y-80234216D01*
X164043500Y-80891837D01*
X164023815Y-80958876D01*
X164007181Y-80979518D01*
X158957518Y-86029181D01*
X158896195Y-86062666D01*
X158869837Y-86065500D01*
X119749464Y-86065500D01*
X119618971Y-86091457D01*
X119618963Y-86091459D01*
X119496034Y-86142378D01*
X119496024Y-86142383D01*
X119385394Y-86216304D01*
X119385390Y-86216307D01*
X118471928Y-87129770D01*
X118410605Y-87163255D01*
X118397224Y-87165408D01*
X118396359Y-87165498D01*
X118211197Y-87204855D01*
X118211192Y-87204857D01*
X118038270Y-87281848D01*
X118038265Y-87281851D01*
X117921319Y-87366818D01*
X117855513Y-87390298D01*
X117848434Y-87390500D01*
X113802801Y-87390500D01*
X113735762Y-87370815D01*
X113695414Y-87328500D01*
X113656640Y-87261342D01*
X113635533Y-87224784D01*
X113582151Y-87165498D01*
X113508870Y-87084111D01*
X113355734Y-86972851D01*
X113355729Y-86972848D01*
X113182807Y-86895857D01*
X113182802Y-86895855D01*
X113037001Y-86864865D01*
X112997646Y-86856500D01*
X112808354Y-86856500D01*
X112775897Y-86863398D01*
X112623197Y-86895855D01*
X112623192Y-86895857D01*
X112450270Y-86972848D01*
X112450265Y-86972851D01*
X112297129Y-87084111D01*
X112170466Y-87224785D01*
X112075821Y-87388715D01*
X112075818Y-87388722D01*
X112018414Y-87565394D01*
X112017326Y-87568744D01*
X111997540Y-87757000D01*
X112017326Y-87945256D01*
X112017327Y-87945259D01*
X112075818Y-88125277D01*
X112075821Y-88125284D01*
X112170467Y-88289216D01*
X112235072Y-88360967D01*
X112297129Y-88429888D01*
X112450265Y-88541148D01*
X112450270Y-88541151D01*
X112623192Y-88618142D01*
X112623197Y-88618144D01*
X112808354Y-88657500D01*
X112850176Y-88657500D01*
X112897629Y-88666939D01*
X112928639Y-88679783D01*
X113014964Y-88715541D01*
X113132338Y-88738888D01*
X113145464Y-88741499D01*
X113145468Y-88741500D01*
X113145469Y-88741500D01*
X113278531Y-88741500D01*
X117848434Y-88741500D01*
X117915473Y-88761185D01*
X117921319Y-88765182D01*
X118038265Y-88850148D01*
X118038270Y-88850151D01*
X118211192Y-88927142D01*
X118211197Y-88927144D01*
X118396354Y-88966500D01*
X118396355Y-88966500D01*
X118585644Y-88966500D01*
X118585646Y-88966500D01*
X118770803Y-88927144D01*
X118943730Y-88850151D01*
X119096871Y-88738888D01*
X119223533Y-88598216D01*
X119318179Y-88434284D01*
X119376674Y-88254256D01*
X119386016Y-88165362D01*
X119412599Y-88100749D01*
X119421646Y-88090653D01*
X120059482Y-87452819D01*
X120120805Y-87419334D01*
X120147163Y-87416500D01*
X126868263Y-87416500D01*
X126935302Y-87436185D01*
X126981057Y-87488989D01*
X126991584Y-87553460D01*
X126989978Y-87568744D01*
X126983540Y-87630000D01*
X127003326Y-87818256D01*
X127003327Y-87818259D01*
X127061818Y-87998277D01*
X127061821Y-87998284D01*
X127156467Y-88162216D01*
X127199772Y-88210310D01*
X127231650Y-88245715D01*
X127261880Y-88308706D01*
X127263500Y-88328687D01*
X127263500Y-92331047D01*
X127243815Y-92398086D01*
X127227181Y-92418728D01*
X117148144Y-102497764D01*
X117148138Y-102497772D01*
X117079692Y-102600205D01*
X117079684Y-102600219D01*
X117047631Y-102677607D01*
X117035956Y-102705791D01*
X117032538Y-102714045D01*
X117032535Y-102714053D01*
X117008500Y-102834889D01*
X117008500Y-105097547D01*
X116988815Y-105164586D01*
X116972181Y-105185228D01*
X116478202Y-105679206D01*
X116416879Y-105712691D01*
X116347187Y-105707707D01*
X116340086Y-105704805D01*
X116281802Y-105678855D01*
X116136001Y-105647865D01*
X116096646Y-105639500D01*
X115907354Y-105639500D01*
X115874897Y-105646398D01*
X115722197Y-105678855D01*
X115722192Y-105678857D01*
X115549270Y-105755848D01*
X115549265Y-105755851D01*
X115396129Y-105867111D01*
X115269466Y-106007785D01*
X115174821Y-106171715D01*
X115174818Y-106171722D01*
X115116327Y-106351740D01*
X115116326Y-106351744D01*
X115096540Y-106540000D01*
X115116326Y-106728256D01*
X115116327Y-106728259D01*
X115174818Y-106908277D01*
X115174821Y-106908284D01*
X115269467Y-107072216D01*
X115396129Y-107212888D01*
X115549265Y-107324148D01*
X115549270Y-107324151D01*
X115722192Y-107401142D01*
X115722197Y-107401144D01*
X115907354Y-107440500D01*
X115907355Y-107440500D01*
X116096644Y-107440500D01*
X116096646Y-107440500D01*
X116281803Y-107401144D01*
X116454730Y-107324151D01*
X116607871Y-107212888D01*
X116646108Y-107170419D01*
X116690806Y-107138831D01*
X116734496Y-107120734D01*
X116798286Y-107094312D01*
X116849509Y-107060084D01*
X116900733Y-107025858D01*
X116987858Y-106938733D01*
X116987859Y-106938731D01*
X116994925Y-106931665D01*
X116994928Y-106931661D01*
X118032729Y-105893860D01*
X118032733Y-105893858D01*
X118119858Y-105806733D01*
X118188311Y-105704286D01*
X118188312Y-105704285D01*
X118188313Y-105704282D01*
X118188315Y-105704279D01*
X118204211Y-105665900D01*
X118208244Y-105656163D01*
X118252083Y-105601761D01*
X118318377Y-105579695D01*
X118375208Y-105591233D01*
X118535337Y-105665903D01*
X118763592Y-105727063D01*
X118951918Y-105743539D01*
X118998999Y-105747659D01*
X118999000Y-105747659D01*
X118999001Y-105747659D01*
X119038234Y-105744226D01*
X119234408Y-105727063D01*
X119462663Y-105665903D01*
X119676830Y-105566035D01*
X119870401Y-105430495D01*
X120037495Y-105263401D01*
X120167425Y-105077842D01*
X120222002Y-105034217D01*
X120291500Y-105027023D01*
X120353855Y-105058546D01*
X120370575Y-105077842D01*
X120445767Y-105185228D01*
X120500505Y-105263401D01*
X120667599Y-105430495D01*
X120764384Y-105498265D01*
X120861165Y-105566032D01*
X120861167Y-105566033D01*
X120861170Y-105566035D01*
X121075337Y-105665903D01*
X121303592Y-105727063D01*
X121491918Y-105743539D01*
X121538999Y-105747659D01*
X121539000Y-105747659D01*
X121539001Y-105747659D01*
X121578234Y-105744226D01*
X121774408Y-105727063D01*
X122002663Y-105665903D01*
X122216830Y-105566035D01*
X122410401Y-105430495D01*
X122577495Y-105263401D01*
X122707425Y-105077842D01*
X122762002Y-105034217D01*
X122831500Y-105027023D01*
X122893855Y-105058546D01*
X122910575Y-105077842D01*
X122985767Y-105185228D01*
X123040505Y-105263401D01*
X123207599Y-105430495D01*
X123304384Y-105498265D01*
X123401165Y-105566032D01*
X123401167Y-105566033D01*
X123401170Y-105566035D01*
X123615337Y-105665903D01*
X123843592Y-105727063D01*
X124031918Y-105743539D01*
X124078999Y-105747659D01*
X124079000Y-105747659D01*
X124079001Y-105747659D01*
X124118234Y-105744226D01*
X124314408Y-105727063D01*
X124542663Y-105665903D01*
X124756830Y-105566035D01*
X124950401Y-105430495D01*
X125117495Y-105263401D01*
X125247425Y-105077842D01*
X125302002Y-105034217D01*
X125371500Y-105027023D01*
X125433855Y-105058546D01*
X125450575Y-105077842D01*
X125525767Y-105185228D01*
X125580505Y-105263401D01*
X125747599Y-105430495D01*
X125844384Y-105498265D01*
X125941165Y-105566032D01*
X125941167Y-105566033D01*
X125941170Y-105566035D01*
X126155337Y-105665903D01*
X126383592Y-105727063D01*
X126571918Y-105743539D01*
X126618999Y-105747659D01*
X126619000Y-105747659D01*
X126619001Y-105747659D01*
X126658234Y-105744226D01*
X126854408Y-105727063D01*
X127082663Y-105665903D01*
X127296830Y-105566035D01*
X127490401Y-105430495D01*
X127657495Y-105263401D01*
X127787425Y-105077842D01*
X127842002Y-105034217D01*
X127911500Y-105027023D01*
X127973855Y-105058546D01*
X127990575Y-105077842D01*
X128065767Y-105185228D01*
X128120505Y-105263401D01*
X128287599Y-105430495D01*
X128384384Y-105498265D01*
X128481165Y-105566032D01*
X128481167Y-105566033D01*
X128481170Y-105566035D01*
X128695337Y-105665903D01*
X128923592Y-105727063D01*
X129111918Y-105743539D01*
X129158999Y-105747659D01*
X129159000Y-105747659D01*
X129159001Y-105747659D01*
X129198234Y-105744226D01*
X129394408Y-105727063D01*
X129622663Y-105665903D01*
X129836830Y-105566035D01*
X130030401Y-105430495D01*
X130197495Y-105263401D01*
X130327425Y-105077842D01*
X130382002Y-105034217D01*
X130451500Y-105027023D01*
X130513855Y-105058546D01*
X130530575Y-105077842D01*
X130605767Y-105185228D01*
X130660505Y-105263401D01*
X130827599Y-105430495D01*
X130924384Y-105498265D01*
X131021165Y-105566032D01*
X131021167Y-105566033D01*
X131021170Y-105566035D01*
X131235337Y-105665903D01*
X131463592Y-105727063D01*
X131651918Y-105743539D01*
X131698999Y-105747659D01*
X131699000Y-105747659D01*
X131699001Y-105747659D01*
X131738234Y-105744226D01*
X131934408Y-105727063D01*
X132162663Y-105665903D01*
X132376830Y-105566035D01*
X132570401Y-105430495D01*
X132737495Y-105263401D01*
X132867425Y-105077842D01*
X132922002Y-105034217D01*
X132991500Y-105027023D01*
X133053855Y-105058546D01*
X133070575Y-105077842D01*
X133145767Y-105185228D01*
X133200505Y-105263401D01*
X133367599Y-105430495D01*
X133464384Y-105498265D01*
X133561165Y-105566032D01*
X133561167Y-105566033D01*
X133561170Y-105566035D01*
X133775337Y-105665903D01*
X134003592Y-105727063D01*
X134191918Y-105743539D01*
X134238999Y-105747659D01*
X134239000Y-105747659D01*
X134239001Y-105747659D01*
X134278234Y-105744226D01*
X134474408Y-105727063D01*
X134702663Y-105665903D01*
X134916830Y-105566035D01*
X135110401Y-105430495D01*
X135277495Y-105263401D01*
X135407425Y-105077842D01*
X135462002Y-105034217D01*
X135531500Y-105027023D01*
X135593855Y-105058546D01*
X135610575Y-105077842D01*
X135685767Y-105185228D01*
X135740505Y-105263401D01*
X135907599Y-105430495D01*
X136004384Y-105498265D01*
X136101165Y-105566032D01*
X136101167Y-105566033D01*
X136101170Y-105566035D01*
X136315337Y-105665903D01*
X136543592Y-105727063D01*
X136731918Y-105743539D01*
X136778999Y-105747659D01*
X136779000Y-105747659D01*
X136779001Y-105747659D01*
X136818234Y-105744226D01*
X137014408Y-105727063D01*
X137242663Y-105665903D01*
X137456830Y-105566035D01*
X137650401Y-105430495D01*
X137817495Y-105263401D01*
X137947425Y-105077842D01*
X138002002Y-105034217D01*
X138071500Y-105027023D01*
X138133855Y-105058546D01*
X138150575Y-105077842D01*
X138225767Y-105185228D01*
X138280505Y-105263401D01*
X138447599Y-105430495D01*
X138544384Y-105498265D01*
X138641165Y-105566032D01*
X138641167Y-105566033D01*
X138641170Y-105566035D01*
X138855337Y-105665903D01*
X139083592Y-105727063D01*
X139271918Y-105743539D01*
X139318999Y-105747659D01*
X139319000Y-105747659D01*
X139319001Y-105747659D01*
X139358234Y-105744226D01*
X139554408Y-105727063D01*
X139782663Y-105665903D01*
X139996830Y-105566035D01*
X140190401Y-105430495D01*
X140357495Y-105263401D01*
X140487425Y-105077842D01*
X140542002Y-105034217D01*
X140611500Y-105027023D01*
X140673855Y-105058546D01*
X140690575Y-105077842D01*
X140765767Y-105185228D01*
X140820505Y-105263401D01*
X140987599Y-105430495D01*
X141084384Y-105498265D01*
X141181165Y-105566032D01*
X141181167Y-105566033D01*
X141181170Y-105566035D01*
X141395337Y-105665903D01*
X141623592Y-105727063D01*
X141811918Y-105743539D01*
X141858999Y-105747659D01*
X141859000Y-105747659D01*
X141859001Y-105747659D01*
X141898234Y-105744226D01*
X142094408Y-105727063D01*
X142322663Y-105665903D01*
X142536830Y-105566035D01*
X142730401Y-105430495D01*
X142897495Y-105263401D01*
X143027425Y-105077842D01*
X143082002Y-105034217D01*
X143151500Y-105027023D01*
X143213855Y-105058546D01*
X143230575Y-105077842D01*
X143305767Y-105185228D01*
X143360505Y-105263401D01*
X143527599Y-105430495D01*
X143624384Y-105498265D01*
X143721165Y-105566032D01*
X143721167Y-105566033D01*
X143721170Y-105566035D01*
X143935337Y-105665903D01*
X144163592Y-105727063D01*
X144351918Y-105743539D01*
X144398999Y-105747659D01*
X144399000Y-105747659D01*
X144399001Y-105747659D01*
X144438234Y-105744226D01*
X144634408Y-105727063D01*
X144862663Y-105665903D01*
X145076830Y-105566035D01*
X145270401Y-105430495D01*
X145437495Y-105263401D01*
X145567425Y-105077842D01*
X145622002Y-105034217D01*
X145691500Y-105027023D01*
X145753855Y-105058546D01*
X145770575Y-105077842D01*
X145845767Y-105185228D01*
X145900505Y-105263401D01*
X146067599Y-105430495D01*
X146164384Y-105498265D01*
X146261165Y-105566032D01*
X146261167Y-105566033D01*
X146261170Y-105566035D01*
X146475337Y-105665903D01*
X146703592Y-105727063D01*
X146891918Y-105743539D01*
X146938999Y-105747659D01*
X146939000Y-105747659D01*
X146939001Y-105747659D01*
X146978234Y-105744226D01*
X147174408Y-105727063D01*
X147402663Y-105665903D01*
X147616830Y-105566035D01*
X147810401Y-105430495D01*
X147977495Y-105263401D01*
X148107425Y-105077842D01*
X148162002Y-105034217D01*
X148231500Y-105027023D01*
X148293855Y-105058546D01*
X148310575Y-105077842D01*
X148385767Y-105185228D01*
X148440505Y-105263401D01*
X148607599Y-105430495D01*
X148704384Y-105498265D01*
X148801165Y-105566032D01*
X148801167Y-105566033D01*
X148801170Y-105566035D01*
X149015337Y-105665903D01*
X149243592Y-105727063D01*
X149431918Y-105743539D01*
X149478999Y-105747659D01*
X149479000Y-105747659D01*
X149479001Y-105747659D01*
X149518234Y-105744226D01*
X149714408Y-105727063D01*
X149942663Y-105665903D01*
X150156830Y-105566035D01*
X150350401Y-105430495D01*
X150517495Y-105263401D01*
X150647425Y-105077842D01*
X150702002Y-105034217D01*
X150771500Y-105027023D01*
X150833855Y-105058546D01*
X150850575Y-105077842D01*
X150925767Y-105185228D01*
X150980505Y-105263401D01*
X151147599Y-105430495D01*
X151244384Y-105498265D01*
X151341165Y-105566032D01*
X151341167Y-105566033D01*
X151341170Y-105566035D01*
X151555337Y-105665903D01*
X151783592Y-105727063D01*
X151971918Y-105743539D01*
X152018999Y-105747659D01*
X152019000Y-105747659D01*
X152019001Y-105747659D01*
X152058234Y-105744226D01*
X152254408Y-105727063D01*
X152482663Y-105665903D01*
X152696830Y-105566035D01*
X152890401Y-105430495D01*
X153057495Y-105263401D01*
X153187425Y-105077842D01*
X153242002Y-105034217D01*
X153311500Y-105027023D01*
X153373855Y-105058546D01*
X153390575Y-105077842D01*
X153465767Y-105185228D01*
X153520505Y-105263401D01*
X153687599Y-105430495D01*
X153784384Y-105498265D01*
X153881165Y-105566032D01*
X153881167Y-105566033D01*
X153881170Y-105566035D01*
X154095337Y-105665903D01*
X154323592Y-105727063D01*
X154511918Y-105743539D01*
X154558999Y-105747659D01*
X154559000Y-105747659D01*
X154559001Y-105747659D01*
X154598234Y-105744226D01*
X154794408Y-105727063D01*
X155022663Y-105665903D01*
X155236830Y-105566035D01*
X155430401Y-105430495D01*
X155597495Y-105263401D01*
X155727425Y-105077842D01*
X155782002Y-105034217D01*
X155851500Y-105027023D01*
X155913855Y-105058546D01*
X155930575Y-105077842D01*
X156005767Y-105185228D01*
X156060505Y-105263401D01*
X156227599Y-105430495D01*
X156324384Y-105498265D01*
X156421165Y-105566032D01*
X156421167Y-105566033D01*
X156421170Y-105566035D01*
X156635337Y-105665903D01*
X156863592Y-105727063D01*
X157051918Y-105743539D01*
X157098999Y-105747659D01*
X157099000Y-105747659D01*
X157099001Y-105747659D01*
X157138234Y-105744226D01*
X157334408Y-105727063D01*
X157562663Y-105665903D01*
X157776830Y-105566035D01*
X157970401Y-105430495D01*
X158137495Y-105263401D01*
X158267425Y-105077842D01*
X158322002Y-105034217D01*
X158391500Y-105027023D01*
X158453855Y-105058546D01*
X158470575Y-105077842D01*
X158545767Y-105185228D01*
X158600505Y-105263401D01*
X158767599Y-105430495D01*
X158864384Y-105498265D01*
X158961165Y-105566032D01*
X158961167Y-105566033D01*
X158961170Y-105566035D01*
X159175337Y-105665903D01*
X159403592Y-105727063D01*
X159591918Y-105743539D01*
X159638999Y-105747659D01*
X159639000Y-105747659D01*
X159639001Y-105747659D01*
X159678234Y-105744226D01*
X159874408Y-105727063D01*
X160102663Y-105665903D01*
X160316830Y-105566035D01*
X160510401Y-105430495D01*
X160677495Y-105263401D01*
X160807425Y-105077842D01*
X160862002Y-105034217D01*
X160931500Y-105027023D01*
X160993855Y-105058546D01*
X161010575Y-105077842D01*
X161085767Y-105185228D01*
X161140505Y-105263401D01*
X161307599Y-105430495D01*
X161404384Y-105498265D01*
X161501165Y-105566032D01*
X161501167Y-105566033D01*
X161501170Y-105566035D01*
X161715337Y-105665903D01*
X161943592Y-105727063D01*
X162131918Y-105743539D01*
X162178999Y-105747659D01*
X162179000Y-105747659D01*
X162179001Y-105747659D01*
X162218234Y-105744226D01*
X162414408Y-105727063D01*
X162642663Y-105665903D01*
X162856830Y-105566035D01*
X163050401Y-105430495D01*
X163217495Y-105263401D01*
X163347425Y-105077842D01*
X163402002Y-105034217D01*
X163471500Y-105027023D01*
X163533855Y-105058546D01*
X163550575Y-105077842D01*
X163625767Y-105185228D01*
X163680505Y-105263401D01*
X163847599Y-105430495D01*
X163944384Y-105498265D01*
X164041165Y-105566032D01*
X164041167Y-105566033D01*
X164041170Y-105566035D01*
X164255337Y-105665903D01*
X164483592Y-105727063D01*
X164671918Y-105743539D01*
X164718999Y-105747659D01*
X164719000Y-105747659D01*
X164719001Y-105747659D01*
X164758234Y-105744226D01*
X164954408Y-105727063D01*
X165182663Y-105665903D01*
X165187094Y-105663837D01*
X165256171Y-105653344D01*
X165319955Y-105681863D01*
X165358196Y-105740339D01*
X165363500Y-105776218D01*
X165363500Y-115882022D01*
X165343815Y-115949061D01*
X165291011Y-115994816D01*
X165221853Y-116004760D01*
X165187995Y-115994819D01*
X165185468Y-115993665D01*
X165185461Y-115993663D01*
X165185459Y-115993662D01*
X165118420Y-115973977D01*
X165118422Y-115973977D01*
X165118417Y-115973976D01*
X165056347Y-115965052D01*
X164976000Y-115953500D01*
X164975998Y-115953500D01*
X164809386Y-115953500D01*
X164761936Y-115944062D01*
X164756835Y-115941949D01*
X164756828Y-115941947D01*
X164563543Y-115903500D01*
X164563541Y-115903500D01*
X160499541Y-115903500D01*
X156435541Y-115903500D01*
X152371541Y-115903500D01*
X148307541Y-115903500D01*
X144243541Y-115903500D01*
X140179541Y-115903500D01*
X136115541Y-115903500D01*
X132051541Y-115903500D01*
X127987541Y-115903500D01*
X123923541Y-115903500D01*
X119662459Y-115903500D01*
X119662457Y-115903500D01*
X119469171Y-115941947D01*
X119469164Y-115941949D01*
X119464064Y-115944062D01*
X119416614Y-115953500D01*
X114932000Y-115953500D01*
X114931991Y-115953500D01*
X114931990Y-115953501D01*
X114824549Y-115965052D01*
X114824537Y-115965054D01*
X114773027Y-115976260D01*
X114670502Y-116010383D01*
X114670496Y-116010386D01*
X114549462Y-116088171D01*
X114549451Y-116088179D01*
X114496659Y-116133923D01*
X114402433Y-116242664D01*
X114402430Y-116242668D01*
X114342664Y-116373534D01*
X114322976Y-116440582D01*
X114302500Y-116583001D01*
X114302500Y-134933500D01*
X114282815Y-135000539D01*
X114230011Y-135046294D01*
X114178500Y-135057500D01*
X114150849Y-135057500D01*
X114083810Y-135037815D01*
X114063168Y-135021181D01*
X112398607Y-133356620D01*
X110534858Y-131492872D01*
X110501374Y-131431550D01*
X110506358Y-131361858D01*
X110548230Y-131305925D01*
X110613694Y-131281508D01*
X110641935Y-131282718D01*
X110673626Y-131287737D01*
X110725640Y-131295976D01*
X110726559Y-131296125D01*
X110842665Y-131315500D01*
X110842666Y-131315500D01*
X111091333Y-131315500D01*
X111091335Y-131315500D01*
X111207532Y-131296109D01*
X111208217Y-131295997D01*
X111318368Y-131278553D01*
X111318379Y-131278549D01*
X111323110Y-131277414D01*
X111323157Y-131277612D01*
X111333414Y-131275104D01*
X111336614Y-131274571D01*
X111441688Y-131238497D01*
X111443360Y-131237939D01*
X111542992Y-131205568D01*
X111546321Y-131203871D01*
X111562355Y-131197074D01*
X111564269Y-131196416D01*
X111571810Y-131193828D01*
X111663524Y-131144194D01*
X111666117Y-131142831D01*
X111753433Y-131098343D01*
X111761916Y-131092178D01*
X111775780Y-131083444D01*
X111790509Y-131075474D01*
X111867465Y-131015575D01*
X111870680Y-131013156D01*
X111944510Y-130959517D01*
X111956699Y-130947327D01*
X111968210Y-130937162D01*
X111986744Y-130922738D01*
X112048234Y-130855940D01*
X112051734Y-130852291D01*
X112111517Y-130792510D01*
X112125604Y-130773119D01*
X112134695Y-130762019D01*
X112140247Y-130755988D01*
X112155164Y-130739785D01*
X112201139Y-130669412D01*
X112204611Y-130664374D01*
X112250343Y-130601433D01*
X112264285Y-130574066D01*
X112270962Y-130562541D01*
X112291171Y-130531610D01*
X112291173Y-130531607D01*
X112322240Y-130460777D01*
X112325286Y-130454345D01*
X112357568Y-130390992D01*
X112369136Y-130355383D01*
X112373513Y-130343890D01*
X112383183Y-130321844D01*
X112391063Y-130303881D01*
X112408397Y-130235428D01*
X112410667Y-130227569D01*
X112430553Y-130166368D01*
X112437465Y-130122718D01*
X112439724Y-130111720D01*
X112452108Y-130062821D01*
X112457382Y-129999152D01*
X112458486Y-129989998D01*
X112467500Y-129933090D01*
X112467500Y-129882189D01*
X112467924Y-129871948D01*
X112472643Y-129815004D01*
X112472643Y-129814995D01*
X112467924Y-129758050D01*
X112467500Y-129747809D01*
X112467500Y-129696909D01*
X112467500Y-129696908D01*
X112458485Y-129639995D01*
X112457382Y-129630841D01*
X112455856Y-129612421D01*
X112452108Y-129567179D01*
X112439727Y-129518291D01*
X112437464Y-129507267D01*
X112435428Y-129494418D01*
X112430553Y-129463632D01*
X112410665Y-129402424D01*
X112408400Y-129394582D01*
X112391063Y-129326119D01*
X112373512Y-129286109D01*
X112369137Y-129274617D01*
X112357567Y-129239006D01*
X112357565Y-129239001D01*
X112325300Y-129175679D01*
X112322228Y-129169192D01*
X112291177Y-129098401D01*
X112291174Y-129098395D01*
X112291173Y-129098393D01*
X112270956Y-129067449D01*
X112264282Y-129055926D01*
X112250343Y-129028567D01*
X112204619Y-128965634D01*
X112201128Y-128960569D01*
X112155165Y-128890217D01*
X112155164Y-128890215D01*
X112134686Y-128867970D01*
X112125607Y-128856884D01*
X112125605Y-128856881D01*
X112111517Y-128837490D01*
X112051782Y-128777755D01*
X112048234Y-128774057D01*
X111986747Y-128707265D01*
X111986742Y-128707261D01*
X111968206Y-128692833D01*
X111956692Y-128682665D01*
X111944511Y-128670484D01*
X111944508Y-128670482D01*
X111870706Y-128616861D01*
X111867430Y-128614396D01*
X111790514Y-128554530D01*
X111790515Y-128554530D01*
X111790509Y-128554526D01*
X111790505Y-128554524D01*
X111790501Y-128554521D01*
X111775783Y-128546556D01*
X111761922Y-128537824D01*
X111753436Y-128531659D01*
X111753426Y-128531653D01*
X111666178Y-128487197D01*
X111663457Y-128485768D01*
X111571813Y-128436173D01*
X111571802Y-128436169D01*
X111562346Y-128432922D01*
X111546328Y-128426131D01*
X111542996Y-128424433D01*
X111468152Y-128400114D01*
X111443468Y-128392094D01*
X111441535Y-128391448D01*
X111336616Y-128355429D01*
X111333403Y-128354893D01*
X111323143Y-128352385D01*
X111323096Y-128352582D01*
X111318362Y-128351445D01*
X111208437Y-128334035D01*
X111207426Y-128333871D01*
X111091335Y-128314500D01*
X110842665Y-128314500D01*
X110842664Y-128314500D01*
X110726571Y-128333871D01*
X110725562Y-128334035D01*
X110615633Y-128351446D01*
X110610893Y-128352584D01*
X110610846Y-128352388D01*
X110600599Y-128354892D01*
X110597388Y-128355428D01*
X110492443Y-128391454D01*
X110490503Y-128392102D01*
X110391005Y-128424432D01*
X110390997Y-128424436D01*
X110387652Y-128426140D01*
X110371662Y-128432918D01*
X110362197Y-128436168D01*
X110362194Y-128436170D01*
X110270525Y-128485777D01*
X110267806Y-128487205D01*
X110180563Y-128531659D01*
X110180557Y-128531662D01*
X110172072Y-128537827D01*
X110158222Y-128546553D01*
X110143492Y-128554525D01*
X110143485Y-128554530D01*
X110066547Y-128614411D01*
X110063275Y-128616872D01*
X109989491Y-128670482D01*
X109977297Y-128682674D01*
X109965792Y-128692833D01*
X109947259Y-128707258D01*
X109947256Y-128707261D01*
X109885776Y-128774045D01*
X109882231Y-128777739D01*
X109822483Y-128837489D01*
X109822478Y-128837495D01*
X109808393Y-128856881D01*
X109799310Y-128867973D01*
X109778834Y-128890216D01*
X109732857Y-128960589D01*
X109729367Y-128965651D01*
X109699818Y-129006322D01*
X109644489Y-129048988D01*
X109574875Y-129054967D01*
X109513080Y-129022362D01*
X109478723Y-128961523D01*
X109475500Y-128933437D01*
X109475500Y-80818848D01*
X109495185Y-80751809D01*
X109511819Y-80731167D01*
X116868167Y-73374819D01*
X116929490Y-73341334D01*
X116955848Y-73338500D01*
X130535962Y-73338500D01*
X130603001Y-73358185D01*
X130643349Y-73400500D01*
X130712467Y-73520216D01*
X130743923Y-73555151D01*
X130839129Y-73660888D01*
X130992265Y-73772148D01*
X130992270Y-73772151D01*
X131165192Y-73849142D01*
X131165197Y-73849144D01*
X131350354Y-73888500D01*
X131350355Y-73888500D01*
X131539644Y-73888500D01*
X131539646Y-73888500D01*
X131724803Y-73849144D01*
X131897730Y-73772151D01*
X132050871Y-73660888D01*
X132177533Y-73520216D01*
X132272179Y-73356284D01*
X132330674Y-73176256D01*
X132349247Y-72999536D01*
X132375832Y-72934924D01*
X132433129Y-72894939D01*
X132472568Y-72888500D01*
X133113245Y-72888500D01*
X133180284Y-72908185D01*
X133226039Y-72960989D01*
X133231174Y-72974178D01*
X133240430Y-73002665D01*
X133284818Y-73139278D01*
X133284821Y-73139284D01*
X133379467Y-73303216D01*
X133478273Y-73412951D01*
X133506129Y-73443888D01*
X133659265Y-73555148D01*
X133659270Y-73555151D01*
X133832192Y-73632142D01*
X133832197Y-73632144D01*
X134017354Y-73671500D01*
X134017355Y-73671500D01*
X134206644Y-73671500D01*
X134206646Y-73671500D01*
X134391803Y-73632144D01*
X134564730Y-73555151D01*
X134717871Y-73443888D01*
X134844533Y-73303216D01*
X134939179Y-73139284D01*
X134997674Y-72959256D01*
X135017460Y-72771000D01*
X134997674Y-72582744D01*
X134997672Y-72582740D01*
X134996994Y-72576281D01*
X134999781Y-72575988D01*
X135004182Y-72518574D01*
X135046338Y-72462855D01*
X135111927Y-72438772D01*
X135120141Y-72438500D01*
X137034548Y-72438500D01*
X137101587Y-72458185D01*
X137122229Y-72474819D01*
X137999038Y-73351628D01*
X138032523Y-73412951D01*
X138034678Y-73426347D01*
X138036522Y-73443888D01*
X138052326Y-73594256D01*
X138052327Y-73594259D01*
X138110818Y-73774277D01*
X138110821Y-73774284D01*
X138205467Y-73938216D01*
X138272931Y-74013142D01*
X138332129Y-74078888D01*
X138485265Y-74190148D01*
X138485270Y-74190151D01*
X138658192Y-74267142D01*
X138658197Y-74267144D01*
X138843354Y-74306500D01*
X138843355Y-74306500D01*
X139032644Y-74306500D01*
X139032646Y-74306500D01*
X139217803Y-74267144D01*
X139390730Y-74190151D01*
X139543871Y-74078888D01*
X139670533Y-73938216D01*
X139765179Y-73774284D01*
X139823674Y-73594256D01*
X139843460Y-73406000D01*
X139823674Y-73217744D01*
X139765179Y-73037716D01*
X139670533Y-72873784D01*
X139543871Y-72733112D01*
X139543870Y-72733111D01*
X139390734Y-72621851D01*
X139390729Y-72621848D01*
X139217807Y-72544857D01*
X139217802Y-72544855D01*
X139072001Y-72513865D01*
X139032646Y-72505500D01*
X139032645Y-72505500D01*
X138973452Y-72505500D01*
X138906413Y-72485815D01*
X138885771Y-72469181D01*
X138616771Y-72200181D01*
X138583286Y-72138858D01*
X138588270Y-72069166D01*
X138630142Y-72013233D01*
X138695606Y-71988816D01*
X138704452Y-71988500D01*
X139378548Y-71988500D01*
X139445587Y-72008185D01*
X139466229Y-72024819D01*
X140666038Y-73224628D01*
X140699523Y-73285951D01*
X140701678Y-73299347D01*
X140705978Y-73340256D01*
X140719326Y-73467256D01*
X140719327Y-73467259D01*
X140777818Y-73647277D01*
X140777821Y-73647284D01*
X140872467Y-73811216D01*
X140906616Y-73849142D01*
X140999129Y-73951888D01*
X141152265Y-74063148D01*
X141152270Y-74063151D01*
X141325192Y-74140142D01*
X141325197Y-74140144D01*
X141510354Y-74179500D01*
X141510355Y-74179500D01*
X141699644Y-74179500D01*
X141699646Y-74179500D01*
X141884803Y-74140144D01*
X142057730Y-74063151D01*
X142210871Y-73951888D01*
X142337533Y-73811216D01*
X142432179Y-73647284D01*
X142490674Y-73467256D01*
X142510460Y-73279000D01*
X142490674Y-73090744D01*
X142432179Y-72910716D01*
X142337533Y-72746784D01*
X142210871Y-72606112D01*
X142178708Y-72582744D01*
X142057734Y-72494851D01*
X142057729Y-72494848D01*
X141884807Y-72417857D01*
X141884802Y-72417855D01*
X141739001Y-72386865D01*
X141699646Y-72378500D01*
X141699645Y-72378500D01*
X141640452Y-72378500D01*
X141573413Y-72358815D01*
X141552771Y-72342181D01*
X140179198Y-70968608D01*
X140179178Y-70968586D01*
X140087733Y-70877141D01*
X140036509Y-70842915D01*
X139985286Y-70808688D01*
X139985283Y-70808686D01*
X139985280Y-70808685D01*
X139904792Y-70775347D01*
X139871453Y-70761537D01*
X139861427Y-70759543D01*
X139811029Y-70749518D01*
X139750610Y-70737500D01*
X139750607Y-70737500D01*
X139750606Y-70737500D01*
X116147815Y-70737500D01*
X116024601Y-70737500D01*
X116024597Y-70737500D01*
X115964179Y-70749518D01*
X115920951Y-70758116D01*
X115903754Y-70761537D01*
X115789924Y-70808687D01*
X115789915Y-70808692D01*
X115687476Y-70877140D01*
X115643913Y-70920703D01*
X115600350Y-70964267D01*
X115600347Y-70964270D01*
X107043270Y-79521347D01*
X107043267Y-79521350D01*
X106999704Y-79564912D01*
X106956142Y-79608474D01*
X106928565Y-79649747D01*
X106928564Y-79649748D01*
X106887690Y-79710916D01*
X106887686Y-79710924D01*
X106876940Y-79736870D01*
X106840538Y-79824752D01*
X106840535Y-79824764D01*
X106829422Y-79880629D01*
X106829423Y-79880630D01*
X106820944Y-79923262D01*
X106820943Y-79923268D01*
X106816500Y-79945601D01*
X100965000Y-79945601D01*
X100965000Y-68958000D01*
X100984685Y-68890961D01*
X101037489Y-68845206D01*
X101089000Y-68834000D01*
X178184000Y-68834000D01*
X178251039Y-68853685D01*
G37*
%TD.AperFunction*%
%TD*%
%TA.AperFunction,Conductor*%
%TO.N,+12V*%
G36*
X165043039Y-116478685D02*
G01*
X165088794Y-116531489D01*
X165100000Y-116583000D01*
X165100000Y-122177380D01*
X165080315Y-122244419D01*
X165027511Y-122290174D01*
X164976380Y-122301379D01*
X123698000Y-122427999D01*
X123698000Y-126677273D01*
X123678315Y-126744312D01*
X123639720Y-126782425D01*
X121666001Y-128015999D01*
X121666000Y-128015999D01*
X121666000Y-128016000D01*
X121666000Y-130175000D01*
X123639721Y-131408576D01*
X123686136Y-131460798D01*
X123698000Y-131513726D01*
X123698000Y-134933500D01*
X123678315Y-135000539D01*
X123625511Y-135046294D01*
X123574000Y-135057500D01*
X114932000Y-135057500D01*
X114864961Y-135037815D01*
X114819206Y-134985011D01*
X114808000Y-134933500D01*
X114808000Y-125094995D01*
X115911592Y-125094995D01*
X115911592Y-125095004D01*
X115931196Y-125356620D01*
X115931197Y-125356625D01*
X115989576Y-125612402D01*
X115989578Y-125612411D01*
X115989580Y-125612416D01*
X116085432Y-125856643D01*
X116216614Y-126083857D01*
X116284102Y-126168484D01*
X116380198Y-126288985D01*
X116521941Y-126420502D01*
X116572521Y-126467433D01*
X116789296Y-126615228D01*
X116789301Y-126615230D01*
X116789302Y-126615231D01*
X116789303Y-126615232D01*
X116908092Y-126672437D01*
X117025673Y-126729061D01*
X117025674Y-126729061D01*
X117025677Y-126729063D01*
X117276385Y-126806396D01*
X117535818Y-126845500D01*
X117798182Y-126845500D01*
X118057615Y-126806396D01*
X118308323Y-126729063D01*
X118544704Y-126615228D01*
X118761479Y-126467433D01*
X118910733Y-126328945D01*
X118953801Y-126288985D01*
X118953801Y-126288983D01*
X118953805Y-126288981D01*
X119117386Y-126083857D01*
X119248568Y-125856643D01*
X119344420Y-125612416D01*
X119402802Y-125356630D01*
X119402803Y-125356620D01*
X119422408Y-125095004D01*
X119422408Y-125094995D01*
X119911592Y-125094995D01*
X119911592Y-125095004D01*
X119931196Y-125356620D01*
X119931197Y-125356625D01*
X119989576Y-125612402D01*
X119989578Y-125612411D01*
X119989580Y-125612416D01*
X120085432Y-125856643D01*
X120216614Y-126083857D01*
X120284102Y-126168484D01*
X120380198Y-126288985D01*
X120521941Y-126420502D01*
X120572521Y-126467433D01*
X120789296Y-126615228D01*
X120789301Y-126615230D01*
X120789302Y-126615231D01*
X120789303Y-126615232D01*
X120908092Y-126672437D01*
X121025673Y-126729061D01*
X121025674Y-126729061D01*
X121025677Y-126729063D01*
X121276385Y-126806396D01*
X121535818Y-126845500D01*
X121798182Y-126845500D01*
X122057615Y-126806396D01*
X122308323Y-126729063D01*
X122544704Y-126615228D01*
X122761479Y-126467433D01*
X122910733Y-126328945D01*
X122953801Y-126288985D01*
X122953801Y-126288983D01*
X122953805Y-126288981D01*
X123117386Y-126083857D01*
X123248568Y-125856643D01*
X123344420Y-125612416D01*
X123402802Y-125356630D01*
X123402803Y-125356620D01*
X123422408Y-125095004D01*
X123422408Y-125094995D01*
X123402803Y-124833379D01*
X123402802Y-124833374D01*
X123402802Y-124833370D01*
X123344420Y-124577584D01*
X123248568Y-124333357D01*
X123117386Y-124106143D01*
X122953805Y-123901019D01*
X122953804Y-123901018D01*
X122953801Y-123901014D01*
X122761479Y-123722567D01*
X122544704Y-123574772D01*
X122544700Y-123574770D01*
X122544697Y-123574768D01*
X122544696Y-123574767D01*
X122308325Y-123460938D01*
X122308327Y-123460938D01*
X122057623Y-123383606D01*
X122057619Y-123383605D01*
X122057615Y-123383604D01*
X121932823Y-123364794D01*
X121798187Y-123344500D01*
X121798182Y-123344500D01*
X121535818Y-123344500D01*
X121535812Y-123344500D01*
X121374247Y-123368853D01*
X121276385Y-123383604D01*
X121276382Y-123383605D01*
X121276376Y-123383606D01*
X121025673Y-123460938D01*
X120789303Y-123574767D01*
X120789302Y-123574768D01*
X120572520Y-123722567D01*
X120380198Y-123901014D01*
X120216614Y-124106143D01*
X120085432Y-124333356D01*
X119989582Y-124577578D01*
X119989576Y-124577597D01*
X119931197Y-124833374D01*
X119931196Y-124833379D01*
X119911592Y-125094995D01*
X119422408Y-125094995D01*
X119402803Y-124833379D01*
X119402802Y-124833374D01*
X119402802Y-124833370D01*
X119344420Y-124577584D01*
X119248568Y-124333357D01*
X119117386Y-124106143D01*
X118953805Y-123901019D01*
X118953804Y-123901018D01*
X118953801Y-123901014D01*
X118761479Y-123722567D01*
X118544704Y-123574772D01*
X118544700Y-123574770D01*
X118544697Y-123574768D01*
X118544696Y-123574767D01*
X118308325Y-123460938D01*
X118308327Y-123460938D01*
X118057623Y-123383606D01*
X118057619Y-123383605D01*
X118057615Y-123383604D01*
X117932823Y-123364794D01*
X117798187Y-123344500D01*
X117798182Y-123344500D01*
X117535818Y-123344500D01*
X117535812Y-123344500D01*
X117374247Y-123368853D01*
X117276385Y-123383604D01*
X117276382Y-123383605D01*
X117276376Y-123383606D01*
X117025673Y-123460938D01*
X116789303Y-123574767D01*
X116789302Y-123574768D01*
X116572520Y-123722567D01*
X116380198Y-123901014D01*
X116216614Y-124106143D01*
X116085432Y-124333356D01*
X115989582Y-124577578D01*
X115989576Y-124577597D01*
X115931197Y-124833374D01*
X115931196Y-124833379D01*
X115911592Y-125094995D01*
X114808000Y-125094995D01*
X114808000Y-116583000D01*
X114827685Y-116515961D01*
X114880489Y-116470206D01*
X114932000Y-116459000D01*
X164976000Y-116459000D01*
X165043039Y-116478685D01*
G37*
%TD.AperFunction*%
%TD*%
M02*
