M48
; DRILL file {KiCad 8.0.8} date 2025-02-23T18:35:03+0100
; FORMAT={-:-/ absolute / inch / decimal}
; #@! TF.CreationDate,2025-02-23T18:35:03+01:00
; #@! TF.GenerationSoftware,Kicad,Pcbnew,8.0.8
; #@! TF.FileFunction,Plated,1,2,PTH
FMAT,2
INCH
; #@! TA.AperFunction,Plated,PTH,ViaDrill
T1C0.0157
; #@! TA.AperFunction,Plated,PTH,ComponentDrill
T2C0.0394
; #@! TA.AperFunction,Plated,PTH,ComponentDrill
T3C0.0709
; #@! TA.AperFunction,Plated,PTH,ComponentDrill
T4C0.0787
; #@! TA.AperFunction,Plated,PTH,ViaDrill
T5C0.1181
%
G90
G05
T1
X4.445Y-3.455
X4.567Y-4.1945
X4.665Y-3.4672
X4.71Y-4.2814
X4.715Y-4.6025
X4.7442Y-3.348
X4.7835Y-3.348
X4.8229Y-3.348
X4.865Y-4.2814
X4.875Y-4.6025
X5.02Y-4.2814
X5.035Y-3.45
X5.035Y-4.6025
X5.175Y-2.8735
X5.19Y-4.2764
X5.195Y-4.6025
X5.28Y-2.865
X5.35Y-4.2764
X5.355Y-4.6025
X5.47Y-2.89
X5.51Y-4.2764
X5.515Y-4.6025
X5.575Y-2.885
X5.675Y-4.2814
X5.675Y-4.6025
X5.715Y-3.975
X5.7481Y-3.6906
X5.83Y-4.2814
X5.835Y-4.6025
X5.995Y-4.2814
X5.995Y-4.6025
X6.005Y-2.88
X6.0631Y-3.8874
X6.1Y-2.88
X6.15Y-4.2814
X6.155Y-4.6025
X6.2149Y-3.68
X6.31Y-4.2814
X6.315Y-4.6025
X6.4337Y-5.0966
X6.4731Y-5.0573
X6.475Y-4.6025
X6.4961Y-5.2575
X6.4999Y-3.66
X6.5223Y-5.0081
X6.5355Y-5.2181
X6.5749Y-5.1787
T2
X4.485Y-3.11
X4.485Y-4.1099
X4.585Y-3.11
X4.585Y-4.1099
X4.685Y-3.11
X4.685Y-4.1099
X4.785Y-3.11
X4.785Y-4.1099
X4.885Y-3.11
X4.885Y-4.1099
X4.985Y-3.11
X4.985Y-4.1099
X5.085Y-3.11
X5.085Y-4.1099
X5.185Y-3.11
X5.185Y-4.1099
X5.285Y-3.11
X5.285Y-4.1099
X5.3096Y-3.525
X5.385Y-3.11
X5.385Y-4.1099
X5.4096Y-3.525
X5.485Y-3.11
X5.485Y-4.1099
X5.5096Y-3.525
X5.585Y-3.11
X5.585Y-4.1099
X5.6096Y-3.525
X5.6446Y-3.83
X5.685Y-3.11
X5.685Y-4.1099
X5.7446Y-3.83
X5.785Y-3.11
X5.785Y-4.1099
X5.8446Y-3.83
X5.885Y-3.11
X5.885Y-4.1099
X5.9446Y-3.83
X5.985Y-3.11
X5.985Y-4.1099
X6.085Y-3.11
X6.085Y-4.1099
X6.185Y-3.11
X6.185Y-4.1099
X6.285Y-3.11
X6.285Y-4.1099
X6.385Y-3.11
X6.385Y-4.1099
X6.485Y-3.11
X6.485Y-4.1099
X6.585Y-3.11
X6.585Y-4.1099
T3
X4.6326Y-4.925
X4.6326Y-5.24
X4.7113Y-5.0825
X4.79Y-4.925
X4.79Y-5.24
X4.8688Y-5.0825
X4.9475Y-4.925
X4.9475Y-5.24
X5.0263Y-5.0825
X5.105Y-4.925
X5.105Y-5.24
X5.1837Y-5.0825
X5.2625Y-4.925
X5.2625Y-5.24
X5.3412Y-5.0825
X5.42Y-4.925
X5.42Y-5.24
X5.4987Y-5.0825
X5.5774Y-4.925
X5.5774Y-5.24
X5.6562Y-5.0825
X5.7349Y-4.925
X5.7349Y-5.24
X5.8137Y-5.0825
X5.8924Y-4.925
X5.8924Y-5.24
X5.9711Y-5.0825
X6.0499Y-4.925
X6.0499Y-5.24
X6.1286Y-5.0825
X6.2074Y-4.925
X6.2074Y-5.24
X6.2861Y-5.0825
X6.3648Y-4.925
X6.3648Y-5.24
T4
X4.3688Y-5.1108
X6.6286Y-5.1108
T5
X4.0945Y-2.8346
X4.0945Y-4.9213
X6.8898Y-2.8346
X6.8898Y-4.9213
M30
