%TF.GenerationSoftware,KiCad,Pcbnew,8.0.8*%
%TF.CreationDate,2025-02-23T18:35:03+01:00*%
%TF.ProjectId,espio,65737069-6f2e-46b6-9963-61645f706362,rev?*%
%TF.SameCoordinates,Original*%
%TF.FileFunction,Soldermask,Bot*%
%TF.FilePolarity,Negative*%
%FSLAX46Y46*%
G04 Gerber Fmt 4.6, Leading zero omitted, Abs format (unit mm)*
G04 Created by KiCad (PCBNEW 8.0.8) date 2025-02-23 18:35:03*
%MOMM*%
%LPD*%
G01*
G04 APERTURE LIST*
%ADD10R,1.700000X1.700000*%
%ADD11O,1.700000X1.700000*%
%ADD12C,2.000000*%
%ADD13C,2.500000*%
G04 APERTURE END LIST*
D10*
%TO.C,U3*%
X113919000Y-104392000D03*
D11*
X116459000Y-104392000D03*
X118999000Y-104392000D03*
X121539000Y-104392000D03*
X124079000Y-104392000D03*
X126619000Y-104392000D03*
X129159000Y-104392000D03*
X131699000Y-104392000D03*
X134239000Y-104392000D03*
X136779000Y-104392000D03*
X139319000Y-104392000D03*
X141859000Y-104392000D03*
X144399000Y-104392000D03*
X146939000Y-104392000D03*
X149479000Y-104392000D03*
X152019000Y-104392000D03*
X154559000Y-104392000D03*
X157099000Y-104392000D03*
X159639000Y-104392000D03*
X162179000Y-104392000D03*
X164719000Y-104392000D03*
X167259000Y-104392000D03*
%TD*%
D12*
%TO.C,P1*%
X110967000Y-129815000D03*
X168367000Y-129815000D03*
D13*
X117667000Y-125095000D03*
X121667000Y-125095000D03*
X125667000Y-125095000D03*
X129667000Y-125095000D03*
X133667000Y-125095000D03*
X137667000Y-125095000D03*
X141667000Y-125095000D03*
X145667000Y-125095000D03*
X149667000Y-125095000D03*
X153667000Y-125095000D03*
X157667000Y-125095000D03*
X161667000Y-125095000D03*
X119667000Y-129095000D03*
X123667000Y-129095000D03*
X127667000Y-129095000D03*
X131667000Y-129095000D03*
X135667000Y-129095000D03*
X139667000Y-129095000D03*
X143667000Y-129095000D03*
X147667000Y-129095000D03*
X151667000Y-129095000D03*
X155667000Y-129095000D03*
X159667000Y-129095000D03*
X117667000Y-133095000D03*
X121667000Y-133095000D03*
X125667000Y-133095000D03*
X129667000Y-133095000D03*
X133667000Y-133095000D03*
X137667000Y-133095000D03*
X141667000Y-133095000D03*
X145667000Y-133095000D03*
X149667000Y-133095000D03*
X153667000Y-133095000D03*
X157667000Y-133095000D03*
X161667000Y-133095000D03*
%TD*%
D10*
%TO.C,U2*%
X113919000Y-78994000D03*
D11*
X116459000Y-78994000D03*
X118999000Y-78994000D03*
X121539000Y-78994000D03*
X124079000Y-78994000D03*
X126619000Y-78994000D03*
X129159000Y-78994000D03*
X131699000Y-78994000D03*
X134239000Y-78994000D03*
X136779000Y-78994000D03*
X139319000Y-78994000D03*
X141859000Y-78994000D03*
X144399000Y-78994000D03*
X146939000Y-78994000D03*
X149479000Y-78994000D03*
X152019000Y-78994000D03*
X154559000Y-78994000D03*
X157099000Y-78994000D03*
X159639000Y-78994000D03*
X162179000Y-78994000D03*
X164719000Y-78994000D03*
X167259000Y-78994000D03*
%TD*%
D10*
%TO.C,J2*%
X150993000Y-97282000D03*
D11*
X148453000Y-97282000D03*
X145913000Y-97282000D03*
X143373000Y-97282000D03*
%TD*%
D10*
%TO.C,J1*%
X142484000Y-89535000D03*
D11*
X139944000Y-89535000D03*
X137404000Y-89535000D03*
X134864000Y-89535000D03*
%TD*%
M02*
